M48
;Layer_Color=9474304
;FILE_FORMAT=4:4
METRIC,LZ
;TYPE=PLATED
T01F00S00C0.3000
T02F00S00C0.9000
T03F00S00C1.0000
T04F00S00C1.0200
T05F00S00C1.6000
T06F00S00C1.7000
;TYPE=NON_PLATED
T07F00S00C2.8000
T08F00S00C3.0000
T09F00S00C3.2000
T10F00S00C28.0000
%
T01
X001865Y0014975
X002165
X002465
X002765
X003065
X003365
X003665
X003815Y0017975
X003515
X003215
X002915
X002615
X002315
X002015
X001715
X001865Y0020975
X002165
X002465
X002765
X002915Y0023975
X003215
X003515
X003815
X003965Y0026975
X003665
X003365
X003065
X002765
X002465
X002165
X001865
X002015Y0029975
X002315
X002465Y0032975
X002165
X001865
X001565
X001715Y0035975
X002015
X002315
X002165Y0038975
X001865
X001565
X001265
X001415Y0035975
X001115
X000665Y0032975
X001715Y0029975
X002015Y0023975
X002315
X002615
X003365Y0020975
X003665
X003815Y0011975
X003515
X003215
X003365Y0008975
X003665
X003965
X003815Y0005975
X003515
X003215
X003965Y0002975
X002315Y0011975
X002765Y0038975
X003215Y0035975
X00363739Y0034411
X004265Y0032975
X004565
X004865
X005165
X005465
X005765
X005615Y0035975
X005315
X006215
Y0029975
X006665Y0026975
X006965
X007265
X007565
X007865
X007715Y0023975
X007415
X007115
X006815
X006965Y0020975
X007265
X007565
X007865
X007715Y0017975
X007415
X007115
X006815
X006965Y0014975
X007265
X007565
X007865
X007715Y0011975
X007415
X007115
X006815
X006965Y0008975
X007265
X007565
X007865
X007415Y0005975
X007115
X006815
X006665Y0008975
Y0002975
X006365
X006065
X005765
X005465
X005165
X004865
X004565
X004265
X004415Y0005975
X006215
X007115Y0035975
X007415
X007865Y0038975
X004415Y0029975
X008315
X008615
X008915
X009065Y0032975
X008765
X008465
X008315Y0035975
X008165Y0038975
X0090575Y003605
X009215Y0035975
X009515
X009965Y0032975
X008765Y0026975
X008465
X008165
X008315Y0023975
X008015
X008165Y0020975
X008465
X008765
X008915Y0017975
X008615
X008315
X008015
X008165Y0014975
X008465
X008765
X008315Y0011975
X008015
X008155Y0044675
X00842Y0044775
X008765Y0044975
X008915Y0053975
X009215
X009515
X009815
X009965Y0056975
X010265
X010415Y0059975
X010115
X009815
X009515
X009215
X009365Y0062975
X009665
X009965
X010265
X010115Y0065975
X009815
X009515
X009215
X008915
X009065Y0068975
X009365
X009665
X009965
X010265
X010115Y0071975
X009815
X009215
X008915
X008425Y006915
X008165Y0068975
X0081575Y0065325
X008165Y0062975
X008155Y005955
X008165Y0056975
X008765
X009365
X009665
X009965Y0050975
X010115Y0047975
X0100876Y00472234
X009965Y0044975
X010265
X010415Y0047975
Y0041975
X010115
X009815
Y0047975
X009365Y0050975
X009065Y0062975
X0084225Y0061025
X008015Y0071975
X008165Y0074975
X007865
X007715Y0077975
X007415
X007115
X006815
X007265Y0074975
X007115Y0065975
X007715
X007865Y0068975
Y0062975
X007715Y0059975
X007865Y0056975
X007715Y0053975
X007115
Y0059975
X006665Y0056975
X006365
X005765Y0068975
X005615Y0077975
X005315
X004865Y0074975
X004265Y0068975
Y0062975
X004715Y0059975
X00475842Y00469156
X0046101Y0046355
X007865Y0044975
X003815Y0047975
X003965Y0050975
X003665
X003815Y0053975
Y0059975
X003215
X0031369Y0058674
X0031725Y005565
X002915Y0065975
X0029718Y0069596
X002765Y0068975
X00228232Y00714454
X002015Y0071975
X001715
X001415
X001565Y0074975
X001865
X002165
X002465
X002315Y0077975
X002015
X001865Y0068975
X001565
X001265
X001415Y0065975
X001715
X002015
Y0059975
X001715
X001415
X001115
X000815
X000515
X000665Y0062975
X000965
X001265
X001565
Y0056975
X001865
X002015Y0053975
X001715
X001415
X001115
X000815
X000515
X000665Y0056975
X000965
X001265
Y0050975
X001565
X001865
X002165
X002015Y0047975
X001715
X001415
X001115
X000815
X000515
X000665Y0050975
X000965
Y0044975
X001265
X001565
X001865
X002165
X002015Y0041975
X001715
X001415
X001115
X000815
X000515
X000665Y0044975
X000365
Y0050975
Y0056975
Y0062975
X001115Y0065975
X000815Y0071975
X000515
X003515Y0077975
X003965Y0074975
X002615Y0047975
X002765Y0044975
Y0080975
X002465
X002165
X002315Y0083975
X002615
X002765Y0086975
X002465
X002165
X001865
X002015Y0089975
X002315
X002615
X002915
X003065Y0092975
X003215Y0095975
X003365Y0098975
X003065
X003515Y0101975
X003815
X00384Y0100725
X00391
Y00999
X00384
X003965Y0092975
Y0086975
X002465Y0092975
X002165
X002315Y0095975
X001715Y0089975
X002015Y0083975
X004115
X004265Y0086975
X004565
X004715Y0089975
X004415
X004115
Y0095975
X004415
X004715
X004565Y0092975
X004715Y0101975
X004415
X004115
X00398Y0100725
Y00999
X005915Y0101975
X006515
X006815
X007115
X007265Y0098975
X007565
X007715Y0095975
X007865Y0092975
X007565
X007265
Y0086975
X00773Y0086975
X007865Y0080975
X007565
X006965
X006515Y0083975
X006365Y0086975
X006515Y0089975
X006815Y0095975
X006965Y0098975
X006665
X006365
X005915Y0095975
X005615Y0089975
X005315Y0083975
X005165Y0080975
X008015Y0083975
X0082775Y008155
X008615Y0083975
X008765Y0086975
X008465
X008615Y0089975
X008915
X008315
X008465Y0092975
X008165
X008015Y0095975
T02
X0034417Y0083312
Y0085852
Y0088392
Y0090932
X0036957Y0089662
Y0087122
Y0084582
Y0092202
X0047417Y0091567
Y0094057
Y0083947
Y0081457
X0061035Y008439
Y008693
Y008947
Y009201
X0063575Y009074
Y009328
Y00882
Y008566
X0074035Y0085025
Y0082535
Y0092645
Y0095135
T03
X0033956Y003936
X0036496
X0039036
X0041576
X0044116
X0046656
X0049196
X0051736
X0054276
X0056816
X0059356
X0061896
X0064436
X0066976
X0069516
X0072056
Y00419
Y004444
X0069516
X0066976
X0064436
X0061896
X0059356
X0056816
X0054276
X0051736
Y00419
X0054276
X0056816
X0059356
X0061896
X0064436
X0066976
X0069516
X0049196
Y004444
X0046656
X0044116
X0041576
Y00419
X0044116
X0046656
X0039036
X0036496
X0033956
Y004444
X0036496
X0039036
T04
X0052025Y0051725
Y0054265
Y0056805
X0054565
Y0059345
X0052025
Y0061885
Y0064425
Y0066965
Y0069505
Y0072045
Y0074585
Y0077125
X0054565
Y0074585
Y0072045
Y0069505
Y0066965
Y0064425
Y0061885
Y0054265
Y0051725
Y0079665
X0052025
Y0082205
Y0084745
X0054565
Y0082205
Y0087285
Y0089825
X0052025
Y0092365
Y0094905
X0054565
Y0097445
Y0099985
X0052025
Y0097445
X0054565Y0092365
X0052025Y0087285
T05
X0039457Y0079882
Y0095632
X0066075Y009671
Y008096
T06
X00882Y0040483
X00932
T07
X0078006Y00416
X0028006
T08
X0040881Y0005881
X0065131
Y0030131
X0040881
T09
X00280067Y00097051
X00068846Y00380064
X00991288
X01030067Y00530064
X00068842Y00678064
X00280067Y00963076
X0043307Y0093472
Y0082042
X0069925Y008312
Y009455
T10
X0053006Y0018006
M30
