G04*
G04 #@! TF.GenerationSoftware,Altium Limited,Altium Designer,25.5.2 (35)*
G04*
G04 Layer_Color=8388736*
%FSLAX44Y44*%
%MOMM*%
G71*
G04*
G04 #@! TF.SameCoordinates,EB95D63D-B8FE-41A6-B911-C878F3A8E18A*
G04*
G04*
G04 #@! TF.FilePolarity,Negative*
G04*
G01*
G75*
%ADD25R,2.6924X1.4224*%
%ADD26R,1.8024X3.5824*%
%ADD27R,2.9094X1.1574*%
%ADD28R,1.1574X2.9094*%
%ADD29R,3.4032X1.8032*%
%ADD30R,1.8032X3.4032*%
%ADD31R,3.5824X1.8024*%
%ADD32R,1.4224X2.6924*%
%ADD33R,1.1032X1.2532*%
%ADD34R,1.0032X1.1532*%
%ADD35C,1.6032*%
%ADD36C,0.2032*%
%ADD37C,2.6032*%
%ADD38C,1.8532*%
%ADD39C,1.7332*%
%ADD40C,2.7532*%
%ADD41R,1.7332X1.7332*%
%ADD42R,2.7532X2.7532*%
%ADD43R,1.8532X1.8532*%
%ADD44C,2.7032*%
D25*
X363211Y571259D02*
D03*
X593001Y742709D02*
D03*
X363211Y541259D02*
D03*
X593001Y712709D02*
D03*
X687001Y742709D02*
D03*
X318781Y726199D02*
D03*
X363211D02*
D03*
X224781Y541259D02*
D03*
X457211Y571259D02*
D03*
X847001Y742709D02*
D03*
X753000Y591820D02*
D03*
X457211Y541259D02*
D03*
X753001Y712709D02*
D03*
X687001D02*
D03*
X847000Y591820D02*
D03*
X847001Y712709D02*
D03*
X753001Y742709D02*
D03*
X318781Y541259D02*
D03*
Y571259D02*
D03*
X224781D02*
D03*
X457211Y696199D02*
D03*
X363211D02*
D03*
X457211Y726199D02*
D03*
X224781Y696199D02*
D03*
Y726199D02*
D03*
X318781Y696199D02*
D03*
D26*
X640001Y673859D02*
D03*
Y781559D02*
D03*
X271781Y657349D02*
D03*
Y765049D02*
D03*
X410211Y657349D02*
D03*
Y765049D02*
D03*
X271781Y502409D02*
D03*
Y610109D02*
D03*
X410211Y502409D02*
D03*
Y610109D02*
D03*
X800001Y673859D02*
D03*
Y781559D02*
D03*
X800000Y552970D02*
D03*
Y630670D02*
D03*
D27*
X464820Y482860D02*
D03*
X722250Y677500D02*
D03*
X618490Y628390D02*
D03*
X981000Y470000D02*
D03*
Y437500D02*
D03*
X464820Y515360D02*
D03*
X722250Y710000D02*
D03*
X618490Y595890D02*
D03*
D28*
X327920Y666750D02*
D03*
X185680Y662940D02*
D03*
Y623570D02*
D03*
X266960Y332740D02*
D03*
X299460D02*
D03*
X218180Y623570D02*
D03*
Y662940D02*
D03*
X360420Y666750D02*
D03*
D29*
X468250Y1002750D02*
D03*
X418250D02*
D03*
D30*
X617220Y1027030D02*
D03*
Y977030D02*
D03*
D31*
X260870Y254000D02*
D03*
X338570D02*
D03*
D32*
X299720Y207000D02*
D03*
Y301000D02*
D03*
D33*
X912470Y590280D02*
D03*
X896470D02*
D03*
D34*
X869800Y626110D02*
D03*
X882800D02*
D03*
X880260Y590550D02*
D03*
X867260D02*
D03*
D35*
X610350Y843900D02*
D03*
X635750Y856600D02*
D03*
X740350Y951350D02*
D03*
Y926450D02*
D03*
Y850250D02*
D03*
Y825350D02*
D03*
X610350Y869300D02*
D03*
X635750Y907400D02*
D03*
X610350Y920100D02*
D03*
X635750Y932800D02*
D03*
X610350Y894700D02*
D03*
X635750Y882000D02*
D03*
X474170Y940570D02*
D03*
Y915670D02*
D03*
Y839470D02*
D03*
Y814570D02*
D03*
X344170Y833120D02*
D03*
X369570Y845820D02*
D03*
X344170Y858520D02*
D03*
X369570Y871220D02*
D03*
X344170Y883920D02*
D03*
X369570Y896620D02*
D03*
X344170Y909320D02*
D03*
X369570Y922020D02*
D03*
X651310Y58810D02*
D03*
Y301310D02*
D03*
X408810D02*
D03*
Y58810D02*
D03*
D36*
X699250Y831200D02*
D03*
Y945500D02*
D03*
X433070Y820420D02*
D03*
Y934720D02*
D03*
X530060Y180060D02*
D03*
D37*
X660750Y809600D02*
D03*
Y967100D02*
D03*
X394570Y798820D02*
D03*
Y956320D02*
D03*
D38*
X339560Y419000D02*
D03*
X364960D02*
D03*
X517360Y444400D02*
D03*
X542760D02*
D03*
X568160D02*
D03*
X593560D02*
D03*
X618960D02*
D03*
X644360D02*
D03*
X669760D02*
D03*
X695160D02*
D03*
X720560D02*
D03*
X618960Y419000D02*
D03*
X593560D02*
D03*
X720560D02*
D03*
X695160D02*
D03*
X669760D02*
D03*
X644360D02*
D03*
X568160D02*
D03*
X415760Y393600D02*
D03*
X390360D02*
D03*
X415760Y419000D02*
D03*
X390360D02*
D03*
X415760Y444400D02*
D03*
X390360D02*
D03*
X542760Y419000D02*
D03*
X695160Y393600D02*
D03*
X669760D02*
D03*
X644360D02*
D03*
X618960D02*
D03*
X593560D02*
D03*
X568160D02*
D03*
X542760D02*
D03*
X517360D02*
D03*
X491960D02*
D03*
X466560D02*
D03*
X441160D02*
D03*
X339560D02*
D03*
X517360Y419000D02*
D03*
X491960D02*
D03*
Y444400D02*
D03*
X466560D02*
D03*
X441160D02*
D03*
X466560Y419000D02*
D03*
X441160D02*
D03*
X364960Y444400D02*
D03*
X339560D02*
D03*
X364960Y393600D02*
D03*
D39*
X520250Y923650D02*
D03*
X545650Y898250D02*
D03*
X520250Y847450D02*
D03*
Y822050D02*
D03*
Y796650D02*
D03*
Y771250D02*
D03*
Y745850D02*
D03*
Y720450D02*
D03*
Y695050D02*
D03*
Y669650D02*
D03*
Y644250D02*
D03*
X545650Y568050D02*
D03*
Y593450D02*
D03*
X520250Y542650D02*
D03*
Y568050D02*
D03*
Y593450D02*
D03*
X545650Y542650D02*
D03*
X520250Y517250D02*
D03*
X545650Y999850D02*
D03*
Y974450D02*
D03*
Y949050D02*
D03*
X520250Y999850D02*
D03*
Y974450D02*
D03*
Y949050D02*
D03*
X545650Y822050D02*
D03*
Y644250D02*
D03*
Y745850D02*
D03*
X520250Y898250D02*
D03*
X545650Y618850D02*
D03*
Y669650D02*
D03*
Y923650D02*
D03*
Y847450D02*
D03*
Y771250D02*
D03*
Y695050D02*
D03*
Y796650D02*
D03*
X520250Y618850D02*
D03*
X545650Y720450D02*
D03*
X520250Y872850D02*
D03*
X545650D02*
D03*
D40*
X882000Y404830D02*
D03*
D41*
X545650Y517250D02*
D03*
D42*
X932000Y404830D02*
D03*
D43*
X720560Y393600D02*
D03*
D44*
X280060Y416000D02*
D03*
X780060D02*
D03*
M02*
