G04*
G04 #@! TF.GenerationSoftware,Altium Limited,Altium Designer,25.5.2 (35)*
G04*
G04 Layer_Physical_Order=2*
G04 Layer_Color=16711680*
%FSLAX44Y44*%
%MOMM*%
G71*
G04*
G04 #@! TF.SameCoordinates,D2046EA4-9D5B-47F5-8153-158F0B1C5282*
G04*
G04*
G04 #@! TF.FilePolarity,Positive*
G04*
G01*
G75*
%ADD13C,0.2000*%
%ADD45C,2.0000*%
%ADD46C,0.4900*%
%ADD47C,1.6500*%
%ADD48C,1.5300*%
%ADD49C,2.5500*%
%ADD50R,1.5300X1.5300*%
%ADD51R,2.5500X2.5500*%
%ADD52C,1.4000*%
%ADD53C,2.4000*%
%ADD54R,1.6500X1.6500*%
%ADD55C,2.5000*%
%ADD56C,0.6000*%
%ADD57C,0.2000*%
G36*
X561637Y1056674D02*
X582631Y1054994D01*
X603543Y1052477D01*
X624337Y1049128D01*
X644981Y1044951D01*
X665441Y1039954D01*
X685686Y1034143D01*
X705683Y1027530D01*
X725400Y1020123D01*
X744806Y1011935D01*
X763869Y1002979D01*
X782559Y993270D01*
X800847Y982822D01*
X818704Y971652D01*
X836100Y959779D01*
X853009Y947220D01*
X869403Y933997D01*
X885256Y920130D01*
X900543Y905641D01*
X907890Y898098D01*
X907890Y898097D01*
X909120Y896835D01*
X911025Y893870D01*
X912298Y890585D01*
X912889Y887110D01*
X912774Y883588D01*
X911957Y880160D01*
X910471Y876965D01*
X908376Y874131D01*
X907067Y872952D01*
X869878Y839467D01*
X869841Y839417D01*
X869789Y839383D01*
X868434Y838040D01*
X868331Y837888D01*
X868194Y837766D01*
X865896Y834723D01*
X865790Y834503D01*
X865641Y834309D01*
X863963Y830887D01*
X863900Y830650D01*
X863792Y830432D01*
X862793Y826752D01*
X862776Y826509D01*
X862711Y826274D01*
X862429Y822472D01*
X862458Y822229D01*
X862439Y821986D01*
X862883Y818199D01*
X862959Y817967D01*
X862986Y817724D01*
X864140Y814091D01*
X864258Y813877D01*
X864331Y813644D01*
X866154Y810296D01*
X866272Y810155D01*
X866351Y809989D01*
X867494Y808460D01*
X867540Y808419D01*
X867569Y808365D01*
X871521Y803571D01*
X879148Y793767D01*
X886495Y783749D01*
X893554Y773526D01*
X900321Y763107D01*
X906788Y752501D01*
X912951Y741715D01*
X918807Y730758D01*
X921578Y725198D01*
X921616Y725149D01*
X921635Y725091D01*
X922566Y723425D01*
X922686Y723285D01*
X922767Y723121D01*
X925084Y720093D01*
X925267Y719932D01*
X925415Y719737D01*
X928264Y717205D01*
X928475Y717081D01*
X928656Y716918D01*
X931935Y714972D01*
X932165Y714891D01*
X932374Y714765D01*
X935962Y713476D01*
X936204Y713440D01*
X936433Y713356D01*
X940201Y712772D01*
X940445Y712782D01*
X940686Y712744D01*
X944496Y712885D01*
X944733Y712941D01*
X944977Y712949D01*
X948691Y713811D01*
X948859Y713886D01*
X949040Y713918D01*
X950818Y714610D01*
X950870Y714644D01*
X950930Y714657D01*
X996646Y735011D01*
X998256Y735728D01*
X1001697Y736489D01*
X1005220Y736547D01*
X1008684Y735899D01*
X1011949Y734572D01*
X1014882Y732619D01*
X1017366Y730119D01*
X1019300Y727173D01*
X1019953Y725536D01*
X1023664Y716236D01*
X1030375Y697366D01*
X1036364Y678256D01*
X1041624Y658932D01*
X1046147Y639421D01*
X1049926Y619754D01*
X1052956Y599958D01*
X1055232Y580060D01*
X1056751Y560090D01*
X1057019Y553041D01*
X1055622Y552495D01*
X1054183Y554180D01*
X1050113Y557655D01*
X1045550Y560452D01*
X1040606Y562500D01*
X1035402Y563749D01*
X1030067Y564169D01*
X1024732Y563749D01*
X1019528Y562500D01*
X1014583Y560452D01*
X1010020Y557655D01*
X1005951Y554180D01*
X1002475Y550110D01*
X999679Y545547D01*
X997631Y540603D01*
X996381Y535399D01*
X995962Y530064D01*
X996381Y524729D01*
X997631Y519525D01*
X999679Y514580D01*
X1002475Y510017D01*
X1005951Y505948D01*
X1010020Y502472D01*
X1014583Y499676D01*
X1019528Y497628D01*
X1024732Y496379D01*
X1030067Y495959D01*
X1035402Y496379D01*
X1040606Y497628D01*
X1045550Y499676D01*
X1050113Y502472D01*
X1054183Y505948D01*
X1055622Y507633D01*
X1057019Y507087D01*
X1056751Y500037D01*
X1055232Y480068D01*
X1052956Y460170D01*
X1049926Y440373D01*
X1046147Y420706D01*
X1041624Y401196D01*
X1036364Y381872D01*
X1030375Y362761D01*
X1023664Y343891D01*
X1019953Y334591D01*
X1019300Y332955D01*
X1017366Y330009D01*
X1014882Y327509D01*
X1011949Y325556D01*
X1008684Y324229D01*
X1005221Y323581D01*
X1001697Y323639D01*
X998256Y324399D01*
X996646Y325116D01*
X950930Y345470D01*
X950870Y345484D01*
X950818Y345517D01*
X949040Y346209D01*
X948859Y346241D01*
X948691Y346317D01*
X944977Y347178D01*
X944733Y347186D01*
X944496Y347243D01*
X940686Y347384D01*
X940445Y347345D01*
X940201Y347355D01*
X936433Y346771D01*
X936204Y346688D01*
X935962Y346651D01*
X932374Y345363D01*
X932165Y345237D01*
X931935Y345156D01*
X928656Y343210D01*
X928475Y343047D01*
X928264Y342923D01*
X925415Y340390D01*
X925267Y340196D01*
X925084Y340034D01*
X922767Y337007D01*
X922685Y336842D01*
X922566Y336702D01*
X921635Y335037D01*
X921615Y334978D01*
X921578Y334929D01*
X918807Y329371D01*
X912952Y318413D01*
X906788Y307627D01*
X900321Y297020D01*
X893554Y286601D01*
X886495Y276379D01*
X879148Y266361D01*
X871521Y256556D01*
X867569Y251763D01*
X867540Y251709D01*
X867494Y251667D01*
X866351Y250139D01*
X866272Y249973D01*
X866154Y249832D01*
X864331Y246483D01*
X864258Y246250D01*
X864140Y246036D01*
X862986Y242403D01*
X862959Y242160D01*
X862883Y241928D01*
X862439Y238142D01*
X862458Y237898D01*
X862429Y237656D01*
X862711Y233854D01*
X862776Y233619D01*
X862793Y233375D01*
X863792Y229696D01*
X863900Y229477D01*
X863963Y229241D01*
X865641Y225818D01*
X865790Y225624D01*
X865896Y225404D01*
X868194Y222362D01*
X868331Y222240D01*
X868434Y222087D01*
X869789Y220744D01*
X869841Y220710D01*
X869878Y220661D01*
X907067Y187176D01*
X907067Y187175D01*
X908376Y185996D01*
X910471Y183162D01*
X911957Y179967D01*
X912774Y176539D01*
X912889Y173017D01*
X912298Y169543D01*
X911025Y166257D01*
X909120Y163292D01*
X900543Y154487D01*
X885255Y139997D01*
X869402Y126130D01*
X853008Y112907D01*
X836100Y100349D01*
X818704Y88475D01*
X800847Y77306D01*
X782559Y66858D01*
X763869Y57148D01*
X744805Y48192D01*
X725400Y40005D01*
X705683Y32598D01*
X685686Y25984D01*
X665441Y20174D01*
X644981Y15177D01*
X624337Y11000D01*
X603543Y7650D01*
X582631Y5133D01*
X561637Y3453D01*
X540591Y2613D01*
X519529Y2613D01*
X498484Y3453D01*
X477489Y5133D01*
X456577Y7650D01*
X435783Y11000D01*
X415139Y15177D01*
X394679Y20174D01*
X374434Y25984D01*
X354437Y32598D01*
X334720Y40005D01*
X315315Y48192D01*
X296251Y57148D01*
X286667Y62127D01*
X286862Y63716D01*
X290606Y64615D01*
X295550Y66663D01*
X300113Y69460D01*
X304183Y72935D01*
X307658Y77005D01*
X310455Y81568D01*
X312503Y86512D01*
X313752Y91716D01*
X314172Y97051D01*
X313752Y102386D01*
X312503Y107590D01*
X310455Y112535D01*
X307658Y117098D01*
X304183Y121167D01*
X300113Y124643D01*
X295550Y127439D01*
X290606Y129487D01*
X285402Y130736D01*
X280067Y131156D01*
X274732Y130736D01*
X269528Y129487D01*
X264583Y127439D01*
X260020Y124643D01*
X255951Y121167D01*
X252475Y117098D01*
X249679Y112535D01*
X247631Y107590D01*
X246381Y102386D01*
X245962Y97051D01*
X246381Y91716D01*
X247631Y86512D01*
X247764Y86189D01*
X246619Y85221D01*
X241416Y88475D01*
X224020Y100349D01*
X207111Y112907D01*
X190717Y126130D01*
X174865Y139997D01*
X159577Y154487D01*
X152229Y162030D01*
X152229Y162030D01*
X151000Y163292D01*
X149095Y166257D01*
X147822Y169543D01*
X147231Y173017D01*
X147346Y176539D01*
X148163Y179967D01*
X149649Y183162D01*
X151744Y185996D01*
X153053Y187176D01*
X190242Y220661D01*
X190279Y220710D01*
X190331Y220744D01*
X191686Y222087D01*
X191789Y222240D01*
X191926Y222362D01*
X194224Y225404D01*
X194330Y225624D01*
X194478Y225818D01*
X196157Y229241D01*
X196220Y229477D01*
X196328Y229696D01*
X197327Y233375D01*
X197344Y233619D01*
X197409Y233854D01*
X197691Y237656D01*
X197661Y237898D01*
X197681Y238142D01*
X197237Y241928D01*
X197161Y242160D01*
X197134Y242403D01*
X195979Y246036D01*
X195861Y246250D01*
X195789Y246483D01*
X193966Y249832D01*
X193848Y249973D01*
X193769Y250138D01*
X192626Y251667D01*
X192581Y251709D01*
X192551Y251763D01*
X188599Y256556D01*
X180972Y266361D01*
X173625Y276379D01*
X166566Y286601D01*
X159800Y297020D01*
X153332Y307627D01*
X147168Y318413D01*
X141313Y329370D01*
X138542Y334929D01*
X138504Y334978D01*
X138485Y335037D01*
X137554Y336702D01*
X137434Y336842D01*
X137353Y337007D01*
X135036Y340034D01*
X134853Y340196D01*
X134705Y340390D01*
X131856Y342923D01*
X131645Y343047D01*
X131463Y343210D01*
X128185Y345156D01*
X127955Y345237D01*
X127746Y345363D01*
X124157Y346651D01*
X123916Y346688D01*
X123687Y346771D01*
X119919Y347355D01*
X119675Y347345D01*
X119434Y347384D01*
X115624Y347243D01*
X115387Y347186D01*
X115143Y347178D01*
X111429Y346317D01*
X111261Y346241D01*
X111081Y346209D01*
X109302Y345517D01*
X109250Y345484D01*
X109190Y345470D01*
X63474Y325116D01*
X61864Y324399D01*
X58423Y323639D01*
X54899Y323581D01*
X51435Y324229D01*
X48171Y325556D01*
X45238Y327509D01*
X42754Y330009D01*
X40820Y332955D01*
X40167Y334591D01*
X36456Y343891D01*
X29745Y362761D01*
X23756Y381872D01*
X18496Y401196D01*
X13973Y420707D01*
X10194Y440373D01*
X7164Y460170D01*
X4888Y480068D01*
X3369Y500037D01*
X2609Y520050D01*
X2609Y540077D01*
X3369Y560090D01*
X4888Y580060D01*
X7164Y599958D01*
X10194Y619754D01*
X13973Y639421D01*
X18496Y658932D01*
X23756Y678256D01*
X29745Y697366D01*
X36456Y716236D01*
X40167Y725536D01*
X40820Y727173D01*
X42754Y730119D01*
X45238Y732619D01*
X48171Y734572D01*
X51435Y735899D01*
X54899Y736547D01*
X58423Y736489D01*
X61864Y735728D01*
X63474Y735012D01*
X109190Y714657D01*
X109250Y714644D01*
X109302Y714610D01*
X111080Y713918D01*
X111261Y713886D01*
X111429Y713811D01*
X115143Y712949D01*
X115387Y712941D01*
X115624Y712885D01*
X119434Y712744D01*
X119675Y712782D01*
X119919Y712772D01*
X123687Y713356D01*
X123916Y713440D01*
X124157Y713476D01*
X127746Y714765D01*
X127955Y714890D01*
X128185Y714972D01*
X131463Y716918D01*
X131645Y717081D01*
X131856Y717204D01*
X134705Y719737D01*
X134853Y719932D01*
X135036Y720093D01*
X137353Y723120D01*
X137434Y723285D01*
X137554Y723425D01*
X138485Y725091D01*
X138505Y725149D01*
X138542Y725198D01*
X141313Y730758D01*
X147168Y741714D01*
X153332Y752501D01*
X159799Y763107D01*
X166566Y773526D01*
X173625Y783749D01*
X180972Y793767D01*
X188599Y803572D01*
X192551Y808365D01*
X192580Y808419D01*
X192626Y808460D01*
X193769Y809989D01*
X193848Y810155D01*
X193966Y810296D01*
X195789Y813644D01*
X195862Y813877D01*
X195979Y814091D01*
X197134Y817724D01*
X197161Y817967D01*
X197237Y818199D01*
X197681Y821986D01*
X197661Y822229D01*
X197691Y822472D01*
X197409Y826274D01*
X197344Y826509D01*
X197327Y826752D01*
X196329Y830432D01*
X196220Y830650D01*
X196157Y830887D01*
X194478Y834309D01*
X194330Y834503D01*
X194224Y834723D01*
X191926Y837766D01*
X191789Y837888D01*
X191686Y838040D01*
X190331Y839383D01*
X190279Y839417D01*
X190242Y839467D01*
X153053Y872952D01*
X151744Y874131D01*
X149649Y876965D01*
X148163Y880160D01*
X147346Y883588D01*
X147231Y887110D01*
X147822Y890584D01*
X149095Y893870D01*
X151000Y896835D01*
X159577Y905641D01*
X174865Y920130D01*
X190718Y933997D01*
X207111Y947221D01*
X224020Y959779D01*
X241416Y971652D01*
X246619Y974907D01*
X247764Y973938D01*
X247631Y973616D01*
X246381Y968412D01*
X245962Y963076D01*
X246381Y957741D01*
X247631Y952537D01*
X249679Y947593D01*
X252475Y943030D01*
X255951Y938960D01*
X260020Y935485D01*
X264583Y932689D01*
X269528Y930641D01*
X274732Y929391D01*
X280067Y928971D01*
X285402Y929391D01*
X290606Y930641D01*
X295550Y932689D01*
X300113Y935485D01*
X304183Y938960D01*
X307658Y943030D01*
X310455Y947593D01*
X312503Y952537D01*
X313752Y957741D01*
X314172Y963076D01*
X313752Y968412D01*
X312503Y973616D01*
X310455Y978560D01*
X307658Y983123D01*
X304183Y987192D01*
X300113Y990668D01*
X295550Y993464D01*
X290606Y995512D01*
X286862Y996411D01*
X286667Y998000D01*
X296251Y1002979D01*
X315315Y1011935D01*
X334720Y1020123D01*
X354437Y1027530D01*
X374434Y1034143D01*
X394679Y1039954D01*
X415139Y1044951D01*
X435783Y1049128D01*
X456577Y1052477D01*
X477489Y1054994D01*
X498483Y1056674D01*
X519529Y1057515D01*
X540591D01*
X561637Y1056674D01*
D02*
G37*
%LPC*%
G36*
X532500Y1021849D02*
X499750D01*
X498970Y1021694D01*
X498308Y1021252D01*
X497866Y1020590D01*
X497711Y1019810D01*
Y1016104D01*
X386500D01*
X383367Y1015691D01*
X380448Y1014482D01*
X377942Y1012559D01*
X376018Y1010052D01*
X374809Y1007133D01*
X374396Y1004000D01*
X374809Y1000867D01*
X376018Y997948D01*
X377942Y995442D01*
X380448Y993518D01*
X383367Y992309D01*
X386500Y991896D01*
X497711D01*
Y937260D01*
X497866Y936480D01*
X498308Y935818D01*
X498970Y935376D01*
X499750Y935221D01*
X532500D01*
X533280Y935376D01*
X533942Y935818D01*
X534384Y936480D01*
X534539Y937260D01*
Y947685D01*
X536000Y947779D01*
X536658Y945325D01*
X537928Y943125D01*
X539725Y941328D01*
X541925Y940058D01*
X544380Y939400D01*
X546920D01*
X549375Y940058D01*
X551575Y941328D01*
X553372Y943125D01*
X554642Y945325D01*
X555300Y947779D01*
Y950321D01*
X554642Y952775D01*
X553372Y954975D01*
X551575Y956772D01*
X549375Y958042D01*
X546920Y958700D01*
X544380D01*
X541925Y958042D01*
X539725Y956772D01*
X537928Y954975D01*
X536658Y952775D01*
X536000Y950321D01*
X534539Y950415D01*
Y973085D01*
X536000Y973179D01*
X536658Y970725D01*
X537928Y968525D01*
X539725Y966728D01*
X541925Y965458D01*
X544380Y964800D01*
X546920D01*
X549375Y965458D01*
X551575Y966728D01*
X553372Y968525D01*
X554642Y970725D01*
X555300Y973179D01*
Y975721D01*
X554642Y978175D01*
X553372Y980375D01*
X551575Y982172D01*
X549375Y983442D01*
X546920Y984100D01*
X544380D01*
X541925Y983442D01*
X539725Y982172D01*
X537928Y980375D01*
X536658Y978175D01*
X536000Y975721D01*
X534539Y975815D01*
Y998485D01*
X536000Y998579D01*
X536658Y996125D01*
X537928Y993925D01*
X539725Y992128D01*
X541925Y990858D01*
X544380Y990200D01*
X546920D01*
X549375Y990858D01*
X551575Y992128D01*
X553372Y993925D01*
X554642Y996125D01*
X555300Y998579D01*
Y1001121D01*
X554642Y1003575D01*
X553372Y1005775D01*
X551575Y1007572D01*
X549375Y1008842D01*
X546920Y1009500D01*
X544380D01*
X541925Y1008842D01*
X539725Y1007572D01*
X537928Y1005775D01*
X536658Y1003575D01*
X536000Y1001121D01*
X534539Y1001215D01*
Y1019810D01*
X534384Y1020590D01*
X533942Y1021252D01*
X533280Y1021694D01*
X532500Y1021849D01*
D02*
G37*
G36*
X662593Y981100D02*
X658907D01*
X655346Y980146D01*
X652154Y978303D01*
X649547Y975696D01*
X647704Y972504D01*
X646750Y968943D01*
Y965257D01*
X647704Y961696D01*
X649547Y958504D01*
X652154Y955897D01*
X655346Y954054D01*
X658907Y953100D01*
X662593D01*
X666154Y954054D01*
X669346Y955897D01*
X671953Y958504D01*
X673796Y961696D01*
X674750Y965257D01*
Y968943D01*
X673796Y972504D01*
X671953Y975696D01*
X669346Y978303D01*
X666154Y980146D01*
X662593Y981100D01*
D02*
G37*
G36*
X741535Y960350D02*
X739165D01*
X736876Y959737D01*
X734824Y958552D01*
X733148Y956876D01*
X731963Y954824D01*
X731350Y952535D01*
Y950165D01*
X731963Y947876D01*
X733148Y945824D01*
X734824Y944148D01*
X736876Y942963D01*
X739165Y942350D01*
X741535D01*
X743824Y942963D01*
X745876Y944148D01*
X747552Y945824D01*
X748737Y947876D01*
X749350Y950165D01*
Y952535D01*
X748737Y954824D01*
X747552Y956876D01*
X745876Y958552D01*
X743824Y959737D01*
X741535Y960350D01*
D02*
G37*
G36*
X396413Y970320D02*
X392727D01*
X389166Y969366D01*
X385974Y967523D01*
X383367Y964916D01*
X381524Y961724D01*
X380570Y958163D01*
Y954477D01*
X381524Y950916D01*
X383367Y947724D01*
X385974Y945117D01*
X389166Y943274D01*
X392727Y942320D01*
X396413D01*
X399974Y943274D01*
X403166Y945117D01*
X405773Y947724D01*
X407616Y950916D01*
X408570Y954477D01*
Y958163D01*
X407616Y961724D01*
X405773Y964916D01*
X403166Y967523D01*
X399974Y969366D01*
X396413Y970320D01*
D02*
G37*
G36*
X475355Y949570D02*
X472985D01*
X470696Y948957D01*
X468644Y947772D01*
X466968Y946096D01*
X465783Y944044D01*
X465170Y941755D01*
Y939385D01*
X465783Y937096D01*
X466968Y935044D01*
X468644Y933368D01*
X470696Y932183D01*
X472985Y931570D01*
X475355D01*
X477644Y932183D01*
X479696Y933368D01*
X481372Y935044D01*
X482557Y937096D01*
X483170Y939385D01*
Y941755D01*
X482557Y944044D01*
X481372Y946096D01*
X479696Y947772D01*
X477644Y948957D01*
X475355Y949570D01*
D02*
G37*
G36*
X701072Y964000D02*
X697428D01*
X693854Y963289D01*
X690487Y961895D01*
X687457Y959870D01*
X684880Y957293D01*
X682856Y954263D01*
X681461Y950896D01*
X680750Y947322D01*
Y943678D01*
X681461Y940104D01*
X682856Y936737D01*
X684880Y933707D01*
X687457Y931130D01*
X690487Y929106D01*
X693854Y927711D01*
X697428Y927000D01*
X701072D01*
X704646Y927711D01*
X708013Y929106D01*
X711043Y931130D01*
X713620Y933707D01*
X715645Y936737D01*
X717039Y940104D01*
X717750Y943678D01*
Y947322D01*
X717039Y950896D01*
X715645Y954263D01*
X713620Y957293D01*
X711043Y959870D01*
X708013Y961895D01*
X704646Y963289D01*
X701072Y964000D01*
D02*
G37*
G36*
X636935Y941800D02*
X634565D01*
X632276Y941187D01*
X630224Y940002D01*
X628548Y938326D01*
X627363Y936274D01*
X626750Y933985D01*
Y931615D01*
X627363Y929326D01*
X628548Y927274D01*
X628779Y927043D01*
X628158Y925543D01*
X617600D01*
X617552Y925626D01*
X615876Y927302D01*
X613824Y928487D01*
X611535Y929100D01*
X609165D01*
X606876Y928487D01*
X604824Y927302D01*
X603148Y925626D01*
X601963Y923574D01*
X601350Y921285D01*
Y918915D01*
X601963Y916626D01*
X603148Y914574D01*
X604727Y912995D01*
X604791Y912767D01*
X604796Y912646D01*
X604642Y911271D01*
X603649Y910608D01*
X578042Y885001D01*
X577058Y883529D01*
X576713Y881793D01*
Y847049D01*
X577058Y845313D01*
X578042Y843841D01*
X738523Y683360D01*
Y409133D01*
X737023Y408678D01*
X736468Y409508D01*
X730285Y415691D01*
X730810Y417651D01*
Y420349D01*
X730111Y422956D01*
X728762Y425294D01*
X726854Y427202D01*
X724516Y428551D01*
X721909Y429250D01*
X719211D01*
X716604Y428551D01*
X714266Y427202D01*
X713219Y426154D01*
X711719Y426776D01*
Y436624D01*
X713219Y437246D01*
X714266Y436198D01*
X716604Y434849D01*
X719211Y434150D01*
X719560D01*
Y444400D01*
Y454650D01*
X719211D01*
X716604Y453951D01*
X714266Y452602D01*
X713219Y451554D01*
X711719Y452176D01*
Y461013D01*
X725913Y475207D01*
X725913Y475207D01*
X726576Y476199D01*
X726809Y477370D01*
X726809Y477370D01*
Y686750D01*
X726576Y687921D01*
X725913Y688913D01*
X566559Y848267D01*
Y855000D01*
X566326Y856171D01*
X565663Y857163D01*
X554298Y868528D01*
X554642Y869125D01*
X555300Y871580D01*
Y874120D01*
X554642Y876575D01*
X553372Y878775D01*
X551575Y880572D01*
X549375Y881842D01*
X546920Y882500D01*
X544380D01*
X541925Y881842D01*
X539725Y880572D01*
X537928Y878775D01*
X536658Y876575D01*
X536000Y874120D01*
Y871580D01*
X536658Y869125D01*
X537928Y866925D01*
X539725Y865128D01*
X541925Y863858D01*
X544380Y863200D01*
X546920D01*
X549375Y863858D01*
X549972Y864202D01*
X560441Y853733D01*
Y847000D01*
X560441Y847000D01*
X560674Y845829D01*
X561337Y844837D01*
X720691Y685483D01*
Y478637D01*
X706497Y464443D01*
X705834Y463451D01*
X705601Y462280D01*
X705601Y462280D01*
Y449815D01*
X704101Y449413D01*
X703362Y450694D01*
X701454Y452602D01*
X699116Y453951D01*
X696509Y454650D01*
X696160D01*
Y444400D01*
X694160D01*
Y454650D01*
X693811D01*
X691204Y453951D01*
X688866Y452602D01*
X687819Y451554D01*
X686319Y452176D01*
Y461013D01*
X704473Y479167D01*
X705136Y480159D01*
X705369Y481330D01*
Y690790D01*
X705369Y690790D01*
X705136Y691961D01*
X704473Y692953D01*
X554298Y843128D01*
X554642Y843725D01*
X555300Y846180D01*
Y848720D01*
X554642Y851175D01*
X553372Y853375D01*
X551575Y855172D01*
X549375Y856442D01*
X546920Y857100D01*
X544380D01*
X541925Y856442D01*
X539725Y855172D01*
X537928Y853375D01*
X536658Y851175D01*
X536000Y848720D01*
Y846180D01*
X536658Y843725D01*
X537928Y841525D01*
X539725Y839728D01*
X541925Y838458D01*
X544380Y837800D01*
X546920D01*
X549375Y838458D01*
X549972Y838802D01*
X699251Y689523D01*
Y482597D01*
X681097Y464443D01*
X680434Y463451D01*
X680201Y462280D01*
X680201Y462280D01*
Y449815D01*
X678701Y449413D01*
X677962Y450694D01*
X676054Y452602D01*
X673716Y453951D01*
X671109Y454650D01*
X670760D01*
Y444400D01*
X668760D01*
Y454650D01*
X668411D01*
X665804Y453951D01*
X663466Y452602D01*
X662419Y451554D01*
X660919Y452176D01*
Y461013D01*
X679073Y479167D01*
X679736Y480159D01*
X679969Y481330D01*
Y700090D01*
X679736Y701261D01*
X679073Y702253D01*
X557291Y824035D01*
X556299Y824697D01*
X555128Y824930D01*
X555128Y824930D01*
X554869D01*
X554642Y825775D01*
X553372Y827975D01*
X551575Y829772D01*
X549375Y831042D01*
X546920Y831700D01*
X544380D01*
X541925Y831042D01*
X539725Y829772D01*
X537928Y827975D01*
X536658Y825775D01*
X536000Y823320D01*
Y820779D01*
X536658Y818325D01*
X537928Y816125D01*
X539725Y814328D01*
X541925Y813058D01*
X544380Y812400D01*
X546920D01*
X549375Y813058D01*
X551575Y814328D01*
X553372Y816125D01*
X553919Y817072D01*
X555406Y817268D01*
X673851Y698823D01*
Y482597D01*
X655697Y464443D01*
X655034Y463451D01*
X654801Y462280D01*
X654801Y462280D01*
Y449815D01*
X653301Y449413D01*
X652562Y450694D01*
X650654Y452602D01*
X648316Y453951D01*
X645709Y454650D01*
X645360D01*
Y444400D01*
X643360D01*
Y454650D01*
X643011D01*
X640404Y453951D01*
X638066Y452602D01*
X637019Y451554D01*
X635519Y452176D01*
Y461013D01*
X653673Y479167D01*
X654336Y480159D01*
X654569Y481330D01*
Y704740D01*
X654336Y705911D01*
X653673Y706903D01*
X560853Y799723D01*
X559861Y800386D01*
X558690Y800619D01*
X558690Y800619D01*
X554501D01*
X553372Y802575D01*
X551575Y804372D01*
X549375Y805642D01*
X546920Y806300D01*
X544380D01*
X541925Y805642D01*
X539725Y804372D01*
X537928Y802575D01*
X536658Y800375D01*
X536000Y797921D01*
Y795379D01*
X536658Y792925D01*
X537928Y790725D01*
X539725Y788928D01*
X541925Y787658D01*
X544380Y787000D01*
X546920D01*
X549375Y787658D01*
X551575Y788928D01*
X553372Y790725D01*
X554642Y792925D01*
X555065Y794501D01*
X557423D01*
X648451Y703473D01*
Y482597D01*
X630297Y464443D01*
X629634Y463451D01*
X629401Y462280D01*
X629401Y462280D01*
Y449815D01*
X627901Y449413D01*
X627162Y450694D01*
X625254Y452602D01*
X622916Y453951D01*
X620309Y454650D01*
X619960D01*
Y444400D01*
X617960D01*
Y454650D01*
X617611D01*
X615004Y453951D01*
X612666Y452602D01*
X611619Y451554D01*
X610119Y452176D01*
Y456793D01*
X628273Y474947D01*
X628936Y475939D01*
X629169Y477110D01*
Y709890D01*
X629169Y709890D01*
X628936Y711061D01*
X628273Y712053D01*
X628273Y712053D01*
X567273Y773053D01*
X566281Y773716D01*
X565110Y773949D01*
X565110Y773949D01*
X554917D01*
X554642Y774975D01*
X553372Y777175D01*
X551575Y778972D01*
X549375Y780242D01*
X546920Y780900D01*
X544380D01*
X541925Y780242D01*
X539725Y778972D01*
X537928Y777175D01*
X536658Y774975D01*
X536000Y772521D01*
Y769979D01*
X536658Y767525D01*
X537928Y765325D01*
X539725Y763528D01*
X541925Y762258D01*
X544380Y761600D01*
X546920D01*
X549375Y762258D01*
X551575Y763528D01*
X553372Y765325D01*
X554642Y767525D01*
X554724Y767831D01*
X563843D01*
X623051Y708623D01*
Y478377D01*
X604897Y460223D01*
X604234Y459230D01*
X604001Y458060D01*
X604001Y458060D01*
Y449815D01*
X602501Y449413D01*
X601762Y450694D01*
X599854Y452602D01*
X597516Y453951D01*
X594909Y454650D01*
X594560D01*
Y444400D01*
X592560D01*
Y454650D01*
X592211D01*
X590348Y454151D01*
X589572Y455496D01*
X609223Y475147D01*
X609223Y475147D01*
X609886Y476139D01*
X610119Y477310D01*
Y706940D01*
X610119Y706940D01*
X609886Y708111D01*
X609223Y709103D01*
X609223Y709103D01*
X570313Y748013D01*
X569320Y748676D01*
X568150Y748909D01*
X568150Y748909D01*
X554821D01*
X554642Y749575D01*
X553372Y751775D01*
X551575Y753572D01*
X549375Y754842D01*
X546920Y755500D01*
X544380D01*
X541925Y754842D01*
X539725Y753572D01*
X537928Y751775D01*
X536658Y749575D01*
X536000Y747121D01*
Y744579D01*
X536658Y742125D01*
X537928Y739925D01*
X539725Y738128D01*
X541925Y736858D01*
X544380Y736200D01*
X546920D01*
X549375Y736858D01*
X551575Y738128D01*
X553372Y739925D01*
X554642Y742125D01*
X554821Y742791D01*
X566883D01*
X604001Y705673D01*
Y478577D01*
X580147Y454723D01*
X579484Y453731D01*
X579251Y452560D01*
X579251Y452560D01*
Y448405D01*
X577751Y448208D01*
X577711Y448356D01*
X576362Y450694D01*
X574454Y452602D01*
X572116Y453951D01*
X569509Y454650D01*
X569160D01*
Y444400D01*
Y434150D01*
X569509D01*
X572116Y434849D01*
X574454Y436198D01*
X576362Y438106D01*
X577711Y440444D01*
X577751Y440592D01*
X579251Y440395D01*
Y423005D01*
X577751Y422808D01*
X577711Y422956D01*
X576362Y425294D01*
X574454Y427202D01*
X572116Y428551D01*
X569509Y429250D01*
X566811D01*
X564204Y428551D01*
X561866Y427202D01*
X561355Y426690D01*
X559969Y427264D01*
Y436136D01*
X561355Y436710D01*
X561866Y436198D01*
X564204Y434849D01*
X566811Y434150D01*
X567160D01*
Y444400D01*
Y454650D01*
X566811D01*
X564204Y453951D01*
X561866Y452602D01*
X560896Y453700D01*
X563877Y456681D01*
X577850D01*
X577850Y456681D01*
X579021Y456914D01*
X580013Y457577D01*
X591443Y469007D01*
X592106Y470000D01*
X592339Y471170D01*
Y701040D01*
X592339Y701040D01*
X592106Y702210D01*
X591443Y703203D01*
X572033Y722613D01*
X571040Y723276D01*
X569870Y723509D01*
X569870Y723509D01*
X554821D01*
X554642Y724175D01*
X553372Y726375D01*
X551575Y728172D01*
X549375Y729442D01*
X546920Y730100D01*
X544380D01*
X541925Y729442D01*
X539725Y728172D01*
X537928Y726375D01*
X536658Y724175D01*
X536000Y721721D01*
Y719180D01*
X536658Y716725D01*
X537928Y714525D01*
X539725Y712728D01*
X541925Y711458D01*
X544380Y710800D01*
X546920D01*
X549375Y711458D01*
X551575Y712728D01*
X553372Y714525D01*
X554642Y716725D01*
X554821Y717391D01*
X568603D01*
X586221Y699773D01*
Y472437D01*
X576583Y462799D01*
X562610D01*
X561440Y462566D01*
X560447Y461903D01*
X560447Y461903D01*
X554747Y456203D01*
X554084Y455210D01*
X553851Y454040D01*
X553851Y454040D01*
Y448405D01*
X552351Y448208D01*
X552312Y448356D01*
X550962Y450694D01*
X549054Y452602D01*
X546716Y453951D01*
X544109Y454650D01*
X543760D01*
Y444400D01*
Y434150D01*
X544109D01*
X546716Y434849D01*
X549054Y436198D01*
X550962Y438106D01*
X552312Y440444D01*
X552351Y440592D01*
X553851Y440395D01*
Y423005D01*
X552351Y422808D01*
X552312Y422956D01*
X550962Y425294D01*
X549054Y427202D01*
X546716Y428551D01*
X544109Y429250D01*
X541411D01*
X538804Y428551D01*
X536466Y427202D01*
X534558Y425294D01*
X533517Y423490D01*
X532017Y423892D01*
Y439508D01*
X533517Y439910D01*
X534558Y438106D01*
X536466Y436198D01*
X538804Y434849D01*
X541411Y434150D01*
X541760D01*
Y444400D01*
Y454650D01*
X541411D01*
X538804Y453951D01*
X536466Y452602D01*
X534558Y450694D01*
X533517Y448890D01*
X532017Y449292D01*
Y464191D01*
X533397Y465571D01*
X565150D01*
X565150Y465571D01*
X566320Y465804D01*
X567313Y466467D01*
X578743Y477897D01*
X579406Y478890D01*
X579639Y480060D01*
Y678180D01*
X579406Y679351D01*
X578743Y680343D01*
X578743Y680343D01*
X561873Y697213D01*
X560881Y697876D01*
X559710Y698109D01*
X559710Y698109D01*
X554821D01*
X554642Y698775D01*
X553372Y700975D01*
X551575Y702772D01*
X549375Y704042D01*
X546920Y704700D01*
X544380D01*
X541925Y704042D01*
X539725Y702772D01*
X537928Y700975D01*
X536658Y698775D01*
X536000Y696320D01*
Y693780D01*
X536658Y691325D01*
X537928Y689125D01*
X539725Y687328D01*
X541925Y686058D01*
X544380Y685400D01*
X546920D01*
X549375Y686058D01*
X551575Y687328D01*
X553372Y689125D01*
X554642Y691325D01*
X554821Y691991D01*
X558443D01*
X573521Y676913D01*
Y481327D01*
X563883Y471689D01*
X532130D01*
X532130Y471689D01*
X530960Y471456D01*
X529967Y470793D01*
X526795Y467621D01*
X526132Y466628D01*
X525899Y465458D01*
X525899Y465458D01*
Y452478D01*
X524399Y451857D01*
X523654Y452602D01*
X521316Y453951D01*
X518709Y454650D01*
X518360D01*
Y444400D01*
X516360D01*
Y454650D01*
X516011D01*
X513404Y453951D01*
X511066Y452602D01*
X510555Y452090D01*
X509169Y452664D01*
Y471823D01*
X518157Y480811D01*
X563880D01*
X563880Y480811D01*
X565051Y481044D01*
X566043Y481707D01*
X569853Y485517D01*
X570516Y486510D01*
X570749Y487680D01*
X570749Y487680D01*
Y647610D01*
X570516Y648781D01*
X569853Y649773D01*
X554298Y665328D01*
X554642Y665925D01*
X555300Y668380D01*
Y670920D01*
X554642Y673375D01*
X553372Y675575D01*
X551575Y677372D01*
X549375Y678642D01*
X546920Y679300D01*
X544380D01*
X541925Y678642D01*
X539725Y677372D01*
X537928Y675575D01*
X536658Y673375D01*
X536000Y670920D01*
Y668380D01*
X536658Y665925D01*
X537928Y663725D01*
X539725Y661928D01*
X541925Y660658D01*
X544380Y660000D01*
X546920D01*
X549375Y660658D01*
X549972Y661002D01*
X564631Y646343D01*
Y488947D01*
X562613Y486929D01*
X516890D01*
X516890Y486929D01*
X515719Y486696D01*
X514727Y486033D01*
X503947Y475253D01*
X503284Y474260D01*
X503051Y473090D01*
X503051Y473090D01*
Y448405D01*
X501551Y448208D01*
X501511Y448356D01*
X500162Y450694D01*
X498254Y452602D01*
X495916Y453951D01*
X493309Y454650D01*
X490611D01*
X488004Y453951D01*
X485666Y452602D01*
X485059Y451994D01*
X483559Y452616D01*
Y461453D01*
X513077Y490971D01*
X556358D01*
X556358Y490971D01*
X557529Y491204D01*
X558521Y491867D01*
X559693Y493039D01*
X559693Y493039D01*
X560356Y494031D01*
X560589Y495202D01*
X560589Y495202D01*
Y636270D01*
X560356Y637441D01*
X559693Y638433D01*
X559693Y638433D01*
X557086Y641040D01*
X556179Y641646D01*
X555204Y642621D01*
X555300Y642980D01*
Y645520D01*
X554642Y647975D01*
X553372Y650175D01*
X551575Y651972D01*
X549375Y653242D01*
X546920Y653900D01*
X544380D01*
X541925Y653242D01*
X539725Y651972D01*
X537928Y650175D01*
X536658Y647975D01*
X536000Y645520D01*
Y642980D01*
X536658Y640525D01*
X537928Y638325D01*
X539725Y636528D01*
X541925Y635258D01*
X544380Y634600D01*
X546920D01*
X549375Y635258D01*
X551575Y636528D01*
X552459Y636714D01*
X553367Y636108D01*
X554471Y635003D01*
Y625742D01*
X552971Y625176D01*
X551575Y626572D01*
X549375Y627842D01*
X546920Y628500D01*
X544380D01*
X541925Y627842D01*
X539725Y626572D01*
X537928Y624775D01*
X536658Y622575D01*
X536000Y620121D01*
Y617579D01*
X536658Y615125D01*
X537002Y614528D01*
X531720Y609246D01*
X531057Y608254D01*
X530824Y607083D01*
X530825Y607083D01*
Y597066D01*
X529324Y596868D01*
X529242Y597175D01*
X527972Y599375D01*
X526175Y601172D01*
X523975Y602442D01*
X521520Y603100D01*
X518979D01*
X516525Y602442D01*
X514325Y601172D01*
X512528Y599375D01*
X511258Y597175D01*
X510600Y594720D01*
Y592179D01*
X511258Y589725D01*
X512528Y587525D01*
X514325Y585728D01*
X515699Y584935D01*
X515949Y583136D01*
X504837Y572024D01*
X504174Y571032D01*
X503941Y569861D01*
X503941Y569861D01*
Y499377D01*
X478169Y473605D01*
X476837Y474156D01*
X474848D01*
X473010Y473395D01*
X471604Y471989D01*
X471569Y471905D01*
X470069Y472203D01*
Y474633D01*
X498733Y503297D01*
X498733Y503297D01*
X499396Y504289D01*
X499629Y505460D01*
Y593903D01*
X515928Y610202D01*
X516525Y609858D01*
X518979Y609200D01*
X521520D01*
X523975Y609858D01*
X526175Y611128D01*
X527972Y612925D01*
X529242Y615125D01*
X529900Y617579D01*
Y620121D01*
X529242Y622575D01*
X527972Y624775D01*
X526175Y626572D01*
X523975Y627842D01*
X521520Y628500D01*
X518979D01*
X516525Y627842D01*
X514325Y626572D01*
X512528Y624775D01*
X511258Y622575D01*
X510600Y620121D01*
Y617579D01*
X511258Y615125D01*
X511602Y614528D01*
X494407Y597333D01*
X493744Y596340D01*
X493511Y595170D01*
X493511Y595170D01*
Y506727D01*
X465569Y478784D01*
X464069Y479406D01*
Y483873D01*
X488763Y508567D01*
X489426Y509560D01*
X489659Y510730D01*
X489659Y510730D01*
Y612333D01*
X505083Y627757D01*
X505083Y627757D01*
X505746Y628749D01*
X505979Y629920D01*
Y854253D01*
X515928Y864202D01*
X516525Y863858D01*
X518979Y863200D01*
X521520D01*
X523975Y863858D01*
X526175Y865128D01*
X527972Y866925D01*
X529242Y869125D01*
X529900Y871580D01*
Y874120D01*
X529242Y876575D01*
X527972Y878775D01*
X526175Y880572D01*
X523975Y881842D01*
X521520Y882500D01*
X518979D01*
X516525Y881842D01*
X514325Y880572D01*
X512528Y878775D01*
X511258Y876575D01*
X510600Y874120D01*
Y871580D01*
X511258Y869125D01*
X511602Y868528D01*
X500757Y857683D01*
X500094Y856691D01*
X499861Y855520D01*
X499861Y855520D01*
Y631187D01*
X484437Y615763D01*
X483774Y614771D01*
X483541Y613600D01*
X483541Y613600D01*
Y511997D01*
X459569Y488025D01*
X458069Y488646D01*
Y747113D01*
X491113Y780157D01*
X491113Y780157D01*
X491776Y781149D01*
X492009Y782320D01*
Y865683D01*
X515928Y889602D01*
X516525Y889258D01*
X518979Y888600D01*
X521520D01*
X523975Y889258D01*
X526175Y890528D01*
X527972Y892325D01*
X529242Y894525D01*
X529900Y896980D01*
Y899520D01*
X529242Y901975D01*
X527972Y904175D01*
X526175Y905972D01*
X523975Y907242D01*
X521520Y907900D01*
X518979D01*
X516525Y907242D01*
X514325Y905972D01*
X512528Y904175D01*
X511258Y901975D01*
X510600Y899520D01*
Y896980D01*
X511258Y894525D01*
X511602Y893928D01*
X486787Y869113D01*
X486124Y868120D01*
X485891Y866950D01*
X485891Y866950D01*
Y783587D01*
X452847Y750543D01*
X452184Y749550D01*
X451951Y748380D01*
X451951Y748380D01*
Y461087D01*
X451951Y461087D01*
X452184Y459916D01*
X452251Y459816D01*
Y448405D01*
X450751Y448208D01*
X450712Y448356D01*
X449362Y450694D01*
X447454Y452602D01*
X445116Y453951D01*
X444219Y454192D01*
Y775173D01*
X458093Y789047D01*
X458093Y789047D01*
X458756Y790040D01*
X458989Y791210D01*
X458989Y791210D01*
Y858523D01*
X510407Y909941D01*
X524661D01*
X524661Y909941D01*
X525832Y910174D01*
X526824Y910837D01*
X535336Y919349D01*
X537161Y919053D01*
X537928Y917725D01*
X539725Y915928D01*
X541925Y914658D01*
X544380Y914000D01*
X546920D01*
X549375Y914658D01*
X551575Y915928D01*
X553372Y917725D01*
X554642Y919925D01*
X555300Y922380D01*
Y924921D01*
X554642Y927375D01*
X553372Y929575D01*
X551575Y931372D01*
X549375Y932642D01*
X546920Y933300D01*
X544380D01*
X541925Y932642D01*
X539725Y931372D01*
X537928Y929575D01*
X536770Y927569D01*
X536172D01*
X535001Y927336D01*
X534009Y926673D01*
X534009Y926673D01*
X531286Y923950D01*
X529900Y924524D01*
Y924921D01*
X529242Y927375D01*
X527972Y929575D01*
X526175Y931372D01*
X523975Y932642D01*
X521520Y933300D01*
X521250D01*
Y923650D01*
X520250D01*
Y922650D01*
X510600D01*
Y922380D01*
X511258Y919925D01*
X512528Y917725D01*
X512808Y917445D01*
X512234Y916059D01*
X509140D01*
X509140Y916059D01*
X507970Y915826D01*
X506977Y915163D01*
X506977Y915163D01*
X453767Y861953D01*
X453104Y860960D01*
X452871Y859790D01*
X452871Y859790D01*
Y823389D01*
X451371Y823241D01*
X450859Y825816D01*
X449464Y829183D01*
X447440Y832213D01*
X444863Y834790D01*
X441833Y836814D01*
X438466Y838209D01*
X434892Y838920D01*
X431248D01*
X427674Y838209D01*
X424307Y836814D01*
X421277Y834790D01*
X418700Y832213D01*
X416675Y829183D01*
X415281Y825816D01*
X414570Y822242D01*
Y818598D01*
X415281Y815024D01*
X416675Y811657D01*
X418700Y808627D01*
X421277Y806050D01*
X424307Y804025D01*
X427674Y802631D01*
X431248Y801920D01*
X434892D01*
X438466Y802631D01*
X441833Y804025D01*
X444863Y806050D01*
X447440Y808627D01*
X449464Y811657D01*
X450859Y815024D01*
X451371Y817599D01*
X452871Y817451D01*
Y792477D01*
X438997Y778603D01*
X438334Y777610D01*
X438101Y776440D01*
X438101Y776440D01*
Y454192D01*
X437204Y453951D01*
X434866Y452602D01*
X432958Y450694D01*
X431609Y448356D01*
X430910Y445749D01*
Y443051D01*
X431609Y440444D01*
X432958Y438106D01*
X434866Y436198D01*
X437204Y434849D01*
X439811Y434150D01*
X442509D01*
X445116Y434849D01*
X447454Y436198D01*
X449362Y438106D01*
X450712Y440444D01*
X450751Y440592D01*
X452251Y440395D01*
Y423005D01*
X450751Y422808D01*
X450712Y422956D01*
X449362Y425294D01*
X447454Y427202D01*
X445116Y428551D01*
X442509Y429250D01*
X439811D01*
X437204Y428551D01*
X434866Y427202D01*
X432958Y425294D01*
X431609Y422956D01*
X430910Y420349D01*
Y417651D01*
X431609Y415044D01*
X432073Y414239D01*
X428136Y410302D01*
X423679D01*
X423057Y411801D01*
X423962Y412706D01*
X425312Y415044D01*
X426010Y417651D01*
Y420349D01*
X425312Y422956D01*
X423962Y425294D01*
X422054Y427202D01*
X419716Y428551D01*
X417109Y429250D01*
X414411D01*
X411804Y428551D01*
X409466Y427202D01*
X407558Y425294D01*
X406208Y422956D01*
X405510Y420349D01*
Y417651D01*
X406208Y415044D01*
X406673Y414239D01*
X403243Y410809D01*
X398624D01*
X398050Y412195D01*
X398562Y412706D01*
X399911Y415044D01*
X400610Y417651D01*
Y420349D01*
X399911Y422956D01*
X398562Y425294D01*
X396654Y427202D01*
X394316Y428551D01*
X391709Y429250D01*
X389011D01*
X386404Y428551D01*
X385599Y428087D01*
X380766Y432920D01*
X379773Y433583D01*
X378603Y433816D01*
X378603Y433816D01*
X370128D01*
X369726Y435316D01*
X371254Y436198D01*
X373162Y438106D01*
X374511Y440444D01*
X375210Y443051D01*
Y445749D01*
X374511Y448356D01*
X373162Y450694D01*
X371254Y452602D01*
X368916Y453951D01*
X366309Y454650D01*
X363611D01*
X361651Y454125D01*
X350997Y464779D01*
Y665124D01*
X350652Y666860D01*
X349668Y668332D01*
X337257Y680743D01*
Y825345D01*
X337973Y825642D01*
X338757Y825853D01*
X340696Y824733D01*
X342985Y824120D01*
X345355D01*
X347644Y824733D01*
X349696Y825918D01*
X351372Y827594D01*
X352557Y829646D01*
X353170Y831935D01*
Y834305D01*
X352557Y836594D01*
X351372Y838646D01*
X349696Y840322D01*
X347644Y841507D01*
X345355Y842120D01*
X342985D01*
X340696Y841507D01*
X338757Y840387D01*
X337973Y840598D01*
X337257Y840895D01*
Y850745D01*
X337973Y851042D01*
X338757Y851253D01*
X340696Y850133D01*
X342985Y849520D01*
X345355D01*
X347644Y850133D01*
X349696Y851318D01*
X351372Y852994D01*
X352557Y855046D01*
X353170Y857335D01*
Y859705D01*
X352874Y860808D01*
X358828Y866762D01*
X359589Y867900D01*
X360899Y867871D01*
X361175Y867779D01*
X361183Y867746D01*
X362368Y865694D01*
X364044Y864018D01*
X366096Y862833D01*
X368385Y862220D01*
X370755D01*
X373044Y862833D01*
X374983Y863953D01*
X375767Y863742D01*
X376483Y863445D01*
Y853595D01*
X375767Y853298D01*
X374983Y853087D01*
X373044Y854207D01*
X370755Y854820D01*
X368385D01*
X366096Y854207D01*
X364044Y853022D01*
X362368Y851346D01*
X361183Y849294D01*
X360570Y847005D01*
Y844635D01*
X361183Y842346D01*
X362368Y840294D01*
X364044Y838618D01*
X366096Y837433D01*
X368385Y836820D01*
X370755D01*
X373044Y837433D01*
X374983Y838553D01*
X375767Y838342D01*
X376483Y838045D01*
Y820171D01*
X366362Y810050D01*
X365378Y808578D01*
X365033Y806842D01*
Y659146D01*
X365378Y657409D01*
X366362Y655937D01*
X404323Y617976D01*
Y457340D01*
X398140Y451157D01*
X398099D01*
X396654Y452602D01*
X394316Y453951D01*
X391709Y454650D01*
X389011D01*
X386404Y453951D01*
X384066Y452602D01*
X382158Y450694D01*
X380808Y448356D01*
X380110Y445749D01*
Y443051D01*
X380808Y440444D01*
X382158Y438106D01*
X384066Y436198D01*
X386404Y434849D01*
X389011Y434150D01*
X391709D01*
X394316Y434849D01*
X396654Y436198D01*
X398562Y438106D01*
X399911Y440444D01*
X400369Y442152D01*
X401755Y442428D01*
X403227Y443411D01*
X404124Y444308D01*
X405510Y443734D01*
Y443051D01*
X406208Y440444D01*
X407558Y438106D01*
X409466Y436198D01*
X411804Y434849D01*
X414411Y434150D01*
X417109D01*
X419716Y434849D01*
X422054Y436198D01*
X423962Y438106D01*
X425312Y440444D01*
X426010Y443051D01*
Y445749D01*
X425312Y448356D01*
X423962Y450694D01*
X422054Y452602D01*
X420297Y453616D01*
Y622714D01*
X419952Y624450D01*
X418968Y625922D01*
X381007Y663883D01*
Y791312D01*
X382507Y791713D01*
X383367Y790224D01*
X385974Y787617D01*
X389166Y785774D01*
X392727Y784820D01*
X396413D01*
X399974Y785774D01*
X403166Y787617D01*
X405773Y790224D01*
X407616Y793416D01*
X408570Y796977D01*
Y800663D01*
X407616Y804224D01*
X405773Y807416D01*
X403166Y810023D01*
X399974Y811866D01*
X396413Y812820D01*
X393330D01*
X393014Y813047D01*
X392334Y813916D01*
X392219Y814237D01*
X392457Y815434D01*
Y902738D01*
X392112Y904474D01*
X391128Y905946D01*
X385796Y911278D01*
X384324Y912262D01*
X382588Y912607D01*
X374266D01*
X373865Y914107D01*
X375096Y914818D01*
X376772Y916494D01*
X377957Y918546D01*
X378570Y920835D01*
Y923205D01*
X377957Y925494D01*
X376772Y927546D01*
X375096Y929222D01*
X373044Y930407D01*
X370755Y931020D01*
X368385D01*
X366096Y930407D01*
X364044Y929222D01*
X362368Y927546D01*
X361797Y926557D01*
X339090D01*
X337354Y926212D01*
X335882Y925228D01*
X322612Y911958D01*
X321628Y910486D01*
X321283Y908750D01*
Y676005D01*
X321628Y674269D01*
X322612Y672797D01*
X335023Y660386D01*
Y453616D01*
X333266Y452602D01*
X331358Y450694D01*
X330009Y448356D01*
X329310Y445749D01*
Y445026D01*
X327924Y444452D01*
X320309Y452067D01*
Y552488D01*
X321489Y553668D01*
X322250Y555505D01*
Y557495D01*
X321489Y559332D01*
X320082Y560739D01*
X318245Y561500D01*
X316255D01*
X314418Y560739D01*
X313011Y559332D01*
X312250Y557495D01*
Y555505D01*
X313011Y553668D01*
X314191Y552488D01*
Y450800D01*
X314191Y450800D01*
X314424Y449630D01*
X315087Y448637D01*
X334232Y429492D01*
X333986Y427617D01*
X333266Y427202D01*
X331358Y425294D01*
X330009Y422956D01*
X329310Y420349D01*
Y419626D01*
X327924Y419052D01*
X293309Y453667D01*
Y562033D01*
X313016Y581740D01*
X314685D01*
X316522Y582501D01*
X317929Y583908D01*
X318690Y585745D01*
Y587735D01*
X317929Y589572D01*
X316522Y590979D01*
X314685Y591740D01*
X312695D01*
X310858Y590979D01*
X309451Y589572D01*
X308690Y587735D01*
Y586066D01*
X288087Y565463D01*
X287424Y564470D01*
X287191Y563300D01*
X287191Y563300D01*
Y452400D01*
X287191Y452400D01*
X287424Y451230D01*
X288087Y450237D01*
X332737Y405587D01*
X332737Y405587D01*
X333730Y404924D01*
X334900Y404691D01*
X335555D01*
X335752Y403191D01*
X335604Y403152D01*
X333266Y401802D01*
X331358Y399894D01*
X330009Y397556D01*
X329310Y394949D01*
Y392251D01*
X330009Y389644D01*
X331358Y387306D01*
X333266Y385398D01*
X335604Y384049D01*
X338211Y383350D01*
X340909D01*
X343516Y384049D01*
X345854Y385398D01*
X347762Y387306D01*
X349112Y389644D01*
X349810Y392251D01*
Y394949D01*
X349112Y397556D01*
X347762Y399894D01*
X345854Y401802D01*
X343516Y403152D01*
X343368Y403191D01*
X343565Y404691D01*
X360955D01*
X361152Y403191D01*
X361004Y403152D01*
X358666Y401802D01*
X356758Y399894D01*
X355409Y397556D01*
X354710Y394949D01*
Y392251D01*
X355409Y389644D01*
X356758Y387306D01*
X358666Y385398D01*
X361004Y384049D01*
X361291Y383972D01*
Y348508D01*
X360906Y348349D01*
X359500Y346942D01*
X358739Y345105D01*
Y343116D01*
X359500Y341278D01*
X360906Y339871D01*
X362744Y339110D01*
X364733D01*
X366571Y339871D01*
X367978Y341278D01*
X368739Y343116D01*
Y345105D01*
X367978Y346942D01*
X367408Y347512D01*
Y383644D01*
X368916Y384049D01*
X371254Y385398D01*
X373162Y387306D01*
X374511Y389644D01*
X375210Y392251D01*
Y394949D01*
X374511Y397556D01*
X373162Y399894D01*
X371254Y401802D01*
X368916Y403152D01*
X368768Y403191D01*
X368965Y404691D01*
X386355D01*
X386552Y403191D01*
X386404Y403152D01*
X384066Y401802D01*
X382158Y399894D01*
X380808Y397556D01*
X380110Y394949D01*
Y392251D01*
X380808Y389644D01*
X382158Y387306D01*
X384066Y385398D01*
X386404Y384049D01*
X389011Y383350D01*
X391709D01*
X394316Y384049D01*
X396654Y385398D01*
X398562Y387306D01*
X399698Y389273D01*
X401198Y388871D01*
Y359273D01*
X374233Y332309D01*
X276027D01*
X253240Y355096D01*
Y647694D01*
X296506Y690960D01*
X298175D01*
X300012Y691721D01*
X301419Y693128D01*
X302180Y694965D01*
Y696955D01*
X301419Y698792D01*
X300012Y700199D01*
X298175Y700960D01*
X296185D01*
X294348Y700199D01*
X292941Y698792D01*
X292180Y696955D01*
Y695286D01*
X248018Y651124D01*
X247355Y650132D01*
X247122Y648961D01*
X247122Y648961D01*
Y354658D01*
X247083Y354658D01*
X247083Y354658D01*
X247083Y354657D01*
X247106Y354174D01*
X247122Y353829D01*
X247355Y352659D01*
X248018Y351666D01*
X272597Y327087D01*
X272597Y327087D01*
X273590Y326424D01*
X274760Y326191D01*
X375500D01*
X375500Y326191D01*
X376670Y326424D01*
X377663Y327087D01*
X406419Y355844D01*
X407082Y356836D01*
X407315Y358006D01*
Y385428D01*
X408815Y386049D01*
X409466Y385398D01*
X411804Y384049D01*
X414411Y383350D01*
X417109D01*
X419716Y384049D01*
X422054Y385398D01*
X423962Y387306D01*
X425312Y389644D01*
X426010Y392251D01*
Y394949D01*
X425312Y397556D01*
X423962Y399894D01*
X422054Y401802D01*
X420526Y402684D01*
X420928Y404184D01*
X429403D01*
X429403Y404184D01*
X430573Y404417D01*
X431566Y405080D01*
X436399Y409913D01*
X437204Y409449D01*
X439811Y408750D01*
X442509D01*
X445116Y409449D01*
X447454Y410798D01*
X449362Y412706D01*
X450712Y415044D01*
X450751Y415192D01*
X452251Y414995D01*
Y409017D01*
X445921Y402687D01*
X445116Y403152D01*
X442509Y403850D01*
X439811D01*
X437204Y403152D01*
X434866Y401802D01*
X432958Y399894D01*
X431609Y397556D01*
X430910Y394949D01*
Y392251D01*
X431609Y389644D01*
X432958Y387306D01*
X434866Y385398D01*
X437204Y384049D01*
X439811Y383350D01*
X442509D01*
X445116Y384049D01*
X447454Y385398D01*
X449362Y387306D01*
X450244Y388834D01*
X451744Y388432D01*
Y381140D01*
X373383Y302779D01*
X260347D01*
X212809Y350317D01*
Y694705D01*
X227558Y709454D01*
X229227D01*
X231064Y710215D01*
X232471Y711622D01*
X233232Y713460D01*
Y715449D01*
X232471Y717286D01*
X231064Y718693D01*
X229227Y719454D01*
X227238D01*
X225400Y718693D01*
X223993Y717286D01*
X223232Y715449D01*
Y713780D01*
X207587Y698135D01*
X206924Y697142D01*
X206691Y695972D01*
X206691Y695972D01*
Y349050D01*
X206691Y349050D01*
X206924Y347879D01*
X207587Y346887D01*
X256917Y297557D01*
X256917Y297557D01*
X257910Y296894D01*
X259080Y296661D01*
X374650D01*
X374650Y296661D01*
X375821Y296894D01*
X376813Y297557D01*
X456965Y377710D01*
X456966Y377710D01*
X457629Y378702D01*
X457862Y379873D01*
Y385681D01*
X459361Y386303D01*
X460266Y385398D01*
X462604Y384049D01*
X465211Y383350D01*
X467909D01*
X470516Y384049D01*
X472854Y385398D01*
X474762Y387306D01*
X476111Y389644D01*
X476810Y392251D01*
Y394949D01*
X476111Y397556D01*
X474762Y399894D01*
X472854Y401802D01*
X470516Y403152D01*
X467909Y403850D01*
X467186D01*
X466612Y405236D01*
X468134Y406759D01*
X468135Y406759D01*
X468798Y407751D01*
X469030Y408922D01*
X469030Y408922D01*
Y409050D01*
X470516Y409449D01*
X472854Y410798D01*
X474762Y412706D01*
X475310Y413656D01*
X477251Y414081D01*
X477441Y413960D01*
X477674Y412790D01*
X478337Y411798D01*
X486486Y403649D01*
X486290Y402162D01*
X485666Y401802D01*
X483758Y399894D01*
X482408Y397556D01*
X481710Y394949D01*
Y392251D01*
X482408Y389644D01*
X483758Y387306D01*
X485666Y385398D01*
X488004Y384049D01*
X490611Y383350D01*
X493309D01*
X495916Y384049D01*
X498254Y385398D01*
X500162Y387306D01*
X501511Y389644D01*
X502210Y392251D01*
Y394949D01*
X501511Y397556D01*
X500162Y399894D01*
X498254Y401802D01*
X495916Y403152D01*
X493835Y403709D01*
X493608Y404849D01*
X492945Y405841D01*
X492945Y405841D01*
X491536Y407250D01*
X492158Y408750D01*
X493309D01*
X495916Y409449D01*
X498254Y410798D01*
X500162Y412706D01*
X500954Y414078D01*
X502837Y414493D01*
X503051Y414340D01*
X503284Y413170D01*
X503947Y412177D01*
X512127Y403997D01*
X511966Y402321D01*
X511066Y401802D01*
X509158Y399894D01*
X507808Y397556D01*
X507110Y394949D01*
Y392251D01*
X507808Y389644D01*
X509158Y387306D01*
X511066Y385398D01*
X513404Y384049D01*
X516011Y383350D01*
X518709D01*
X521316Y384049D01*
X523654Y385398D01*
X525562Y387306D01*
X526912Y389644D01*
X527610Y392251D01*
Y394949D01*
X526912Y397556D01*
X525562Y399894D01*
X523654Y401802D01*
X521316Y403152D01*
X518709Y403850D01*
X518659D01*
Y404850D01*
X518426Y406021D01*
X517763Y407013D01*
X517763Y407013D01*
X517412Y407364D01*
X517986Y408750D01*
X518709D01*
X521316Y409449D01*
X523654Y410798D01*
X525562Y412706D01*
X525977Y413426D01*
X527852Y413672D01*
X537527Y403997D01*
X537366Y402321D01*
X536466Y401802D01*
X534558Y399894D01*
X533209Y397556D01*
X532510Y394949D01*
Y392251D01*
X533209Y389644D01*
X534558Y387306D01*
X536466Y385398D01*
X538804Y384049D01*
X541411Y383350D01*
X544109D01*
X546716Y384049D01*
X549054Y385398D01*
X549865Y386209D01*
X550011Y386250D01*
X551714Y385937D01*
X552252Y385131D01*
X560173Y377210D01*
Y372172D01*
X560518Y370436D01*
X561502Y368964D01*
X612414Y318052D01*
X613886Y317068D01*
X615622Y316723D01*
X640294D01*
X640730Y315287D01*
X640154Y314903D01*
X637717Y312466D01*
X635802Y309599D01*
X634482Y306415D01*
X633810Y303034D01*
Y299586D01*
X634482Y296205D01*
X635802Y293021D01*
X637717Y290154D01*
X640154Y287717D01*
X643021Y285802D01*
X646205Y284482D01*
X649586Y283810D01*
X653034D01*
X656415Y284482D01*
X659599Y285802D01*
X662466Y287717D01*
X664903Y290154D01*
X666818Y293021D01*
X668138Y296205D01*
X668810Y299586D01*
Y303034D01*
X668675Y303712D01*
X669998Y304419D01*
X683125Y291292D01*
X684597Y290308D01*
X686334Y289963D01*
X797000D01*
X798736Y290308D01*
X800208Y291292D01*
X862108Y353192D01*
X863092Y354664D01*
X863437Y356400D01*
Y809608D01*
X863092Y811344D01*
X862108Y812816D01*
X761966Y912958D01*
X760494Y913942D01*
X758758Y914287D01*
X685879D01*
X669052Y931114D01*
X667580Y932098D01*
X665844Y932443D01*
X644986D01*
X644750Y932679D01*
Y933985D01*
X644137Y936274D01*
X642952Y938326D01*
X641276Y940002D01*
X639224Y941187D01*
X636935Y941800D01*
D02*
G37*
G36*
X519250Y933300D02*
X518979D01*
X516525Y932642D01*
X514325Y931372D01*
X512528Y929575D01*
X511258Y927375D01*
X510600Y924921D01*
Y924650D01*
X519250D01*
Y933300D01*
D02*
G37*
G36*
X741535Y935450D02*
X739165D01*
X736876Y934837D01*
X734824Y933652D01*
X733148Y931976D01*
X731963Y929924D01*
X731350Y927635D01*
Y925265D01*
X731963Y922976D01*
X733148Y920924D01*
X734824Y919248D01*
X736876Y918063D01*
X739165Y917450D01*
X741535D01*
X743824Y918063D01*
X745876Y919248D01*
X747552Y920924D01*
X748737Y922976D01*
X749350Y925265D01*
Y927635D01*
X748737Y929924D01*
X747552Y931976D01*
X745876Y933652D01*
X743824Y934837D01*
X741535Y935450D01*
D02*
G37*
G36*
X434892Y953220D02*
X431248D01*
X427674Y952509D01*
X424307Y951115D01*
X421277Y949090D01*
X418700Y946513D01*
X416675Y943483D01*
X415281Y940116D01*
X414570Y936542D01*
Y932898D01*
X415281Y929324D01*
X416675Y925957D01*
X418700Y922927D01*
X421277Y920350D01*
X424307Y918326D01*
X427674Y916931D01*
X431248Y916220D01*
X434892D01*
X438466Y916931D01*
X441833Y918326D01*
X444863Y920350D01*
X447440Y922927D01*
X449464Y925957D01*
X450859Y929324D01*
X451570Y932898D01*
Y936542D01*
X450859Y940116D01*
X449464Y943483D01*
X447440Y946513D01*
X444863Y949090D01*
X441833Y951115D01*
X438466Y952509D01*
X434892Y953220D01*
D02*
G37*
G36*
X475355Y924670D02*
X472985D01*
X470696Y924057D01*
X468644Y922872D01*
X466968Y921196D01*
X465783Y919144D01*
X465170Y916855D01*
Y914485D01*
X465783Y912196D01*
X466968Y910144D01*
X468644Y908468D01*
X470696Y907283D01*
X472985Y906670D01*
X475355D01*
X477644Y907283D01*
X479696Y908468D01*
X481372Y910144D01*
X482557Y912196D01*
X483170Y914485D01*
Y916855D01*
X482557Y919144D01*
X481372Y921196D01*
X479696Y922872D01*
X477644Y924057D01*
X475355Y924670D01*
D02*
G37*
G36*
X546920Y907900D02*
X546650D01*
Y899250D01*
X555300D01*
Y899520D01*
X554642Y901975D01*
X553372Y904175D01*
X551575Y905972D01*
X549375Y907242D01*
X546920Y907900D01*
D02*
G37*
G36*
X544650D02*
X544380D01*
X541925Y907242D01*
X539725Y905972D01*
X537928Y904175D01*
X536658Y901975D01*
X536000Y899520D01*
Y899250D01*
X544650D01*
Y907900D01*
D02*
G37*
G36*
X555300Y897250D02*
X546650D01*
Y888600D01*
X546920D01*
X549375Y889258D01*
X551575Y890528D01*
X553372Y892325D01*
X554642Y894525D01*
X555300Y896980D01*
Y897250D01*
D02*
G37*
G36*
X544650D02*
X536000D01*
Y896980D01*
X536658Y894525D01*
X537928Y892325D01*
X539725Y890528D01*
X541925Y889258D01*
X544380Y888600D01*
X544650D01*
Y897250D01*
D02*
G37*
G36*
X521520Y857100D02*
X521250D01*
Y848450D01*
X529900D01*
Y848720D01*
X529242Y851175D01*
X527972Y853375D01*
X526175Y855172D01*
X523975Y856442D01*
X521520Y857100D01*
D02*
G37*
G36*
X519250D02*
X518979D01*
X516525Y856442D01*
X514325Y855172D01*
X512528Y853375D01*
X511258Y851175D01*
X510600Y848720D01*
Y848450D01*
X519250D01*
Y857100D01*
D02*
G37*
G36*
X529900Y846450D02*
X521250D01*
Y837800D01*
X521520D01*
X523975Y838458D01*
X526175Y839728D01*
X527972Y841525D01*
X529242Y843725D01*
X529900Y846180D01*
Y846450D01*
D02*
G37*
G36*
X519250D02*
X510600D01*
Y846180D01*
X511258Y843725D01*
X512528Y841525D01*
X514325Y839728D01*
X516525Y838458D01*
X518979Y837800D01*
X519250D01*
Y846450D01*
D02*
G37*
G36*
X475355Y848470D02*
X472985D01*
X470696Y847857D01*
X468644Y846672D01*
X466968Y844996D01*
X465783Y842944D01*
X465170Y840655D01*
Y838285D01*
X465783Y835996D01*
X466968Y833944D01*
X468644Y832268D01*
X470696Y831083D01*
X472985Y830470D01*
X475355D01*
X477644Y831083D01*
X479696Y832268D01*
X481372Y833944D01*
X482557Y835996D01*
X483170Y838285D01*
Y840655D01*
X482557Y842944D01*
X481372Y844996D01*
X479696Y846672D01*
X477644Y847857D01*
X475355Y848470D01*
D02*
G37*
G36*
X521520Y831700D02*
X521250D01*
Y823050D01*
X529900D01*
Y823320D01*
X529242Y825775D01*
X527972Y827975D01*
X526175Y829772D01*
X523975Y831042D01*
X521520Y831700D01*
D02*
G37*
G36*
X519250D02*
X518979D01*
X516525Y831042D01*
X514325Y829772D01*
X512528Y827975D01*
X511258Y825775D01*
X510600Y823320D01*
Y823050D01*
X519250D01*
Y831700D01*
D02*
G37*
G36*
X529900Y821050D02*
X521250D01*
Y812400D01*
X521520D01*
X523975Y813058D01*
X526175Y814328D01*
X527972Y816125D01*
X529242Y818325D01*
X529900Y820779D01*
Y821050D01*
D02*
G37*
G36*
X519250D02*
X510600D01*
Y820779D01*
X511258Y818325D01*
X512528Y816125D01*
X514325Y814328D01*
X516525Y813058D01*
X518979Y812400D01*
X519250D01*
Y821050D01*
D02*
G37*
G36*
X475355Y823570D02*
X472985D01*
X470696Y822957D01*
X468644Y821772D01*
X466968Y820096D01*
X465783Y818044D01*
X465170Y815755D01*
Y813385D01*
X465783Y811096D01*
X466968Y809044D01*
X468644Y807368D01*
X470696Y806183D01*
X472985Y805570D01*
X475355D01*
X477644Y806183D01*
X479696Y807368D01*
X481372Y809044D01*
X482557Y811096D01*
X483170Y813385D01*
Y815755D01*
X482557Y818044D01*
X481372Y820096D01*
X479696Y821772D01*
X477644Y822957D01*
X475355Y823570D01*
D02*
G37*
G36*
X521520Y806300D02*
X521250D01*
Y797650D01*
X529900D01*
Y797921D01*
X529242Y800375D01*
X527972Y802575D01*
X526175Y804372D01*
X523975Y805642D01*
X521520Y806300D01*
D02*
G37*
G36*
X519250D02*
X518979D01*
X516525Y805642D01*
X514325Y804372D01*
X512528Y802575D01*
X511258Y800375D01*
X510600Y797921D01*
Y797650D01*
X519250D01*
Y806300D01*
D02*
G37*
G36*
X529900Y795650D02*
X521250D01*
Y787000D01*
X521520D01*
X523975Y787658D01*
X526175Y788928D01*
X527972Y790725D01*
X529242Y792925D01*
X529900Y795379D01*
Y795650D01*
D02*
G37*
G36*
X519250D02*
X510600D01*
Y795379D01*
X511258Y792925D01*
X512528Y790725D01*
X514325Y788928D01*
X516525Y787658D01*
X518979Y787000D01*
X519250D01*
Y795650D01*
D02*
G37*
G36*
X521520Y780900D02*
X521250D01*
Y772250D01*
X529900D01*
Y772521D01*
X529242Y774975D01*
X527972Y777175D01*
X526175Y778972D01*
X523975Y780242D01*
X521520Y780900D01*
D02*
G37*
G36*
X519250D02*
X518979D01*
X516525Y780242D01*
X514325Y778972D01*
X512528Y777175D01*
X511258Y774975D01*
X510600Y772521D01*
Y772250D01*
X519250D01*
Y780900D01*
D02*
G37*
G36*
X529900Y770250D02*
X521250D01*
Y761600D01*
X521520D01*
X523975Y762258D01*
X526175Y763528D01*
X527972Y765325D01*
X529242Y767525D01*
X529900Y769979D01*
Y770250D01*
D02*
G37*
G36*
X519250D02*
X510600D01*
Y769979D01*
X511258Y767525D01*
X512528Y765325D01*
X514325Y763528D01*
X516525Y762258D01*
X518979Y761600D01*
X519250D01*
Y770250D01*
D02*
G37*
G36*
X521520Y755500D02*
X521250D01*
Y746850D01*
X529900D01*
Y747121D01*
X529242Y749575D01*
X527972Y751775D01*
X526175Y753572D01*
X523975Y754842D01*
X521520Y755500D01*
D02*
G37*
G36*
X519250D02*
X518979D01*
X516525Y754842D01*
X514325Y753572D01*
X512528Y751775D01*
X511258Y749575D01*
X510600Y747121D01*
Y746850D01*
X519250D01*
Y755500D01*
D02*
G37*
G36*
X529900Y744850D02*
X521250D01*
Y736200D01*
X521520D01*
X523975Y736858D01*
X526175Y738128D01*
X527972Y739925D01*
X529242Y742125D01*
X529900Y744579D01*
Y744850D01*
D02*
G37*
G36*
X519250D02*
X510600D01*
Y744579D01*
X511258Y742125D01*
X512528Y739925D01*
X514325Y738128D01*
X516525Y736858D01*
X518979Y736200D01*
X519250D01*
Y744850D01*
D02*
G37*
G36*
X521520Y730100D02*
X521250D01*
Y721450D01*
X529900D01*
Y721721D01*
X529242Y724175D01*
X527972Y726375D01*
X526175Y728172D01*
X523975Y729442D01*
X521520Y730100D01*
D02*
G37*
G36*
X519250D02*
X518979D01*
X516525Y729442D01*
X514325Y728172D01*
X512528Y726375D01*
X511258Y724175D01*
X510600Y721721D01*
Y721450D01*
X519250D01*
Y730100D01*
D02*
G37*
G36*
X529900Y719450D02*
X521250D01*
Y710800D01*
X521520D01*
X523975Y711458D01*
X526175Y712728D01*
X527972Y714525D01*
X529242Y716725D01*
X529900Y719180D01*
Y719450D01*
D02*
G37*
G36*
X519250D02*
X510600D01*
Y719180D01*
X511258Y716725D01*
X512528Y714525D01*
X514325Y712728D01*
X516525Y711458D01*
X518979Y710800D01*
X519250D01*
Y719450D01*
D02*
G37*
G36*
X521520Y704700D02*
X521250D01*
Y696050D01*
X529900D01*
Y696320D01*
X529242Y698775D01*
X527972Y700975D01*
X526175Y702772D01*
X523975Y704042D01*
X521520Y704700D01*
D02*
G37*
G36*
X519250D02*
X518979D01*
X516525Y704042D01*
X514325Y702772D01*
X512528Y700975D01*
X511258Y698775D01*
X510600Y696320D01*
Y696050D01*
X519250D01*
Y704700D01*
D02*
G37*
G36*
X529900Y694050D02*
X521250D01*
Y685400D01*
X521520D01*
X523975Y686058D01*
X526175Y687328D01*
X527972Y689125D01*
X529242Y691325D01*
X529900Y693780D01*
Y694050D01*
D02*
G37*
G36*
X519250D02*
X510600D01*
Y693780D01*
X511258Y691325D01*
X512528Y689125D01*
X514325Y687328D01*
X516525Y686058D01*
X518979Y685400D01*
X519250D01*
Y694050D01*
D02*
G37*
G36*
X521520Y679300D02*
X521250D01*
Y670650D01*
X529900D01*
Y670920D01*
X529242Y673375D01*
X527972Y675575D01*
X526175Y677372D01*
X523975Y678642D01*
X521520Y679300D01*
D02*
G37*
G36*
X519250D02*
X518979D01*
X516525Y678642D01*
X514325Y677372D01*
X512528Y675575D01*
X511258Y673375D01*
X510600Y670920D01*
Y670650D01*
X519250D01*
Y679300D01*
D02*
G37*
G36*
X529900Y668650D02*
X521250D01*
Y660000D01*
X521520D01*
X523975Y660658D01*
X526175Y661928D01*
X527972Y663725D01*
X529242Y665925D01*
X529900Y668380D01*
Y668650D01*
D02*
G37*
G36*
X519250D02*
X510600D01*
Y668380D01*
X511258Y665925D01*
X512528Y663725D01*
X514325Y661928D01*
X516525Y660658D01*
X518979Y660000D01*
X519250D01*
Y668650D01*
D02*
G37*
G36*
X521520Y653900D02*
X521250D01*
Y645250D01*
X529900D01*
Y645520D01*
X529242Y647975D01*
X527972Y650175D01*
X526175Y651972D01*
X523975Y653242D01*
X521520Y653900D01*
D02*
G37*
G36*
X519250D02*
X518979D01*
X516525Y653242D01*
X514325Y651972D01*
X512528Y650175D01*
X511258Y647975D01*
X510600Y645520D01*
Y645250D01*
X519250D01*
Y653900D01*
D02*
G37*
G36*
X68842Y712169D02*
X63507Y711749D01*
X58303Y710499D01*
X53359Y708451D01*
X48796Y705655D01*
X44726Y702179D01*
X41251Y698110D01*
X38454Y693547D01*
X36406Y688603D01*
X35157Y683399D01*
X34737Y678064D01*
X35157Y672728D01*
X36406Y667524D01*
X38454Y662580D01*
X41251Y658017D01*
X44726Y653948D01*
X48796Y650472D01*
X53359Y647676D01*
X58303Y645628D01*
X63507Y644378D01*
X68842Y643958D01*
X74177Y644378D01*
X79381Y645628D01*
X84326Y647676D01*
X88889Y650472D01*
X92958Y653948D01*
X96434Y658017D01*
X99230Y662580D01*
X101278Y667524D01*
X102528Y672728D01*
X102947Y678064D01*
X102528Y683399D01*
X101278Y688603D01*
X99230Y693547D01*
X96434Y698110D01*
X92958Y702179D01*
X88889Y705655D01*
X84326Y708451D01*
X79381Y710499D01*
X74177Y711749D01*
X68842Y712169D01*
D02*
G37*
G36*
X529900Y643250D02*
X521250D01*
Y634600D01*
X521520D01*
X523975Y635258D01*
X526175Y636528D01*
X527972Y638325D01*
X529242Y640525D01*
X529900Y642980D01*
Y643250D01*
D02*
G37*
G36*
X519250D02*
X510600D01*
Y642980D01*
X511258Y640525D01*
X512528Y638325D01*
X514325Y636528D01*
X516525Y635258D01*
X518979Y634600D01*
X519250D01*
Y643250D01*
D02*
G37*
G36*
X1009755Y477234D02*
X1007766D01*
X1005928Y476473D01*
X1004748Y475293D01*
X961193D01*
X960022Y475060D01*
X959030Y474397D01*
X903587Y418954D01*
X902924Y417961D01*
X902691Y416791D01*
X902691Y416791D01*
Y364512D01*
X901511Y363332D01*
X900750Y361495D01*
Y359505D01*
X901511Y357668D01*
X902918Y356261D01*
X904755Y355500D01*
X906745D01*
X908582Y356261D01*
X909989Y357668D01*
X910750Y359505D01*
Y361495D01*
X909989Y363332D01*
X908809Y364512D01*
Y415524D01*
X962460Y469175D01*
X1004748D01*
X1005928Y467995D01*
X1007766Y467234D01*
X1009755D01*
X1011593Y467995D01*
X1012999Y469401D01*
X1013760Y471239D01*
Y473228D01*
X1012999Y475066D01*
X1011593Y476473D01*
X1009755Y477234D01*
D02*
G37*
G36*
X721909Y454650D02*
X721560D01*
Y445400D01*
X730810D01*
Y445749D01*
X730111Y448356D01*
X728762Y450694D01*
X726854Y452602D01*
X724516Y453951D01*
X721909Y454650D01*
D02*
G37*
G36*
X730810Y443400D02*
X721560D01*
Y434150D01*
X721909D01*
X724516Y434849D01*
X726854Y436198D01*
X728762Y438106D01*
X730111Y440444D01*
X730810Y443051D01*
Y443400D01*
D02*
G37*
G36*
X883453Y419580D02*
X883000D01*
Y405830D01*
X896750D01*
Y406283D01*
X896183Y409132D01*
X895071Y411817D01*
X893457Y414233D01*
X891403Y416287D01*
X888987Y417901D01*
X886302Y419013D01*
X883453Y419580D01*
D02*
G37*
G36*
X881000D02*
X880547D01*
X877698Y419013D01*
X875013Y417901D01*
X872597Y416287D01*
X870543Y414233D01*
X868929Y411817D01*
X867817Y409132D01*
X867250Y406283D01*
Y405830D01*
X881000D01*
Y419580D01*
D02*
G37*
G36*
X281685Y432500D02*
X278435D01*
X275247Y431866D01*
X272244Y430622D01*
X269542Y428816D01*
X267244Y426518D01*
X265438Y423816D01*
X264194Y420813D01*
X263560Y417625D01*
Y414375D01*
X264194Y411187D01*
X265438Y408184D01*
X267244Y405482D01*
X269542Y403184D01*
X272244Y401378D01*
X275247Y400134D01*
X278435Y399500D01*
X281685D01*
X284873Y400134D01*
X287876Y401378D01*
X290578Y403184D01*
X292876Y405482D01*
X294682Y408184D01*
X295926Y411187D01*
X296560Y414375D01*
Y417625D01*
X295926Y420813D01*
X294682Y423816D01*
X292876Y426518D01*
X290578Y428816D01*
X287876Y430622D01*
X284873Y431866D01*
X281685Y432500D01*
D02*
G37*
G36*
X946750Y419580D02*
X917250D01*
Y390080D01*
X946750D01*
Y419580D01*
D02*
G37*
G36*
X896750Y403830D02*
X883000D01*
Y390080D01*
X883453D01*
X886302Y390647D01*
X888987Y391759D01*
X891403Y393373D01*
X893457Y395427D01*
X895071Y397843D01*
X896183Y400528D01*
X896750Y403377D01*
Y403830D01*
D02*
G37*
G36*
X881000D02*
X867250D01*
Y403377D01*
X867817Y400528D01*
X868929Y397843D01*
X870543Y395427D01*
X872597Y393373D01*
X875013Y391759D01*
X877698Y390647D01*
X880547Y390080D01*
X881000D01*
Y403830D01*
D02*
G37*
G36*
X991288Y414169D02*
X985953Y413749D01*
X980749Y412500D01*
X975805Y410452D01*
X971241Y407655D01*
X967172Y404180D01*
X963696Y400110D01*
X960900Y395547D01*
X958852Y390603D01*
X957603Y385399D01*
X957183Y380064D01*
X957603Y374729D01*
X958852Y369525D01*
X960900Y364580D01*
X963696Y360017D01*
X967172Y355948D01*
X971241Y352472D01*
X975805Y349676D01*
X980749Y347628D01*
X985953Y346379D01*
X991288Y345959D01*
X996623Y346379D01*
X1001827Y347628D01*
X1006771Y349676D01*
X1011334Y352472D01*
X1015404Y355948D01*
X1018879Y360017D01*
X1021676Y364580D01*
X1023724Y369525D01*
X1024973Y374729D01*
X1025393Y380064D01*
X1024973Y385399D01*
X1023724Y390603D01*
X1021676Y395547D01*
X1018879Y400110D01*
X1015404Y404180D01*
X1011334Y407655D01*
X1006771Y410452D01*
X1001827Y412500D01*
X996623Y413749D01*
X991288Y414169D01*
D02*
G37*
G36*
X68846D02*
X63510Y413749D01*
X58306Y412500D01*
X53362Y410452D01*
X48799Y407655D01*
X44729Y404180D01*
X41254Y400110D01*
X38458Y395547D01*
X36410Y390603D01*
X35160Y385399D01*
X34740Y380064D01*
X35160Y374729D01*
X36410Y369525D01*
X38458Y364580D01*
X41254Y360017D01*
X44729Y355948D01*
X48799Y352472D01*
X53362Y349676D01*
X58306Y347628D01*
X63510Y346379D01*
X68846Y345959D01*
X74181Y346379D01*
X79385Y347628D01*
X84329Y349676D01*
X88892Y352472D01*
X92961Y355948D01*
X96437Y360017D01*
X99233Y364580D01*
X101281Y369525D01*
X102531Y374729D01*
X102951Y380064D01*
X102531Y385399D01*
X101281Y390603D01*
X99233Y395547D01*
X96437Y400110D01*
X92961Y404180D01*
X88892Y407655D01*
X84329Y410452D01*
X79385Y412500D01*
X74181Y413749D01*
X68846Y414169D01*
D02*
G37*
G36*
X410534Y318810D02*
X407086D01*
X403705Y318137D01*
X400521Y316818D01*
X397654Y314903D01*
X395217Y312466D01*
X393302Y309599D01*
X391982Y306415D01*
X391310Y303034D01*
Y299586D01*
X391982Y296205D01*
X393302Y293021D01*
X395217Y290154D01*
X397654Y287717D01*
X400521Y285802D01*
X403705Y284482D01*
X407086Y283810D01*
X410534D01*
X413915Y284482D01*
X417099Y285802D01*
X419966Y287717D01*
X422403Y290154D01*
X424318Y293021D01*
X425638Y296205D01*
X426310Y299586D01*
Y303034D01*
X425638Y306415D01*
X424318Y309599D01*
X422403Y312466D01*
X419966Y314903D01*
X417099Y316818D01*
X413915Y318137D01*
X410534Y318810D01*
D02*
G37*
G36*
X653034Y76310D02*
X649586D01*
X646205Y75637D01*
X643021Y74318D01*
X640154Y72403D01*
X637717Y69966D01*
X635802Y67099D01*
X634482Y63915D01*
X633810Y60534D01*
Y57086D01*
X634482Y53705D01*
X635802Y50521D01*
X637717Y47654D01*
X640154Y45217D01*
X643021Y43302D01*
X646205Y41982D01*
X649586Y41310D01*
X653034D01*
X656415Y41982D01*
X659599Y43302D01*
X662466Y45217D01*
X664903Y47654D01*
X666818Y50521D01*
X668138Y53705D01*
X668810Y57086D01*
Y60534D01*
X668138Y63915D01*
X666818Y67099D01*
X664903Y69966D01*
X662466Y72403D01*
X659599Y74318D01*
X656415Y75637D01*
X653034Y76310D01*
D02*
G37*
G36*
X410534D02*
X407086D01*
X403705Y75637D01*
X400521Y74318D01*
X397654Y72403D01*
X395217Y69966D01*
X393302Y67099D01*
X391982Y63915D01*
X391310Y60534D01*
Y57086D01*
X391982Y53705D01*
X393302Y50521D01*
X395217Y47654D01*
X397654Y45217D01*
X400521Y43302D01*
X403705Y41982D01*
X407086Y41310D01*
X410534D01*
X413915Y41982D01*
X417099Y43302D01*
X419966Y45217D01*
X422403Y47654D01*
X424318Y50521D01*
X425638Y53705D01*
X426310Y57086D01*
Y60534D01*
X425638Y63915D01*
X424318Y67099D01*
X422403Y69966D01*
X419966Y72403D01*
X417099Y74318D01*
X413915Y75637D01*
X410534Y76310D01*
D02*
G37*
G36*
X535659Y322560D02*
X524461D01*
X513298Y321681D01*
X502238Y319930D01*
X491350Y317316D01*
X480700Y313855D01*
X470355Y309570D01*
X460378Y304487D01*
X450830Y298636D01*
X441771Y292054D01*
X433256Y284782D01*
X425338Y276864D01*
X418066Y268349D01*
X411484Y259290D01*
X405633Y249742D01*
X400550Y239765D01*
X396265Y229420D01*
X392804Y218770D01*
X390190Y207882D01*
X388439Y196822D01*
X387560Y185659D01*
Y174461D01*
X388439Y163298D01*
X390190Y152238D01*
X392804Y141350D01*
X396265Y130700D01*
X400550Y120355D01*
X405633Y110378D01*
X411484Y100830D01*
X418066Y91771D01*
X425338Y83256D01*
X433256Y75338D01*
X441771Y68066D01*
X450830Y61484D01*
X460378Y55633D01*
X470355Y50550D01*
X480700Y46265D01*
X491350Y42804D01*
X502238Y40190D01*
X513298Y38439D01*
X524461Y37560D01*
X535659D01*
X546822Y38439D01*
X557882Y40190D01*
X568770Y42804D01*
X579420Y46265D01*
X589765Y50550D01*
X599742Y55633D01*
X609290Y61484D01*
X618349Y68066D01*
X626864Y75338D01*
X634782Y83256D01*
X642054Y91771D01*
X648636Y100830D01*
X654487Y110378D01*
X659570Y120355D01*
X663855Y130700D01*
X667316Y141350D01*
X669930Y152238D01*
X671681Y163298D01*
X672560Y174461D01*
Y185659D01*
X671681Y196822D01*
X669930Y207882D01*
X667316Y218770D01*
X663855Y229420D01*
X659570Y239765D01*
X654487Y249742D01*
X648636Y259290D01*
X642054Y268349D01*
X634782Y276864D01*
X626864Y284782D01*
X618349Y292054D01*
X609290Y298636D01*
X599742Y304487D01*
X589765Y309570D01*
X579420Y313855D01*
X568770Y317316D01*
X557882Y319930D01*
X546822Y321681D01*
X535659Y322560D01*
D02*
G37*
%LPD*%
G36*
X532500Y937260D02*
X499750D01*
Y1019810D01*
X532500D01*
Y937260D01*
D02*
G37*
%LPC*%
G36*
X521520Y1009500D02*
X521250D01*
Y1000850D01*
X529900D01*
Y1001121D01*
X529242Y1003575D01*
X527972Y1005775D01*
X526175Y1007572D01*
X523975Y1008842D01*
X521520Y1009500D01*
D02*
G37*
G36*
X519250D02*
X518979D01*
X516525Y1008842D01*
X514325Y1007572D01*
X512528Y1005775D01*
X511258Y1003575D01*
X510600Y1001121D01*
Y1000850D01*
X519250D01*
Y1009500D01*
D02*
G37*
G36*
X529900Y998850D02*
X521250D01*
Y990200D01*
X521520D01*
X523975Y990858D01*
X526175Y992128D01*
X527972Y993925D01*
X529242Y996125D01*
X529900Y998579D01*
Y998850D01*
D02*
G37*
G36*
X519250D02*
X510600D01*
Y998579D01*
X511258Y996125D01*
X512528Y993925D01*
X514325Y992128D01*
X516525Y990858D01*
X518979Y990200D01*
X519250D01*
Y998850D01*
D02*
G37*
G36*
X521520Y984100D02*
X521250D01*
Y975450D01*
X529900D01*
Y975721D01*
X529242Y978175D01*
X527972Y980375D01*
X526175Y982172D01*
X523975Y983442D01*
X521520Y984100D01*
D02*
G37*
G36*
X519250D02*
X518979D01*
X516525Y983442D01*
X514325Y982172D01*
X512528Y980375D01*
X511258Y978175D01*
X510600Y975721D01*
Y975450D01*
X519250D01*
Y984100D01*
D02*
G37*
G36*
X529900Y973450D02*
X521250D01*
Y964800D01*
X521520D01*
X523975Y965458D01*
X526175Y966728D01*
X527972Y968525D01*
X529242Y970725D01*
X529900Y973179D01*
Y973450D01*
D02*
G37*
G36*
X519250D02*
X510600D01*
Y973179D01*
X511258Y970725D01*
X512528Y968525D01*
X514325Y966728D01*
X516525Y965458D01*
X518979Y964800D01*
X519250D01*
Y973450D01*
D02*
G37*
G36*
X521520Y958700D02*
X521250D01*
Y950050D01*
X529900D01*
Y950321D01*
X529242Y952775D01*
X527972Y954975D01*
X526175Y956772D01*
X523975Y958042D01*
X521520Y958700D01*
D02*
G37*
G36*
X519250D02*
X518979D01*
X516525Y958042D01*
X514325Y956772D01*
X512528Y954975D01*
X511258Y952775D01*
X510600Y950321D01*
Y950050D01*
X519250D01*
Y958700D01*
D02*
G37*
G36*
X529900Y948050D02*
X521250D01*
Y939400D01*
X521520D01*
X523975Y940058D01*
X526175Y941328D01*
X527972Y943125D01*
X529242Y945325D01*
X529900Y947779D01*
Y948050D01*
D02*
G37*
G36*
X519250D02*
X510600D01*
Y947779D01*
X511258Y945325D01*
X512528Y943125D01*
X514325Y941328D01*
X516525Y940058D01*
X518979Y939400D01*
X519250D01*
Y948050D01*
D02*
G37*
%LPD*%
G36*
X362368Y916494D02*
X364044Y914818D01*
X365275Y914107D01*
X364874Y912607D01*
X364827D01*
X363091Y912262D01*
X361619Y911278D01*
X352412Y902071D01*
X351428Y900599D01*
X351083Y898863D01*
Y891695D01*
X350367Y891398D01*
X349583Y891187D01*
X347644Y892307D01*
X345355Y892920D01*
X342985D01*
X340696Y892307D01*
X338757Y891187D01*
X337973Y891398D01*
X337257Y891695D01*
Y901384D01*
X338276Y901923D01*
X338757Y902053D01*
X340696Y900933D01*
X342985Y900320D01*
X345355D01*
X347644Y900933D01*
X349696Y902118D01*
X351372Y903794D01*
X352557Y905846D01*
X353170Y908135D01*
Y910505D01*
X352557Y912794D01*
X351372Y914846D01*
X350235Y915983D01*
X350856Y917483D01*
X361797D01*
X362368Y916494D01*
D02*
G37*
G36*
Y891094D02*
X364044Y889418D01*
X366096Y888233D01*
X368385Y887620D01*
X370755D01*
X373044Y888233D01*
X374983Y889353D01*
X375464Y889223D01*
X376483Y888684D01*
Y878995D01*
X375767Y878698D01*
X374983Y878487D01*
X373044Y879607D01*
X370755Y880220D01*
X368385D01*
X366096Y879607D01*
X364044Y878422D01*
X362368Y876746D01*
X361657Y875515D01*
X360157Y875916D01*
Y891924D01*
X361657Y892326D01*
X362368Y891094D01*
D02*
G37*
G36*
X600681Y893794D02*
X601384Y893389D01*
X601963Y891226D01*
X603148Y889174D01*
X604824Y887498D01*
X606876Y886313D01*
X609165Y885700D01*
X611535D01*
X613824Y886313D01*
X615876Y887498D01*
X617552Y889174D01*
X618123Y890163D01*
X629064D01*
X629685Y888663D01*
X628548Y887526D01*
X627363Y885474D01*
X626750Y883185D01*
Y880815D01*
X627363Y878526D01*
X628548Y876474D01*
X630224Y874798D01*
X632276Y873613D01*
X634565Y873000D01*
X636935D01*
X639224Y873613D01*
X641276Y874798D01*
X642952Y876474D01*
X643523Y877463D01*
X733121D01*
X821213Y789371D01*
Y696448D01*
X821113Y695944D01*
Y384056D01*
X821213Y383552D01*
Y376887D01*
X776013Y331687D01*
X693237D01*
X665252Y359673D01*
X663780Y360656D01*
X662044Y361002D01*
X649772D01*
X630406Y380368D01*
Y380669D01*
X634868Y385131D01*
X635406Y385937D01*
X637109Y386250D01*
X637255Y386209D01*
X638066Y385398D01*
X640404Y384049D01*
X643011Y383350D01*
X645709D01*
X648316Y384049D01*
X650654Y385398D01*
X651465Y386209D01*
X651611Y386250D01*
X653314Y385937D01*
X653852Y385131D01*
X661773Y377210D01*
Y372172D01*
X662118Y370436D01*
X663102Y368964D01*
X692024Y340042D01*
X693496Y339058D01*
X695232Y338713D01*
X762250D01*
X763986Y339058D01*
X765458Y340042D01*
X809118Y383702D01*
X810102Y385174D01*
X810447Y386910D01*
Y702848D01*
X810102Y704584D01*
X809118Y706056D01*
X733437Y781737D01*
Y817575D01*
X734153Y817872D01*
X734937Y818083D01*
X736876Y816963D01*
X739165Y816350D01*
X741535D01*
X743824Y816963D01*
X745876Y818148D01*
X747552Y819824D01*
X748737Y821876D01*
X749350Y824165D01*
Y826535D01*
X748737Y828824D01*
X747552Y830876D01*
X745876Y832552D01*
X743824Y833737D01*
X741535Y834350D01*
X739165D01*
X736876Y833737D01*
X734937Y832617D01*
X734153Y832828D01*
X733437Y833125D01*
Y840936D01*
X733092Y842672D01*
X734283Y843589D01*
X734824Y843048D01*
X736876Y841863D01*
X739165Y841250D01*
X741535D01*
X743824Y841863D01*
X745876Y843048D01*
X747552Y844724D01*
X748737Y846776D01*
X749350Y849065D01*
Y851435D01*
X748737Y853724D01*
X747552Y855776D01*
X745876Y857452D01*
X743824Y858637D01*
X741535Y859250D01*
X739165D01*
X736876Y858637D01*
X734824Y857452D01*
X733148Y855776D01*
X731963Y853724D01*
X731350Y851435D01*
Y849065D01*
X731963Y846776D01*
X732463Y845910D01*
X731263Y844989D01*
X709894Y866358D01*
X708422Y867342D01*
X706686Y867687D01*
X648735D01*
X646998Y867342D01*
X645526Y866358D01*
X642123Y862955D01*
X641276Y863802D01*
X639224Y864987D01*
X636935Y865600D01*
X634565D01*
X632276Y864987D01*
X630224Y863802D01*
X628548Y862126D01*
X627363Y860074D01*
X626750Y857785D01*
Y855415D01*
X627363Y853126D01*
X628548Y851074D01*
X628779Y850843D01*
X628158Y849343D01*
X617600D01*
X617552Y849426D01*
X615876Y851102D01*
X613824Y852287D01*
X611535Y852900D01*
X609165D01*
X606876Y852287D01*
X604824Y851102D01*
X603148Y849426D01*
X601963Y847374D01*
X601384Y845211D01*
X600681Y844806D01*
X599964Y844510D01*
X592687Y851787D01*
Y877055D01*
X594282Y878651D01*
X594583D01*
X601646Y871588D01*
X601350Y870485D01*
Y868115D01*
X601963Y865826D01*
X603148Y863774D01*
X604824Y862098D01*
X606876Y860913D01*
X609165Y860300D01*
X611535D01*
X613824Y860913D01*
X615876Y862098D01*
X617552Y863774D01*
X618737Y865826D01*
X619350Y868115D01*
Y870485D01*
X618737Y872774D01*
X617552Y874826D01*
X615876Y876502D01*
X613824Y877687D01*
X611535Y878300D01*
X609165D01*
X608062Y878004D01*
X599671Y886396D01*
X598199Y887380D01*
X596462Y887725D01*
X595558D01*
X594984Y889111D01*
X599964Y894090D01*
X600681Y893794D01*
D02*
G37*
G36*
X702108Y851023D02*
X701256Y849663D01*
X701072Y849700D01*
X697428D01*
X693854Y848989D01*
X690487Y847595D01*
X687457Y845570D01*
X684880Y842993D01*
X682856Y839963D01*
X681461Y836596D01*
X680750Y833022D01*
Y829378D01*
X681461Y825804D01*
X682856Y822437D01*
X684880Y819407D01*
X687457Y816830D01*
X690487Y814806D01*
X693854Y813411D01*
X697428Y812700D01*
X701072D01*
X704646Y813411D01*
X708013Y814806D01*
X711043Y816830D01*
X713620Y819407D01*
X715645Y822437D01*
X715963Y823206D01*
X717463Y822907D01*
Y777000D01*
X717808Y775264D01*
X718792Y773792D01*
X794473Y698111D01*
Y426712D01*
X793037Y426277D01*
X792876Y426518D01*
X790578Y428816D01*
X787876Y430622D01*
X784873Y431866D01*
X781685Y432500D01*
X778435D01*
X775247Y431866D01*
X772244Y430622D01*
X769542Y428816D01*
X767244Y426518D01*
X765438Y423816D01*
X764194Y420813D01*
X763560Y417625D01*
Y414375D01*
X764194Y411187D01*
X765438Y408184D01*
X767244Y405482D01*
X769542Y403184D01*
X772244Y401378D01*
X775247Y400134D01*
X778435Y399500D01*
X781685D01*
X784873Y400134D01*
X787876Y401378D01*
X790578Y403184D01*
X792876Y405482D01*
X793037Y405723D01*
X794473Y405288D01*
Y391647D01*
X757513Y354687D01*
X699969D01*
X677747Y376910D01*
Y377210D01*
X685668Y385131D01*
X686206Y385937D01*
X687909Y386250D01*
X688055Y386209D01*
X688866Y385398D01*
X691204Y384049D01*
X693811Y383350D01*
X696509D01*
X699116Y384049D01*
X701454Y385398D01*
X701937Y385881D01*
X703323Y385307D01*
Y383507D01*
X703668Y381771D01*
X704652Y380299D01*
X707259Y377692D01*
X708730Y376708D01*
X710467Y376363D01*
X720170D01*
X730112Y366421D01*
X731584Y365438D01*
X733320Y365092D01*
X743000D01*
X744736Y365438D01*
X746208Y366421D01*
X753168Y373381D01*
X754152Y374853D01*
X754497Y376589D01*
Y688097D01*
X754152Y689834D01*
X753168Y691306D01*
X610960Y833514D01*
X611256Y834230D01*
X611661Y834934D01*
X613824Y835513D01*
X615876Y836698D01*
X617552Y838374D01*
X618646Y840269D01*
X640149D01*
X641885Y840614D01*
X643357Y841598D01*
X653472Y851713D01*
X701586D01*
X702108Y851023D01*
D02*
G37*
G36*
X554471Y586558D02*
Y574943D01*
X552971Y574376D01*
X551575Y575772D01*
X549375Y577042D01*
X546920Y577700D01*
X544380D01*
X541925Y577042D01*
X539725Y575772D01*
X537928Y573975D01*
X536658Y571775D01*
X536000Y569320D01*
Y566780D01*
X536658Y564325D01*
X537928Y562125D01*
X539725Y560328D01*
X541925Y559058D01*
X544380Y558400D01*
X546920D01*
X549375Y559058D01*
X551575Y560328D01*
X552971Y561724D01*
X554471Y561157D01*
Y549543D01*
X552971Y548976D01*
X551575Y550372D01*
X549375Y551642D01*
X546920Y552300D01*
X544380D01*
X541925Y551642D01*
X539725Y550372D01*
X537928Y548575D01*
X536658Y546375D01*
X536000Y543921D01*
Y541380D01*
X536658Y538925D01*
X537928Y536725D01*
X539725Y534928D01*
X541925Y533658D01*
X544380Y533000D01*
X546920D01*
X549375Y533658D01*
X551575Y534928D01*
X552971Y536324D01*
X554471Y535757D01*
Y526900D01*
X536000D01*
Y507600D01*
X554471D01*
Y497089D01*
X511810D01*
X511810Y497089D01*
X511367Y497001D01*
X510090Y498083D01*
X510059Y498153D01*
Y512602D01*
X511559Y513004D01*
X512528Y511325D01*
X514325Y509528D01*
X516525Y508258D01*
X518979Y507600D01*
X521520D01*
X523975Y508258D01*
X526175Y509528D01*
X527972Y511325D01*
X529242Y513525D01*
X529900Y515979D01*
Y518521D01*
X529242Y520975D01*
X527972Y523175D01*
X526175Y524972D01*
X523975Y526242D01*
X521520Y526900D01*
X518979D01*
X516525Y526242D01*
X514325Y524972D01*
X512528Y523175D01*
X511559Y521496D01*
X510059Y521898D01*
Y538002D01*
X511559Y538404D01*
X512528Y536725D01*
X514325Y534928D01*
X516525Y533658D01*
X518979Y533000D01*
X521520D01*
X523975Y533658D01*
X526175Y534928D01*
X527972Y536725D01*
X529242Y538925D01*
X529900Y541380D01*
Y543921D01*
X529242Y546375D01*
X527972Y548575D01*
X526175Y550372D01*
X523975Y551642D01*
X521520Y552300D01*
X518979D01*
X516525Y551642D01*
X514325Y550372D01*
X512528Y548575D01*
X511559Y546896D01*
X510059Y547298D01*
Y563402D01*
X511559Y563804D01*
X512528Y562125D01*
X514325Y560328D01*
X516525Y559058D01*
X518979Y558400D01*
X521520D01*
X523975Y559058D01*
X526175Y560328D01*
X527972Y562125D01*
X529242Y564325D01*
X529900Y566780D01*
Y569320D01*
X529242Y571775D01*
X527972Y573975D01*
X526175Y575772D01*
X523975Y577042D01*
X523755Y577101D01*
X523952Y578601D01*
X529590D01*
X529590Y578601D01*
X530760Y578834D01*
X531753Y579497D01*
X536046Y583790D01*
X536046Y583790D01*
X536709Y584783D01*
X536942Y585953D01*
Y586390D01*
X538442Y587011D01*
X539725Y585728D01*
X541925Y584458D01*
X544380Y583800D01*
X546920D01*
X549375Y584458D01*
X551575Y585728D01*
X552971Y587124D01*
X554471Y586558D01*
D02*
G37*
G36*
X503051Y440395D02*
Y423005D01*
X501551Y422808D01*
X501511Y422956D01*
X500162Y425294D01*
X498254Y427202D01*
X495916Y428551D01*
X493309Y429250D01*
X490611D01*
X488004Y428551D01*
X485666Y427202D01*
X485059Y426594D01*
X483559Y427216D01*
Y436184D01*
X485059Y436806D01*
X485666Y436198D01*
X488004Y434849D01*
X490611Y434150D01*
X493309D01*
X495916Y434849D01*
X498254Y436198D01*
X500162Y438106D01*
X501511Y440444D01*
X501551Y440592D01*
X503051Y440395D01*
D02*
G37*
G36*
X677934Y899642D02*
X679406Y898658D01*
X681142Y898313D01*
X754021D01*
X847463Y804871D01*
Y361137D01*
X792263Y305937D01*
X691071D01*
X665640Y331368D01*
X664168Y332352D01*
X662432Y332697D01*
X620360D01*
X576147Y376910D01*
Y377210D01*
X584068Y385131D01*
X584606Y385937D01*
X586309Y386250D01*
X586455Y386209D01*
X587266Y385398D01*
X589604Y384049D01*
X592211Y383350D01*
X594909D01*
X597516Y384049D01*
X599854Y385398D01*
X600665Y386209D01*
X600811Y386250D01*
X602514Y385937D01*
X603052Y385131D01*
X641827Y346356D01*
X643299Y345373D01*
X645035Y345027D01*
X657306D01*
X685292Y317042D01*
X686764Y316058D01*
X688500Y315713D01*
X780750D01*
X782486Y316058D01*
X783958Y317042D01*
X835858Y368942D01*
X836842Y370414D01*
X837187Y372150D01*
Y386814D01*
X837087Y387318D01*
Y692682D01*
X837187Y693186D01*
Y794108D01*
X836842Y795844D01*
X835858Y797316D01*
X741066Y892108D01*
X739594Y893092D01*
X737858Y893437D01*
X648129D01*
X643658Y897908D01*
X642186Y898892D01*
X642042Y898920D01*
X641832Y899272D01*
X641613Y900535D01*
X642952Y901874D01*
X644137Y903926D01*
X644750Y906215D01*
Y908585D01*
X644137Y910874D01*
X642952Y912926D01*
X641276Y914602D01*
X640640Y914969D01*
X641042Y916469D01*
X661107D01*
X677934Y899642D01*
D02*
G37*
%LPC*%
G36*
X662593Y823600D02*
X658907D01*
X655346Y822646D01*
X652154Y820803D01*
X649547Y818196D01*
X647704Y815004D01*
X646750Y811443D01*
Y807757D01*
X647704Y804196D01*
X649547Y801004D01*
X652154Y798397D01*
X655346Y796554D01*
X658907Y795600D01*
X662593D01*
X666154Y796554D01*
X669346Y798397D01*
X671953Y801004D01*
X673796Y804196D01*
X674750Y807757D01*
Y811443D01*
X673796Y815004D01*
X671953Y818196D01*
X669346Y820803D01*
X666154Y822646D01*
X662593Y823600D01*
D02*
G37*
%LPD*%
D13*
X961193Y472234D02*
X1008760D01*
X905750Y416791D02*
X961193Y472234D01*
X905750Y360500D02*
Y416791D01*
X545650Y872850D02*
X563500Y855000D01*
Y847000D02*
Y855000D01*
X723750Y477370D02*
Y686750D01*
X563500Y847000D02*
X723750Y686750D01*
X545650Y847450D02*
X702310Y690790D01*
Y481330D02*
Y690790D01*
X676910Y481330D02*
Y700090D01*
X555128Y821872D02*
X676910Y700090D01*
X546560Y822960D02*
X547648Y821872D01*
X555128D01*
X651510Y481330D02*
Y704740D01*
X558690Y797560D02*
X651510Y704740D01*
X546560Y797560D02*
X558690D01*
X626110Y477110D02*
Y709890D01*
X546010Y770890D02*
X565110D01*
X626110Y709890D01*
X568150Y745850D02*
X607060Y706940D01*
Y477310D02*
Y706940D01*
X545650Y745850D02*
X568150D01*
X708660Y462280D02*
X723750Y477370D01*
X713310Y400850D02*
X720560Y393600D01*
X713310Y400850D02*
Y410340D01*
X708660Y414990D02*
X713310Y410340D01*
X708660Y414990D02*
Y462280D01*
X683260D02*
X702310Y481330D01*
X683260Y414990D02*
Y462280D01*
X657860D02*
X676910Y481330D01*
X632460Y462280D02*
X651510Y481330D01*
X632460Y414990D02*
Y462280D01*
X607060Y458060D02*
X626110Y477110D01*
X290250Y563300D02*
X313690Y586740D01*
X290250Y452400D02*
Y563300D01*
Y452400D02*
X334900Y407750D01*
X404510D02*
X415760Y419000D01*
X334900Y407750D02*
X404510D01*
X378603Y430757D02*
X390360Y419000D01*
X337293Y430757D02*
X378603D01*
X317250Y450800D02*
Y556500D01*
Y450800D02*
X337293Y430757D01*
X582310Y414340D02*
Y452560D01*
X607060Y477310D01*
Y414990D02*
Y458060D01*
X475842Y469156D02*
X476608Y469922D01*
X478812D02*
X507000Y498110D01*
X476608Y469922D02*
X478812D01*
X507000Y498110D02*
Y569861D01*
X518799Y581660D01*
X209750Y349050D02*
Y695972D01*
Y349050D02*
X259080Y299720D01*
X209750Y695972D02*
X228232Y714454D01*
X250181Y354658D02*
Y648961D01*
X297180Y695960D01*
X274760Y329250D02*
X375500D01*
X250181Y354658D02*
X250181Y353829D01*
X274760Y329250D01*
X375500D02*
X404256Y358006D01*
Y398006D01*
X480500Y413961D02*
X490782Y403678D01*
X480500Y462720D02*
X511810Y494030D01*
X480500Y413961D02*
Y462720D01*
X490782Y394778D02*
X491960Y393600D01*
X490782Y394778D02*
Y403678D01*
X542979Y924510D02*
X543884Y925416D01*
X536172Y924510D02*
X542979D01*
X524661Y913000D02*
X536172Y924510D01*
X509140Y913000D02*
X524661D01*
X455930Y859790D02*
X509140Y913000D01*
X455930Y791210D02*
Y859790D01*
X543884Y925416D02*
X545650Y923650D01*
X364349Y392989D02*
X364960Y393600D01*
X364349Y344721D02*
Y392989D01*
X363739Y344110D02*
X364349Y344721D01*
X465972Y418412D02*
X466560Y419000D01*
X465972Y408922D02*
Y418412D01*
X454803Y397753D02*
X465972Y408922D01*
X441160Y776440D02*
X455930Y791210D01*
X441160Y444400D02*
Y776440D01*
X488950Y866950D02*
X520250Y898250D01*
X488950Y782320D02*
Y866950D01*
X502920Y855520D02*
X520250Y872850D01*
X502920Y629920D02*
Y855520D01*
X455010Y461087D02*
Y748380D01*
X488950Y782320D01*
X486600Y613600D02*
X502920Y629920D01*
X632460Y414990D02*
X637110Y410340D01*
Y400850D02*
Y410340D01*
Y400850D02*
X644360Y393600D01*
X545650Y796650D02*
X546560Y797560D01*
X566400Y395360D02*
X568160Y393600D01*
X566400Y395360D02*
Y404850D01*
X556910Y414340D02*
X566400Y404850D01*
X556910Y414340D02*
Y454040D01*
X562610Y459740D01*
X577850D01*
X589280Y471170D01*
X545650Y720450D02*
X569870D01*
X589280Y701040D01*
Y471170D02*
Y701040D01*
X496570Y595170D02*
X520250Y618850D01*
X496570Y505460D02*
Y595170D01*
X466560Y444400D02*
X467010Y444850D01*
Y475900D01*
X496570Y505460D01*
X455010Y461087D02*
X455310Y460787D01*
Y407750D02*
Y460787D01*
X441160Y393600D02*
X455310Y407750D01*
X554923Y638877D02*
X557530Y636270D01*
X554622Y638877D02*
X554923D01*
X549249Y644250D02*
X554622Y638877D01*
X545650Y644250D02*
X549249D01*
X557530Y495202D02*
Y636270D01*
X556358Y494030D02*
X557530Y495202D01*
X511810Y494030D02*
X556358D01*
X533883Y607083D02*
X545650Y618850D01*
X533883Y585953D02*
Y607083D01*
X518799Y581660D02*
X529590D01*
X533883Y585953D01*
X657860Y414990D02*
Y462280D01*
Y414990D02*
X662510Y410340D01*
Y400850D02*
Y410340D01*
Y400850D02*
X669760Y393600D01*
X545650Y822050D02*
X546560Y822960D01*
X585770Y401390D02*
Y410880D01*
Y401390D02*
X593560Y393600D01*
X582310Y414340D02*
X585770Y410880D01*
X683260Y414990D02*
X687910Y410340D01*
Y400850D02*
Y410340D01*
Y400850D02*
X695160Y393600D01*
X506110Y414340D02*
X515600Y404850D01*
Y395360D02*
Y404850D01*
Y395360D02*
X517360Y393600D01*
X545650Y669650D02*
X567690Y647610D01*
Y487680D02*
Y647610D01*
X563880Y483870D02*
X567690Y487680D01*
X506110Y414340D02*
Y473090D01*
X516890Y483870D01*
X563880D01*
X607060Y414990D02*
X611710Y410340D01*
Y400850D02*
Y410340D01*
Y400850D02*
X618960Y393600D01*
X545650Y771250D02*
X546010Y770890D01*
X486600Y510730D02*
Y613600D01*
X461010Y485140D02*
X486600Y510730D01*
X461010Y463550D02*
Y485140D01*
X541000Y395360D02*
X542760Y393600D01*
X541000Y395360D02*
Y404850D01*
X528958Y416892D02*
X541000Y404850D01*
X528958Y416892D02*
Y465458D01*
X545650Y695050D02*
X559710D01*
X576580Y678180D01*
Y480060D02*
Y678180D01*
X532130Y468630D02*
X565150D01*
X528958Y465458D02*
X532130Y468630D01*
X565150D02*
X576580Y480060D01*
X454803Y379873D02*
Y397753D01*
X413493Y407243D02*
X429403D01*
X441160Y419000D01*
X374650Y299720D02*
X454803Y379873D01*
X404256Y398006D02*
X413493Y407243D01*
X259080Y299720D02*
X374650D01*
D45*
X398000Y1004000D02*
X500750D01*
X386500D02*
X398000D01*
D46*
X755900Y902850D02*
X852000Y806750D01*
X794142Y301400D02*
X852000Y359258D01*
X758758Y909750D02*
X858900Y809608D01*
Y356400D02*
Y809608D01*
X852000Y359258D02*
Y806750D01*
X797000Y294500D02*
X858900Y356400D01*
X825650Y384056D02*
Y695944D01*
X735000Y882000D02*
X825750Y791250D01*
X832550Y386914D02*
X832650Y386814D01*
Y372150D02*
Y386814D01*
X832550Y693086D02*
X832650Y693186D01*
X777892Y327150D02*
X825750Y375008D01*
Y696044D02*
Y791250D01*
X825650Y384056D02*
X825750Y383956D01*
X737858Y888900D02*
X832650Y794108D01*
X832550Y386914D02*
Y693086D01*
X832650Y693186D02*
Y794108D01*
X780750Y320250D02*
X832650Y372150D01*
X825750Y375008D02*
Y383956D01*
X825650Y695944D02*
X825750Y696044D01*
X728900Y779858D02*
X805910Y702848D01*
Y386910D02*
Y702848D01*
X762250Y343250D02*
X805910Y386910D01*
X799010Y389768D02*
Y699990D01*
X722000Y777000D02*
X799010Y699990D01*
X759392Y350150D02*
X799010Y389768D01*
X635750Y882000D02*
X735000D01*
X646250Y888900D02*
X737858D01*
X684000Y909750D02*
X758758D01*
X681142Y902850D02*
X755900D01*
X743060Y379448D02*
Y685239D01*
X749960Y376589D02*
Y688097D01*
X588150Y849907D02*
X749960Y688097D01*
X581250Y847049D02*
X743060Y685239D01*
X581250Y847049D02*
Y881793D01*
X588150Y849907D02*
Y878935D01*
X722000Y777000D02*
Y838078D01*
X728900Y779858D02*
Y840936D01*
X662986Y921006D02*
X681142Y902850D01*
X611256Y921006D02*
X662986D01*
X665844Y927906D02*
X684000Y909750D01*
X643107Y927906D02*
X665844D01*
X703828Y856250D02*
X722000Y838078D01*
X648735Y863150D02*
X706686D01*
X635750Y932800D02*
X638213D01*
X643107Y927906D01*
X691358Y327150D02*
X777892D01*
X662044Y356465D02*
X691358Y327150D01*
X647893Y356465D02*
X662044D01*
X625869Y382548D02*
X631660Y388340D01*
X625869Y378489D02*
Y382548D01*
Y378489D02*
X647893Y356465D01*
X631660Y388340D02*
Y406300D01*
X618960Y419000D02*
X631660Y406300D01*
X659185Y349565D02*
X688500Y320250D01*
X780750D01*
X645035Y349565D02*
X659185D01*
X606260Y388340D02*
X645035Y349565D01*
X606260Y388340D02*
Y406300D01*
X593560Y419000D02*
X606260Y406300D01*
X640450Y894700D02*
X646250Y888900D01*
X610350Y894700D02*
X640450D01*
X698090Y350150D02*
X759392D01*
X695232Y343250D02*
X762250D01*
X673210Y375030D02*
X698090Y350150D01*
X666310Y372172D02*
X695232Y343250D01*
X686334Y294500D02*
X797000D01*
X689192Y301400D02*
X794142D01*
X662432Y328160D02*
X689192Y301400D01*
X659574Y321260D02*
X686334Y294500D01*
X615622Y321260D02*
X659574D01*
X618480Y328160D02*
X662432D01*
X571610Y375030D02*
X618480Y328160D01*
X564710Y372172D02*
X615622Y321260D01*
X643926Y858341D02*
X648735Y863150D01*
X706686D02*
X728900Y840936D01*
X640149Y844806D02*
X651593Y856250D01*
X703828D01*
X611256Y844806D02*
X640149D01*
X610350Y843900D02*
X611256Y844806D01*
X635750Y856600D02*
X637491Y858341D01*
X643926D01*
X610350Y920100D02*
X611256Y921006D01*
X710467Y380900D02*
X722049D01*
X733320Y369630D01*
X707860Y383507D02*
Y406300D01*
X743000Y369630D02*
X749960Y376589D01*
X733320Y369630D02*
X743000D01*
X733260Y379448D02*
X736130Y376577D01*
X740190D01*
X733260Y379448D02*
Y406300D01*
X740190Y376577D02*
X743060Y379448D01*
X592403Y883188D02*
X596462D01*
X588150Y878935D02*
X592403Y883188D01*
X596462D02*
X610350Y869300D01*
X581250Y881793D02*
X606857Y907400D01*
X707860Y383507D02*
X710467Y380900D01*
X695160Y419000D02*
X707860Y406300D01*
X720560Y419000D02*
X733260Y406300D01*
X606857Y907400D02*
X635750D01*
X673210Y379090D02*
X682460Y388340D01*
X673210Y375030D02*
Y379090D01*
X542760Y419000D02*
X555460Y406300D01*
X564710Y372172D02*
Y379090D01*
X555460Y388340D02*
X564710Y379090D01*
X555460Y388340D02*
Y406300D01*
X568160Y419000D02*
X580320Y406840D01*
Y399400D02*
Y406840D01*
Y399400D02*
X580860Y398861D01*
Y388340D02*
Y398861D01*
X571610Y379090D02*
X580860Y388340D01*
X571610Y375030D02*
Y379090D01*
X666310Y372172D02*
Y379090D01*
X669760Y419000D02*
X682460Y406300D01*
Y388340D02*
Y406300D01*
X657060Y388340D02*
X666310Y379090D01*
X657060Y388340D02*
Y406300D01*
X644360Y419000D02*
X657060Y406300D01*
X371311Y894879D02*
X377976D01*
X369570Y896620D02*
X371311Y894879D01*
X377976D02*
X381020Y891835D01*
Y818292D02*
Y891835D01*
X364827Y908070D02*
X382588D01*
X355620Y869970D02*
Y898863D01*
X387920Y815434D02*
Y902738D01*
X382588Y908070D02*
X387920Y902738D01*
X355620Y898863D02*
X364827Y908070D01*
X344170Y858520D02*
X355620Y869970D01*
X342429Y907579D02*
X344170Y909320D01*
X339090Y922020D02*
X369570D01*
X334407Y907579D02*
X342429D01*
X415760Y444400D02*
Y622714D01*
X376470Y662004D02*
X415760Y622714D01*
X376470Y662004D02*
Y803984D01*
X387920Y815434D01*
X369570Y806842D02*
X381020Y818292D01*
X369570Y659146D02*
Y806842D01*
Y659146D02*
X408860Y619855D01*
Y455461D02*
Y619855D01*
X400019Y446620D02*
X408860Y455461D01*
X392580Y446620D02*
X400019D01*
X390360Y444400D02*
X392580Y446620D01*
X332720Y905892D02*
X334407Y907579D01*
X332720Y678864D02*
Y905892D01*
Y678864D02*
X346460Y665124D01*
Y462900D02*
Y665124D01*
Y462900D02*
X364960Y444400D01*
X325820Y908750D02*
X339090Y922020D01*
X325820Y676005D02*
Y908750D01*
Y676005D02*
X339560Y662265D01*
Y444400D02*
Y662265D01*
D47*
Y419000D02*
D03*
X364960D02*
D03*
X517360Y444400D02*
D03*
X542760D02*
D03*
X568160D02*
D03*
X593560D02*
D03*
X618960D02*
D03*
X644360D02*
D03*
X669760D02*
D03*
X695160D02*
D03*
X720560D02*
D03*
X618960Y419000D02*
D03*
X593560D02*
D03*
X720560D02*
D03*
X695160D02*
D03*
X669760D02*
D03*
X644360D02*
D03*
X568160D02*
D03*
X415760Y393600D02*
D03*
X390360D02*
D03*
X415760Y419000D02*
D03*
X390360D02*
D03*
X415760Y444400D02*
D03*
X390360D02*
D03*
X542760Y419000D02*
D03*
X695160Y393600D02*
D03*
X669760D02*
D03*
X644360D02*
D03*
X618960D02*
D03*
X593560D02*
D03*
X568160D02*
D03*
X542760D02*
D03*
X517360D02*
D03*
X491960D02*
D03*
X466560D02*
D03*
X441160D02*
D03*
X339560D02*
D03*
X517360Y419000D02*
D03*
X491960D02*
D03*
Y444400D02*
D03*
X466560D02*
D03*
X441160D02*
D03*
X466560Y419000D02*
D03*
X441160D02*
D03*
X364960Y444400D02*
D03*
X339560D02*
D03*
X364960Y393600D02*
D03*
D48*
X520250Y923650D02*
D03*
X545650Y898250D02*
D03*
X520250Y847450D02*
D03*
Y822050D02*
D03*
Y796650D02*
D03*
Y771250D02*
D03*
Y745850D02*
D03*
Y720450D02*
D03*
Y695050D02*
D03*
Y669650D02*
D03*
Y644250D02*
D03*
X545650Y568050D02*
D03*
Y593450D02*
D03*
X520250Y542650D02*
D03*
Y568050D02*
D03*
Y593450D02*
D03*
X545650Y542650D02*
D03*
X520250Y517250D02*
D03*
X545650Y999850D02*
D03*
Y974450D02*
D03*
Y949050D02*
D03*
X520250Y999850D02*
D03*
Y974450D02*
D03*
Y949050D02*
D03*
X545650Y822050D02*
D03*
Y644250D02*
D03*
Y745850D02*
D03*
X520250Y898250D02*
D03*
X545650Y618850D02*
D03*
Y669650D02*
D03*
Y923650D02*
D03*
Y847450D02*
D03*
Y771250D02*
D03*
Y695050D02*
D03*
Y796650D02*
D03*
X520250Y618850D02*
D03*
X545650Y720450D02*
D03*
X520250Y872850D02*
D03*
X545650D02*
D03*
D49*
X882000Y404830D02*
D03*
D50*
X545650Y517250D02*
D03*
D51*
X932000Y404830D02*
D03*
D52*
X635750Y882000D02*
D03*
X610350Y894700D02*
D03*
X635750Y932800D02*
D03*
X610350Y920100D02*
D03*
X635750Y907400D02*
D03*
X610350Y869300D02*
D03*
X740350Y825350D02*
D03*
Y850250D02*
D03*
Y926450D02*
D03*
Y951350D02*
D03*
X635750Y856600D02*
D03*
X610350Y843900D02*
D03*
X474170Y940570D02*
D03*
Y915670D02*
D03*
Y839470D02*
D03*
Y814570D02*
D03*
X344170Y833120D02*
D03*
X369570Y845820D02*
D03*
X344170Y858520D02*
D03*
X369570Y871220D02*
D03*
X344170Y883920D02*
D03*
X369570Y896620D02*
D03*
X344170Y909320D02*
D03*
X369570Y922020D02*
D03*
X651310Y58810D02*
D03*
Y301310D02*
D03*
X408810D02*
D03*
Y58810D02*
D03*
D53*
X660750Y967100D02*
D03*
Y809600D02*
D03*
X394570Y798820D02*
D03*
Y956320D02*
D03*
D54*
X720560Y393600D02*
D03*
D55*
X280060Y416000D02*
D03*
X780060D02*
D03*
D56*
X1008760Y472234D02*
D03*
X1026500Y689750D02*
D03*
Y629750D02*
D03*
X1041500Y599750D02*
D03*
X1026500Y569750D02*
D03*
X1041500Y479750D02*
D03*
X1026500Y449750D02*
D03*
X1041500Y419750D02*
D03*
X1011500Y719750D02*
D03*
X996500Y689750D02*
D03*
X1011500Y659750D02*
D03*
X996500Y629750D02*
D03*
X1011500Y599750D02*
D03*
X996500Y569750D02*
D03*
Y509750D02*
D03*
X1011500Y479750D02*
D03*
X996500Y449750D02*
D03*
X1011500Y419750D02*
D03*
X996500Y329750D02*
D03*
X981500Y719750D02*
D03*
X966500Y689750D02*
D03*
X981500Y659750D02*
D03*
X966500Y629750D02*
D03*
X981500Y599750D02*
D03*
X966500Y569750D02*
D03*
X981500Y539750D02*
D03*
Y479750D02*
D03*
Y419750D02*
D03*
X936500Y689750D02*
D03*
X951500Y659750D02*
D03*
X936500Y629750D02*
D03*
X951500Y599750D02*
D03*
X936500Y569750D02*
D03*
X951500Y539750D02*
D03*
X936500Y509750D02*
D03*
X951500Y359750D02*
D03*
X921500Y719750D02*
D03*
X906500Y689750D02*
D03*
X921500Y659750D02*
D03*
X906500Y629750D02*
D03*
X921500Y599750D02*
D03*
Y539750D02*
D03*
Y359750D02*
D03*
X906500Y329750D02*
D03*
X891500Y899750D02*
D03*
X876500Y869750D02*
D03*
X891500Y719750D02*
D03*
Y659750D02*
D03*
X876500Y569750D02*
D03*
X891500Y539750D02*
D03*
X876500Y449750D02*
D03*
Y329750D02*
D03*
X891500Y299750D02*
D03*
X876500Y269750D02*
D03*
Y209750D02*
D03*
X891500Y179750D02*
D03*
X876500Y149750D02*
D03*
X846500Y929750D02*
D03*
X861500Y899750D02*
D03*
X846500Y869750D02*
D03*
X861500Y839750D02*
D03*
X846500Y329750D02*
D03*
X861500Y299750D02*
D03*
X846500Y269750D02*
D03*
Y209750D02*
D03*
X861500Y179750D02*
D03*
X846500Y149750D02*
D03*
X816500Y929750D02*
D03*
X831500Y899750D02*
D03*
X816500Y749750D02*
D03*
Y689750D02*
D03*
Y629750D02*
D03*
Y569750D02*
D03*
Y389750D02*
D03*
X831500Y359750D02*
D03*
Y299750D02*
D03*
X816500Y269750D02*
D03*
X831500Y239750D02*
D03*
X816500Y209750D02*
D03*
X831500Y179750D02*
D03*
X816500Y149750D02*
D03*
X831500Y119750D02*
D03*
X801500Y959750D02*
D03*
X786500Y929750D02*
D03*
X801500Y839750D02*
D03*
X786500Y809750D02*
D03*
Y749750D02*
D03*
X801500Y719750D02*
D03*
X786500Y689750D02*
D03*
Y629750D02*
D03*
Y569750D02*
D03*
Y449750D02*
D03*
Y389750D02*
D03*
Y269750D02*
D03*
X801500Y239750D02*
D03*
X786500Y209750D02*
D03*
X801500Y179750D02*
D03*
X786500Y149750D02*
D03*
X801500Y119750D02*
D03*
X786500Y89750D02*
D03*
X756500Y989750D02*
D03*
X771500Y959750D02*
D03*
X756500Y929750D02*
D03*
Y809750D02*
D03*
X771500Y779750D02*
D03*
Y659750D02*
D03*
Y599750D02*
D03*
Y539750D02*
D03*
X756500Y269750D02*
D03*
X771500Y239750D02*
D03*
X756500Y209750D02*
D03*
X771500Y179750D02*
D03*
X756500Y149750D02*
D03*
X771500Y119750D02*
D03*
X756500Y89750D02*
D03*
X726500Y989750D02*
D03*
Y929750D02*
D03*
Y869750D02*
D03*
X741500Y779750D02*
D03*
X726500Y749750D02*
D03*
X741500Y359750D02*
D03*
X726500Y269750D02*
D03*
X741500Y239750D02*
D03*
X726500Y209750D02*
D03*
X741500Y179750D02*
D03*
X726500Y149750D02*
D03*
X741500Y119750D02*
D03*
X726500Y89750D02*
D03*
X741500Y59750D02*
D03*
X711500Y1019750D02*
D03*
X696500Y989750D02*
D03*
Y809750D02*
D03*
X711500Y779750D02*
D03*
Y659750D02*
D03*
Y599750D02*
D03*
Y539750D02*
D03*
Y359750D02*
D03*
X696500Y269750D02*
D03*
X711500Y239750D02*
D03*
X696500Y209750D02*
D03*
X711500Y179750D02*
D03*
X696500Y149750D02*
D03*
X711500Y119750D02*
D03*
X696500Y89750D02*
D03*
X711500Y59750D02*
D03*
X681500Y1019750D02*
D03*
X666500Y989750D02*
D03*
X681500Y959750D02*
D03*
Y779750D02*
D03*
X666500Y569750D02*
D03*
Y269750D02*
D03*
X681500Y239750D02*
D03*
Y179750D02*
D03*
Y119750D02*
D03*
X666500Y89750D02*
D03*
X681500Y59750D02*
D03*
X666500Y29750D02*
D03*
X651500Y1019750D02*
D03*
X636500Y989750D02*
D03*
X651500Y899750D02*
D03*
X636500Y869750D02*
D03*
X651500Y839750D02*
D03*
X636500Y569750D02*
D03*
Y29750D02*
D03*
X621500Y359750D02*
D03*
Y299750D02*
D03*
Y59750D02*
D03*
X606500Y29750D02*
D03*
X591500Y1019750D02*
D03*
Y959750D02*
D03*
X576500Y689750D02*
D03*
Y329750D02*
D03*
Y29750D02*
D03*
X561500Y899750D02*
D03*
Y779750D02*
D03*
Y359750D02*
D03*
X546500Y329750D02*
D03*
Y29750D02*
D03*
X531500Y839750D02*
D03*
X516500Y809750D02*
D03*
X531500Y779750D02*
D03*
Y359750D02*
D03*
X516500Y329750D02*
D03*
Y29750D02*
D03*
X486500Y749750D02*
D03*
Y329750D02*
D03*
Y29750D02*
D03*
X471500Y1019750D02*
D03*
Y959750D02*
D03*
X456500Y929750D02*
D03*
X471500Y899750D02*
D03*
X456500Y869750D02*
D03*
X471500Y599750D02*
D03*
X456500Y329750D02*
D03*
Y29750D02*
D03*
X441500Y1019750D02*
D03*
Y959750D02*
D03*
Y899750D02*
D03*
X426500Y869750D02*
D03*
Y689750D02*
D03*
Y629750D02*
D03*
Y329750D02*
D03*
X441500Y299750D02*
D03*
Y59750D02*
D03*
X426500Y29750D02*
D03*
X411500Y1019750D02*
D03*
Y959750D02*
D03*
X396500Y929750D02*
D03*
X411500Y899750D02*
D03*
X396500Y869750D02*
D03*
X411500Y839750D02*
D03*
X396500Y749750D02*
D03*
Y509750D02*
D03*
Y269750D02*
D03*
Y89750D02*
D03*
Y29750D02*
D03*
X381500Y1019750D02*
D03*
Y599750D02*
D03*
Y539750D02*
D03*
X366500Y509750D02*
D03*
X381500Y479750D02*
D03*
X366500Y269750D02*
D03*
X381500Y239750D02*
D03*
X366500Y209750D02*
D03*
X381500Y179750D02*
D03*
X366500Y149750D02*
D03*
X381500Y119750D02*
D03*
X366500Y89750D02*
D03*
X381500Y59750D02*
D03*
X351500Y1019750D02*
D03*
X336500Y989750D02*
D03*
X351500Y779750D02*
D03*
X336500Y269750D02*
D03*
X351500Y239750D02*
D03*
X336500Y209750D02*
D03*
X351500Y179750D02*
D03*
X336500Y149750D02*
D03*
X351500Y119750D02*
D03*
X336500Y89750D02*
D03*
X351500Y59750D02*
D03*
X306500Y989750D02*
D03*
X321500Y959750D02*
D03*
X306500Y929750D02*
D03*
X321500Y599750D02*
D03*
Y359750D02*
D03*
X306500Y269750D02*
D03*
X321500Y239750D02*
D03*
Y179750D02*
D03*
X306500Y149750D02*
D03*
X321500Y119750D02*
D03*
Y59750D02*
D03*
X291500Y899750D02*
D03*
X276500Y869750D02*
D03*
Y809750D02*
D03*
Y689750D02*
D03*
X291500Y659750D02*
D03*
X276500Y449750D02*
D03*
Y389750D02*
D03*
Y269750D02*
D03*
X291500Y239750D02*
D03*
X276500Y209750D02*
D03*
X291500Y179750D02*
D03*
X276500Y149750D02*
D03*
X246500Y929750D02*
D03*
X261500Y899750D02*
D03*
X246500Y869750D02*
D03*
X261500Y839750D02*
D03*
X246500Y809750D02*
D03*
Y749750D02*
D03*
X261500Y479750D02*
D03*
X246500Y329750D02*
D03*
Y269750D02*
D03*
X261500Y239750D02*
D03*
X246500Y209750D02*
D03*
X261500Y179750D02*
D03*
X246500Y149750D02*
D03*
X231500Y959750D02*
D03*
X216500Y929750D02*
D03*
X231500Y899750D02*
D03*
X216500Y869750D02*
D03*
X231500Y839750D02*
D03*
X216500Y809750D02*
D03*
X231500Y779750D02*
D03*
X216500Y749750D02*
D03*
Y509750D02*
D03*
Y449750D02*
D03*
Y389750D02*
D03*
X231500Y359750D02*
D03*
X216500Y329750D02*
D03*
X231500Y299750D02*
D03*
X216500Y269750D02*
D03*
X231500Y239750D02*
D03*
X216500Y209750D02*
D03*
X231500Y179750D02*
D03*
X216500Y149750D02*
D03*
X231500Y119750D02*
D03*
X201500Y899750D02*
D03*
X186500Y869750D02*
D03*
X201500Y839750D02*
D03*
Y779750D02*
D03*
X186500Y749750D02*
D03*
X201500Y719750D02*
D03*
X186500Y689750D02*
D03*
X201500Y659750D02*
D03*
Y599750D02*
D03*
X186500Y569750D02*
D03*
X201500Y539750D02*
D03*
X186500Y509750D02*
D03*
X201500Y479750D02*
D03*
X186500Y449750D02*
D03*
X201500Y419750D02*
D03*
X186500Y389750D02*
D03*
X201500Y359750D02*
D03*
X186500Y329750D02*
D03*
X201500Y299750D02*
D03*
X186500Y269750D02*
D03*
X201500Y239750D02*
D03*
X186500Y209750D02*
D03*
X201500Y179750D02*
D03*
X186500Y149750D02*
D03*
X171500Y899750D02*
D03*
X156500Y749750D02*
D03*
X171500Y719750D02*
D03*
X156500Y689750D02*
D03*
X171500Y659750D02*
D03*
X156500Y629750D02*
D03*
X171500Y599750D02*
D03*
X156500Y569750D02*
D03*
X171500Y539750D02*
D03*
X156500Y509750D02*
D03*
X171500Y479750D02*
D03*
X156500Y449750D02*
D03*
X171500Y419750D02*
D03*
X156500Y389750D02*
D03*
X171500Y359750D02*
D03*
X156500Y329750D02*
D03*
X171500Y299750D02*
D03*
Y179750D02*
D03*
X141500Y719750D02*
D03*
X126500Y689750D02*
D03*
X141500Y659750D02*
D03*
X126500Y629750D02*
D03*
X141500Y599750D02*
D03*
X126500Y569750D02*
D03*
X141500Y539750D02*
D03*
X126500Y509750D02*
D03*
X141500Y479750D02*
D03*
X126500Y449750D02*
D03*
X141500Y419750D02*
D03*
X126500Y389750D02*
D03*
X141500Y359750D02*
D03*
X111500Y659750D02*
D03*
X96500Y629750D02*
D03*
X111500Y599750D02*
D03*
X96500Y569750D02*
D03*
X111500Y539750D02*
D03*
X96500Y509750D02*
D03*
X111500Y479750D02*
D03*
X96500Y449750D02*
D03*
X111500Y419750D02*
D03*
Y359750D02*
D03*
X81500Y719750D02*
D03*
X66500Y629750D02*
D03*
X81500Y599750D02*
D03*
X66500Y569750D02*
D03*
X81500Y539750D02*
D03*
X66500Y509750D02*
D03*
X81500Y479750D02*
D03*
X66500Y449750D02*
D03*
X81500Y419750D02*
D03*
X66500Y329750D02*
D03*
X51500Y719750D02*
D03*
X36500Y629750D02*
D03*
X51500Y599750D02*
D03*
X36500Y569750D02*
D03*
X51500Y539750D02*
D03*
X36500Y509750D02*
D03*
X51500Y479750D02*
D03*
X36500Y449750D02*
D03*
X51500Y419750D02*
D03*
X905750Y360500D02*
D03*
X815500Y595500D02*
D03*
X815750Y653250D02*
D03*
X815500Y446750D02*
D03*
X773000Y869750D02*
D03*
X827750Y815500D02*
D03*
X842500Y691500D02*
D03*
X842250Y610250D02*
D03*
X842000Y447750D02*
D03*
X384000Y1007250D02*
D03*
X398000D02*
D03*
X391000D02*
D03*
X398000Y999000D02*
D03*
X391000D02*
D03*
X384000D02*
D03*
X313690Y586740D02*
D03*
X317250Y556500D02*
D03*
X475842Y469156D02*
D03*
X363739Y344110D02*
D03*
X297180Y695960D02*
D03*
X461010Y463550D02*
D03*
X228232Y714454D02*
D03*
D57*
X250181Y354658D02*
D03*
M02*
