M48
;Layer_Color=9474304
;FILE_FORMAT=4:4
METRIC,LZ
;TYPE=PLATED
T01F00S00C0.3000
T02F00S00C0.9000
T03F00S00C1.0000
T04F00S00C1.0200
T05F00S00C1.6000
T06F00S00C1.7000
;TYPE=NON_PLATED
T07F00S00C2.8000
T08F00S00C3.0000
T09F00S00C3.2000
T10F00S00C28.0000
%
T01
X002075Y001175
X002375
X002525Y001475
X002825
X003125
X003425
X003725
X003875Y001175
X003575
X003275
X003425Y000875
X003725
X003875Y000575
X003575
X003275
Y001775
X003575
X003725Y002075
X003425
X003125
X002825
X002525
X002225
X001925
X002075Y002375
X002375
X002675
X002975
X003275
X003575
X003875
X003725Y002675
X003425
X003125
X002825
X002525
X002225
X001925
X002075Y002975
X002375
X002525Y003275
X002225
X001925
X001625
X001775Y003575
X001475
X001175
X001325Y003875
X001625
X001925
X002225
X002375Y003575
X002675
X002825Y003875
X003275Y003575
X003575
X00363739Y0034411
X003875Y003575
Y002975
X002975Y001775
X002675
X002375
X002075
X001775
X001925Y001475
X002225
X001775Y002975
X004025Y002675
X004325Y003275
X004625
X004925
X005225
X005525
X005825
X005675Y003575
X005375
X005075
X004775
X004475
X004175
X006275Y002975
X006725Y002675
X007025
X007325
X007625
X007925
X007775Y002375
X007475
X007175
X006875
X007025Y002075
X007325
X007625
X007925
X007775Y001775
X007475
X007175
X006875
X007025Y001475
X007325
X007625
X007925
X007775Y001175
X007475
X007175
X006875
X007025Y000875
X007325
X007625
X007925
X007475Y000575
X007175
X006875
X006725Y000875
X006425
X006275Y000575
X006425Y000275
X006725
X006125
X005825
X005525
X005225
X004925
X004625
X004325
X004025
Y000875
X004475Y000575
X006725Y001475
X007625Y003875
X008375Y003575
X008675
X0090575Y003605
X009275Y003575
X009575
X010025Y003275
X010325Y003875
X009125Y003275
X008825
X008525
X008675Y002975
X008375
X008525Y002675
X008225
X008375Y002375
X008075
X008225Y002075
X008525
X008675Y001775
X008975
X008825Y001475
X008525
X008225
X008375Y001775
X008075
Y001175
X008375
X008675Y004175
X008975
X008825Y004475
X00842Y0044775
X008155Y0044675
X008675Y005375
X008975
X009275
X009575
X009875
X010025Y005675
X010325
X010475Y005975
X010175
X009875
X009575
X009275
X009425Y006275
X009725
X010025
X010325
X010175Y006575
X009875
X009575
X009275
X008975
X008675
X0081575Y0065325
X008155Y005955
X0084225Y0061025
X008425Y006915
X008675Y007175
X008975
X009125Y006875
X009425
X009725
X010025
X010175Y007175
X009875
X009725Y005675
X009425
Y005075
X0100876Y00472234
X010175Y004775
X010475
X010325Y004475
X010025
X010175Y004175
X009875
X008825Y005675
X009125Y006275
X008675Y007775
X007775
X007475
X007325Y007475
X007925
X007625Y006875
X007775Y006575
X007625Y006275
X007325
X007175Y006575
Y005975
X006875
Y005375
X007175
X007325Y005675
X007625
X007775Y005975
Y005375
X007625Y004475
X006425Y005675
X005975Y005375
Y006575
X005675
X005825Y006875
X006275Y007175
X006875Y007775
X005675
X004925Y007475
X004775Y007175
Y006575
X004475
X004625Y006275
X004325
Y006875
Y005675
Y005075
X0046101Y00463
X00488647Y00479353
X004775Y005975
X003875
Y005375
X003725Y005075
X003875Y004775
X003575
X002675
X002825Y004475
X002225
X001925
X001625
X001325
X001025
X000725
X000425
X000575Y004775
X000875
X001175
X001475
X001775
X001925Y005075
X002225
X001625
X001325
X001025
X000725
X000425
X000575Y005375
X000875
X001175
X001475
X001775
X001925Y005675
X001625
X001325
X001025
X000725
X000425
X000575Y005975
X000875
X001175
X001475
X001775
X001625Y006275
X001325
X001025
X000725
X000425
X001175Y006575
X001475
X001625Y006875
X001925
X001775Y007175
X001475
X001625Y007475
X001925
X002225
X002525
X002375Y007775
X002075
X001775
X00228232Y00714454
X002375Y006575
X002975
X0029718Y0069596
X002975Y007175
X003425Y007475
X003575Y007775
X003875
X003425Y006875
X0031369Y0058674
X0031725Y005565
X002375Y005975
X001325Y006875
X000875Y007175
X000575
Y004175
X000875
X001175
X001475
X001775
X002225Y008075
X002525
X002825
X002675Y008375
X002375
X002075
X002225Y008675
X002525
X002825
X002975Y008975
X002675
X002375
X002075
X001775
X001925Y009275
X002225
X002525
X002375Y009575
X003275
X003425Y009875
X003125
X003575Y010175
X00384Y0100725
X00391
Y00999
X00384
X003575Y008375
X003425Y008075
X001925Y008675
X004025
X004325
X004475Y008975
X004775
X004625Y009275
X004775Y009575
X004475
X004175
X004325Y009875
X004625
X004025
X00398Y00999
Y0100725
X004025Y009275
X004175Y008975
Y008375
X004475
X004625Y008075
X005525
X005375Y008375
X005675Y008975
X005825Y009275
X005975Y009575
Y010175
X006575
X006875
X007175
X007325Y009875
X007625
X007775Y009575
X007925Y009275
X007625
X00773Y0086975
X007325Y008675
X007475Y008375
X007625Y008075
X007925
X007025
X006425
X006575Y008375
Y008975
X006725Y009875
X007025
X007175Y009575
X006425Y009875
X008075Y009575
X008225Y009275
X008525
X008675Y008975
X008975
X008825Y008675
X008525
X008225
X008375Y008975
X008075
X0082775Y008155
T02
X0034417Y0083312
Y0085852
Y0088392
Y0090932
X0036957Y0089662
Y0087122
Y0084582
Y0092202
X0047417Y0091567
Y0094057
Y0083947
Y0081457
X0061035Y008439
Y008693
Y008947
Y009201
X0063575Y009074
Y009328
Y00882
Y008566
X0074035Y0085025
Y0082535
Y0092645
Y0095135
T03
X0033956Y003936
X0036496
X0039036
X0041576
X0044116
X0046656
X0049196
X0051736
X0054276
X0056816
X0059356
X0061896
X0064436
X0066976
X0069516
X0072056
Y00419
X0069516
X0066976
X0064436
X0061896
X0059356
X0056816
X0054276
X0051736
X0049196
X0046656
X0044116
Y004444
X0046656
X0049196
X0051736
X0054276
X0056816
X0059356
X0061896
X0064436
X0066976
X0069516
X0072056
X0041576
Y00419
X0039036
Y004444
X0036496
X0033956
Y00419
X0036496
T04
X0052025Y0051725
Y0054265
Y0056805
X0054565
Y0059345
X0052025
Y0061885
Y0064425
Y0066965
Y0069505
Y0072045
Y0074585
Y0077125
X0054565
Y0074585
Y0072045
Y0069505
Y0066965
Y0064425
Y0061885
Y0054265
Y0051725
Y0079665
X0052025
Y0082205
Y0084745
X0054565
Y0082205
Y0087285
Y0089825
X0052025
Y0092365
Y0094905
X0054565
Y0097445
Y0099985
X0052025
Y0097445
X0054565Y0092365
X0052025Y0087285
T05
X0039457Y0079882
Y0095632
X0066075Y009671
Y008096
T06
X00882Y0040483
X00932
T07
X0078006Y00416
X0028006
T08
X0040881Y0005881
X0065131
Y0030131
X0040881
T09
X00280067Y00097051
X00068846Y00380064
X00991288
X01030067Y00530064
X00068842Y00678064
X00280067Y00963076
X0043307Y0093472
Y0082042
X0069925Y008312
Y009455
T10
X0053006Y0018006
M30
