G04*
G04 #@! TF.GenerationSoftware,Altium Limited,Altium Designer,25.5.2 (35)*
G04*
G04 Layer_Color=32896*
%FSLAX44Y44*%
%MOMM*%
G71*
G04*
G04 #@! TF.SameCoordinates,D2046EA4-9D5B-47F5-8153-158F0B1C5282*
G04*
G04*
G04 #@! TF.FilePolarity,Positive*
G04*
G01*
G75*
%ADD10C,0.3000*%
%ADD12C,0.1270*%
%ADD13C,0.2000*%
%ADD14C,0.2540*%
G36*
X451458Y969000D02*
X448045D01*
X444280Y979144D01*
X447459D01*
X449722Y971829D01*
X452024Y979144D01*
X455282D01*
X451458Y969000D01*
D02*
G37*
G36*
X465250D02*
X460607D01*
X460276Y969019D01*
X459963Y969039D01*
X459651Y969078D01*
X459359Y969137D01*
X459105Y969195D01*
X458910Y969234D01*
X458832Y969254D01*
X458774D01*
X458754Y969273D01*
X458735D01*
X458461Y969371D01*
X458188Y969488D01*
X457954Y969605D01*
X457740Y969741D01*
X457564Y969878D01*
X457428Y969975D01*
X457350Y970053D01*
X457311Y970073D01*
X457076Y970307D01*
X456862Y970561D01*
X456686Y970814D01*
X456550Y971048D01*
X456433Y971263D01*
X456335Y971419D01*
X456296Y971536D01*
X456277Y971575D01*
X456160Y971946D01*
X456062Y972355D01*
X456004Y972765D01*
X455945Y973175D01*
X455926Y973526D01*
Y973682D01*
X455906Y973818D01*
Y973935D01*
Y974013D01*
Y974072D01*
Y974091D01*
X455926Y974482D01*
X455945Y974833D01*
X455984Y975164D01*
X456023Y975457D01*
X456082Y975711D01*
X456121Y975906D01*
X456140Y976023D01*
X456160Y976042D01*
Y976062D01*
X456277Y976393D01*
X456394Y976705D01*
X456530Y976978D01*
X456667Y977232D01*
X456784Y977408D01*
X456881Y977564D01*
X456959Y977642D01*
X456979Y977681D01*
X457193Y977934D01*
X457428Y978149D01*
X457662Y978324D01*
X457876Y978481D01*
X458091Y978597D01*
X458247Y978695D01*
X458344Y978734D01*
X458364Y978754D01*
X458383D01*
X458715Y978890D01*
X459086Y978988D01*
X459456Y979046D01*
X459808Y979105D01*
X460120Y979124D01*
X460256D01*
X460373Y979144D01*
X465250D01*
Y969000D01*
D02*
G37*
G36*
X443246D02*
X435228D01*
Y971497D01*
X440105D01*
Y979144D01*
X443246D01*
Y969000D01*
D02*
G37*
%LPC*%
G36*
X462109Y976842D02*
X461329D01*
X460900Y976822D01*
X460549Y976744D01*
X460256Y976647D01*
X460003Y976549D01*
X459827Y976432D01*
X459690Y976335D01*
X459612Y976257D01*
X459593Y976237D01*
X459495Y976120D01*
X459417Y975984D01*
X459281Y975652D01*
X459183Y975281D01*
X459105Y974911D01*
X459066Y974579D01*
Y974423D01*
X459047Y974286D01*
Y974189D01*
Y974111D01*
Y974052D01*
Y974033D01*
X459066Y973604D01*
X459086Y973253D01*
X459125Y972940D01*
X459164Y972706D01*
X459222Y972511D01*
X459261Y972375D01*
X459281Y972297D01*
X459300Y972277D01*
X459398Y972082D01*
X459495Y971926D01*
X459612Y971789D01*
X459710Y971692D01*
X459808Y971614D01*
X459866Y971555D01*
X459925Y971536D01*
X459944Y971516D01*
X460120Y971438D01*
X460334Y971399D01*
X460802Y971321D01*
X461017D01*
X461193Y971302D01*
X462109D01*
Y976842D01*
D02*
G37*
%LPD*%
D10*
X721560Y358000D02*
G03*
X721560Y358000I-1500J0D01*
G01*
D12*
X928000Y368330D02*
X938000D01*
X933000Y363330D02*
Y373330D01*
X878000Y368330D02*
X888000D01*
D13*
X634750Y974350D02*
G03*
X636750Y974350I1000J0D01*
G01*
D02*
G03*
X634750Y974350I-1000J0D01*
G01*
X370570Y963570D02*
G03*
X368570Y963570I-1000J0D01*
G01*
D02*
G03*
X370570Y963570I1000J0D01*
G01*
X597750Y969100D02*
X639750D01*
X597750Y807600D02*
Y969100D01*
Y807600D02*
X639750D01*
X679750Y969100D02*
X764750D01*
Y807600D02*
Y969100D01*
X679750Y807600D02*
X764750D01*
X413570Y796820D02*
X498570D01*
Y958320D01*
X413570D02*
X498570D01*
X331570Y796820D02*
X373570D01*
X331570D02*
Y958320D01*
X373570D01*
X255060Y473000D02*
X805060D01*
Y365000D02*
Y473000D01*
X255060Y365000D02*
X805060D01*
X255060D02*
Y473000D01*
X354829Y976498D02*
X348164Y966502D01*
Y976498D02*
X354829Y966502D01*
X344832D02*
Y976498D01*
X339834D01*
X338168Y974832D01*
Y971500D01*
X339834Y969834D01*
X344832D01*
X328171Y976498D02*
X331503Y974832D01*
X334836Y971500D01*
Y968168D01*
X333169Y966502D01*
X329837D01*
X328171Y968168D01*
Y969834D01*
X329837Y971500D01*
X334836D01*
X559111Y832832D02*
X565775Y842828D01*
Y832832D02*
X559111Y842828D01*
X569108D02*
Y832832D01*
X574106D01*
X575772Y834498D01*
Y837830D01*
X574106Y839496D01*
X569108D01*
X585769Y832832D02*
X579104D01*
Y837830D01*
X582437Y836164D01*
X584103D01*
X585769Y837830D01*
Y841162D01*
X584103Y842828D01*
X580771D01*
X579104Y841162D01*
X804164Y491073D02*
X797499Y481076D01*
Y491073D02*
X804164Y481076D01*
X794167D02*
Y491073D01*
X789169D01*
X787503Y489407D01*
Y486074D01*
X789169Y484408D01*
X794167D01*
X777506Y481076D02*
X784170D01*
X777506Y487741D01*
Y489407D01*
X779172Y491073D01*
X782504D01*
X784170Y489407D01*
X938163Y446998D02*
X931498Y437002D01*
Y446998D02*
X938163Y437002D01*
X928166D02*
Y446998D01*
X923168D01*
X921502Y445332D01*
Y442000D01*
X923168Y440334D01*
X928166D01*
X918169Y437002D02*
X914837D01*
X916503D01*
Y446998D01*
X918169Y445332D01*
D14*
X958000Y378830D02*
Y430830D01*
X856000Y378830D02*
X958000D01*
X856000D02*
Y430830D01*
X958000D01*
M02*
