G04*
G04 #@! TF.GenerationSoftware,Altium Limited,Altium Designer,25.5.2 (35)*
G04*
G04 Layer_Color=32896*
%FSLAX44Y44*%
%MOMM*%
G71*
G04*
G04 #@! TF.SameCoordinates,2E8A04ED-EBE0-48DF-805F-0E855A1817FF*
G04*
G04*
G04 #@! TF.FilePolarity,Positive*
G04*
G01*
G75*
%ADD13C,0.2000*%
D13*
X190585Y809986D02*
G03*
X188537Y837573I-15431J12724D01*
G01*
X190585Y809986D02*
G03*
X136261Y726335I339475J-279922D01*
G01*
X150404Y899876D02*
G03*
X151348Y871058I14327J-13955D01*
G01*
X64510Y737340D02*
G03*
X37800Y726481I-8135J-18271D01*
G01*
X110226Y716986D02*
G03*
X136261Y726335I8135J18271D01*
G01*
X37800Y726481D02*
G03*
X37800Y333647I492260J-196417D01*
G01*
D02*
G03*
X64510Y322788I18576J7412D01*
G01*
X188537Y222555D02*
G03*
X190585Y250141I-13383J14863D01*
G01*
X136261Y333792D02*
G03*
X190585Y250141I393799J196271D01*
G01*
X136261Y333792D02*
G03*
X110226Y343142I-17900J-8921D01*
G01*
X151348Y189070D02*
G03*
X150404Y160252I13383J-14863D01*
G01*
X869535Y250141D02*
G03*
X871583Y222555I15431J-12724D01*
G01*
X909716Y160252D02*
G03*
X908772Y189070I-14327J13955D01*
G01*
X150404Y160252D02*
G03*
X909716Y160252I379656J369812D01*
G01*
X949893Y343142D02*
G03*
X923859Y333792I-8135J-18271D01*
G01*
X995610Y322788D02*
G03*
X1022320Y333647I8135J18271D01*
G01*
X869535Y250141D02*
G03*
X923859Y333792I-339475J279922D01*
G01*
X871583Y837573D02*
G03*
X869535Y809986I13383J-14863D01*
G01*
X908772Y871058D02*
G03*
X909716Y899876I-13383J14863D01*
G01*
X923859Y726335D02*
G03*
X869535Y809986I-393799J-196271D01*
G01*
X1022320Y726481D02*
G03*
X995610Y737340I-18576J-7412D01*
G01*
X923859Y726335D02*
G03*
X949893Y716986I17900J8921D01*
G01*
X1022320Y333647D02*
G03*
X1022320Y726481I-492260J196417D01*
G01*
X909716Y899876D02*
G03*
X150404Y899876I-379656J-369812D01*
G01*
X151348Y871058D02*
X188537Y837573D01*
X64510Y737340D02*
X110226Y716986D01*
X64510Y322788D02*
X110226Y343142D01*
X151348Y189070D02*
X188537Y222555D01*
X871583D02*
X908772Y189070D01*
X949893Y343142D02*
X995610Y322788D01*
X871583Y837573D02*
X908772Y871058D01*
X949893Y716986D02*
X995610Y737340D01*
M02*
