G04*
G04 #@! TF.GenerationSoftware,Altium Limited,Altium Designer,25.5.2 (35)*
G04*
G04 Layer_Physical_Order=1*
G04 Layer_Color=255*
%FSLAX44Y44*%
%MOMM*%
G71*
G04*
G04 #@! TF.SameCoordinates,F72C58DA-7479-44D0-9E82-083B63CA5D52*
G04*
G04*
G04 #@! TF.FilePolarity,Positive*
G04*
G01*
G75*
%ADD13C,0.2000*%
%ADD15R,2.5400X1.2700*%
%ADD16R,1.6500X3.4300*%
%ADD17R,0.9000X1.0500*%
%ADD18R,0.8000X0.9500*%
%ADD19R,1.2700X2.5400*%
%ADD20R,3.4300X1.6500*%
%ADD21R,0.9542X2.7062*%
%ADD22R,2.7062X0.9542*%
%ADD35C,2.5000*%
%ADD41C,0.6000*%
%ADD42C,1.2000*%
%ADD43C,2.5500*%
%ADD44C,1.5300*%
%ADD45C,1.6500*%
%ADD46R,2.5500X2.5500*%
%ADD47C,2.4000*%
%ADD48C,1.4000*%
%ADD49R,1.5300X1.5300*%
%ADD50R,1.6500X1.6500*%
%ADD51C,0.6000*%
G36*
X563889Y1056548D02*
X586369Y1054620D01*
X608746Y1051733D01*
X630980Y1047892D01*
X653028Y1043103D01*
X674852Y1037377D01*
X696411Y1030722D01*
X717666Y1023152D01*
X738578Y1014679D01*
X759107Y1005321D01*
X779219Y995093D01*
X798875Y984015D01*
X818038Y972106D01*
X836676Y959389D01*
X854752Y945887D01*
X872234Y931624D01*
X889091Y916626D01*
X905292Y900921D01*
X920805Y884539D01*
X928046Y876206D01*
X928142Y876041D01*
X928294Y875188D01*
X928145Y874335D01*
X927712Y873585D01*
X927381Y873307D01*
X927380Y873307D01*
X866101Y821887D01*
X866022Y821788D01*
X865917Y821717D01*
X865232Y821016D01*
X865027Y820703D01*
X864793Y820411D01*
X863892Y818680D01*
X863614Y817726D01*
X863444Y815782D01*
X863552Y814793D01*
X864139Y812933D01*
X864319Y812605D01*
X864466Y812260D01*
X865019Y811451D01*
X865109Y811363D01*
X865170Y811252D01*
X870385Y805037D01*
X880347Y792229D01*
X889827Y779060D01*
X898813Y765549D01*
X907291Y751713D01*
X915250Y737574D01*
X922680Y723149D01*
X929569Y708457D01*
X932739Y700990D01*
X932810Y700885D01*
X932848Y700764D01*
X933318Y699904D01*
X933558Y699617D01*
X933768Y699307D01*
X935160Y697940D01*
X935992Y697394D01*
X935992Y697394D01*
X937801Y696664D01*
X938777Y696478D01*
X940728Y696495D01*
X941095Y696571D01*
X941467Y696611D01*
X942403Y696904D01*
X942514Y696965D01*
X942637Y696990D01*
X963233Y705733D01*
X964448Y704076D01*
X962065Y701286D01*
X959105Y696454D01*
X956936Y691219D01*
X955613Y685709D01*
X955169Y680060D01*
X955613Y674411D01*
X956936Y668901D01*
X959105Y663666D01*
X962065Y658834D01*
X965745Y654526D01*
X970054Y650845D01*
X974886Y647885D01*
X980121Y645716D01*
X985631Y644393D01*
X991280Y643949D01*
X996929Y644393D01*
X1002439Y645716D01*
X1007674Y647885D01*
X1012506Y650845D01*
X1016815Y654526D01*
X1020495Y658834D01*
X1023455Y663666D01*
X1025624Y668901D01*
X1026947Y674411D01*
X1027391Y680060D01*
X1026947Y685709D01*
X1025624Y691219D01*
X1023455Y696454D01*
X1020495Y701286D01*
X1016815Y705595D01*
X1012506Y709275D01*
X1007674Y712235D01*
X1002439Y714404D01*
X996929Y715727D01*
X992683Y716061D01*
X992352Y718093D01*
X1016273Y728247D01*
X1016273Y728247D01*
X1016672Y728416D01*
X1017537Y728461D01*
X1018364Y728207D01*
X1019055Y727684D01*
X1019159Y727524D01*
X1022952Y718141D01*
X1029958Y698637D01*
X1036194Y678873D01*
X1041648Y658880D01*
X1046312Y638687D01*
X1050180Y618326D01*
X1053246Y597831D01*
X1055504Y577229D01*
X1056914Y557086D01*
X1055722Y556299D01*
X1054962Y556141D01*
X1051289Y559278D01*
X1046458Y562239D01*
X1041223Y564407D01*
X1035713Y565730D01*
X1030063Y566175D01*
X1024414Y565730D01*
X1018904Y564407D01*
X1013669Y562239D01*
X1008838Y559278D01*
X1004529Y555598D01*
X1000849Y551289D01*
X997888Y546458D01*
X995720Y541222D01*
X994397Y535713D01*
X993952Y530064D01*
X994397Y524414D01*
X995720Y518904D01*
X997888Y513669D01*
X1000849Y508838D01*
X1004529Y504529D01*
X1008838Y500849D01*
X1013669Y497888D01*
X1018904Y495720D01*
X1024414Y494397D01*
X1030063Y493952D01*
X1035713Y494397D01*
X1041223Y495720D01*
X1046458Y497888D01*
X1051289Y500849D01*
X1054864Y503902D01*
X1056820Y502942D01*
X1056411Y494417D01*
X1054604Y473771D01*
X1051988Y453212D01*
X1048567Y432772D01*
X1044346Y412482D01*
X1039331Y392375D01*
X1033530Y372478D01*
X1026952Y352826D01*
X1019607Y333446D01*
X1011507Y314370D01*
X1002664Y295627D01*
X993092Y277246D01*
X982805Y259255D01*
X977442Y250672D01*
X977313Y250532D01*
X976542Y250138D01*
X975683Y250031D01*
X974839Y250225D01*
X974476Y250461D01*
X974476Y250461D01*
X974476Y250461D01*
X907386Y294030D01*
X907269Y294076D01*
X907170Y294155D01*
X906300Y294606D01*
X905940Y294710D01*
X905592Y294849D01*
X903674Y295204D01*
X903674Y295204D01*
X902679Y295191D01*
X900771Y294786D01*
X899857Y294393D01*
X898250Y293288D01*
X897988Y293020D01*
X897702Y292779D01*
X897090Y292013D01*
X897032Y291901D01*
X896944Y291810D01*
X892525Y285006D01*
X883189Y271734D01*
X873368Y258818D01*
X863074Y246276D01*
X852322Y234123D01*
X841127Y222377D01*
X829504Y211055D01*
X817470Y200171D01*
X811255Y194956D01*
X811175Y194857D01*
X811071Y194786D01*
X810386Y194085D01*
X810181Y193772D01*
X809947Y193480D01*
X809046Y191749D01*
X808767Y190795D01*
X808597Y188851D01*
X808706Y187862D01*
X809292Y186002D01*
X809473Y185674D01*
X809620Y185329D01*
X810173Y184520D01*
X810263Y184432D01*
X810324Y184321D01*
X861744Y123041D01*
X861744Y123041D01*
X862022Y122710D01*
X862318Y121896D01*
X862317Y121030D01*
X862019Y120216D01*
X861896Y120070D01*
X853337Y113137D01*
X835256Y99725D01*
X816620Y87097D01*
X797461Y75276D01*
X777815Y64282D01*
X757718Y54136D01*
X737207Y44858D01*
X716319Y36463D01*
X695092Y28966D01*
X673564Y22382D01*
X651775Y16722D01*
X629763Y11997D01*
X607571Y8216D01*
X585238Y5384D01*
X562804Y3508D01*
X540310Y2591D01*
X517797Y2634D01*
X495308Y3637D01*
X472881Y5599D01*
X450559Y8516D01*
X428380Y12383D01*
X406388Y17193D01*
X384621Y22936D01*
X363118Y29602D01*
X341920Y37180D01*
X321063Y45656D01*
X300588Y55013D01*
X289901Y60460D01*
X290136Y62446D01*
X291222Y62707D01*
X296458Y64875D01*
X301289Y67836D01*
X305598Y71516D01*
X309278Y75825D01*
X312239Y80657D01*
X314407Y85892D01*
X315730Y91402D01*
X316175Y97051D01*
X315730Y102700D01*
X314407Y108210D01*
X312239Y113445D01*
X309278Y118277D01*
X305598Y122585D01*
X301289Y126265D01*
X296458Y129226D01*
X291222Y131395D01*
X285713Y132718D01*
X280063Y133162D01*
X274414Y132718D01*
X268904Y131395D01*
X263669Y129226D01*
X258838Y126265D01*
X254529Y122585D01*
X250849Y118277D01*
X247888Y113445D01*
X245720Y108210D01*
X244397Y102700D01*
X243952Y97051D01*
X244397Y91402D01*
X245089Y88517D01*
X243336Y87252D01*
X241814Y88199D01*
X223225Y100899D01*
X205196Y114380D01*
X187758Y128618D01*
X170943Y143587D01*
X154783Y159259D01*
X139305Y175607D01*
X132081Y183921D01*
X131985Y184086D01*
X131833Y184939D01*
X131982Y185792D01*
X132415Y186542D01*
X132746Y186821D01*
X132746Y186821D01*
X194026Y238240D01*
X194105Y238339D01*
X194209Y238410D01*
X194895Y239111D01*
X195100Y239424D01*
X195334Y239716D01*
X196235Y241447D01*
X196513Y242402D01*
X196683Y244345D01*
X196575Y245334D01*
X195988Y247194D01*
X195808Y247523D01*
X195661Y247867D01*
X195108Y248676D01*
X195017Y248764D01*
X194956Y248875D01*
X189742Y255090D01*
X179779Y267899D01*
X170299Y281067D01*
X161314Y294578D01*
X152836Y308414D01*
X144877Y322553D01*
X137447Y336978D01*
X130557Y351670D01*
X127388Y359138D01*
X127316Y359242D01*
X127279Y359363D01*
X126809Y360223D01*
X126569Y360511D01*
X126358Y360820D01*
X124967Y362188D01*
X124135Y362733D01*
X124135Y362733D01*
X122326Y363464D01*
X121349Y363649D01*
X119398Y363632D01*
X119032Y363556D01*
X118659Y363516D01*
X117724Y363223D01*
X117613Y363163D01*
X117489Y363137D01*
X43854Y331880D01*
X43853Y331880D01*
X43455Y331711D01*
X42590Y331666D01*
X41762Y331921D01*
X41072Y332443D01*
X40968Y332603D01*
X37261Y341773D01*
X30393Y360840D01*
X24262Y380156D01*
X18878Y399693D01*
X14247Y419423D01*
X10379Y439316D01*
X7277Y459344D01*
X4946Y479474D01*
X3391Y499681D01*
X2612Y519931D01*
X2612Y540197D01*
X3391Y560448D01*
X4946Y580654D01*
X7277Y600785D01*
X10379Y620812D01*
X14248Y640705D01*
X18878Y660435D01*
X24262Y679972D01*
X30393Y699289D01*
X37261Y718354D01*
X40971Y727523D01*
X41075Y727684D01*
X41766Y728207D01*
X42593Y728461D01*
X43458Y728416D01*
X43857Y728247D01*
X43857Y728247D01*
X67769Y718097D01*
X67438Y716064D01*
X63193Y715730D01*
X57683Y714407D01*
X52448Y712239D01*
X47617Y709278D01*
X43308Y705598D01*
X39628Y701289D01*
X36667Y696458D01*
X34498Y691223D01*
X33176Y685713D01*
X32731Y680063D01*
X33176Y674415D01*
X34498Y668904D01*
X36667Y663669D01*
X39628Y658838D01*
X43308Y654529D01*
X47617Y650849D01*
X52448Y647888D01*
X57683Y645720D01*
X63193Y644397D01*
X68842Y643952D01*
X74491Y644397D01*
X80001Y645720D01*
X85237Y647888D01*
X90068Y650849D01*
X94377Y654529D01*
X98057Y658838D01*
X101018Y663669D01*
X103186Y668904D01*
X104509Y674415D01*
X104954Y680063D01*
X104509Y685713D01*
X103186Y691223D01*
X101018Y696458D01*
X98057Y701289D01*
X95674Y704079D01*
X96889Y705736D01*
X117493Y696990D01*
X117616Y696965D01*
X117727Y696904D01*
X118663Y696611D01*
X119035Y696571D01*
X119402Y696495D01*
X121352Y696478D01*
X122330Y696664D01*
X124138Y697394D01*
X124970Y697940D01*
X126361Y699307D01*
X126572Y699617D01*
X126812Y699904D01*
X127282Y700764D01*
X127319Y700885D01*
X127391Y700990D01*
X130561Y708457D01*
X137450Y723149D01*
X144880Y737574D01*
X152839Y751714D01*
X161317Y765549D01*
X170303Y779060D01*
X179783Y792229D01*
X189745Y805037D01*
X194960Y811252D01*
X195021Y811363D01*
X195111Y811451D01*
X195664Y812260D01*
X195811Y812605D01*
X195991Y812933D01*
X196578Y814793D01*
X196686Y815782D01*
X196516Y817726D01*
X196238Y818680D01*
X195337Y820411D01*
X195103Y820703D01*
X194898Y821016D01*
X194213Y821717D01*
X194108Y821788D01*
X194029Y821887D01*
X132750Y873307D01*
X132749Y873307D01*
X132418Y873585D01*
X131985Y874335D01*
X131836Y875188D01*
X131987Y876037D01*
X132083Y876201D01*
X139327Y884537D01*
X154840Y900920D01*
X171041Y916625D01*
X187897Y931622D01*
X205380Y945885D01*
X223456Y959388D01*
X242093Y972105D01*
X243337Y972878D01*
X245090Y971613D01*
X244397Y968725D01*
X243952Y963076D01*
X244397Y957427D01*
X245720Y951917D01*
X247888Y946682D01*
X250849Y941851D01*
X254529Y937542D01*
X258838Y933861D01*
X263669Y930901D01*
X268904Y928732D01*
X274414Y927410D01*
X280063Y926965D01*
X285713Y927410D01*
X291222Y928732D01*
X296458Y930901D01*
X301289Y933861D01*
X305598Y937542D01*
X309278Y941851D01*
X312239Y946682D01*
X314407Y951917D01*
X315730Y957427D01*
X316175Y963076D01*
X315730Y968725D01*
X314407Y974235D01*
X312239Y979470D01*
X309278Y984302D01*
X305598Y988611D01*
X301289Y992291D01*
X296458Y995252D01*
X291222Y997420D01*
X290141Y997680D01*
X289906Y999666D01*
X301024Y1005320D01*
X321554Y1014679D01*
X342466Y1023151D01*
X363720Y1030721D01*
X385279Y1037376D01*
X407103Y1043103D01*
X429152Y1047891D01*
X451385Y1051733D01*
X473762Y1054620D01*
X496242Y1056547D01*
X518784Y1057512D01*
X541347Y1057512D01*
X563889Y1056548D01*
D02*
G37*
%LPC*%
G36*
X427443Y1024900D02*
X423757D01*
X420196Y1023946D01*
X417004Y1022103D01*
X414397Y1019496D01*
X412554Y1016304D01*
X411600Y1012743D01*
Y1009057D01*
X412554Y1005496D01*
X414397Y1002304D01*
X417004Y999697D01*
X420196Y997854D01*
X423757Y996900D01*
X427443D01*
X431004Y997854D01*
X434196Y999697D01*
X436803Y1002304D01*
X438646Y1005496D01*
X439600Y1009057D01*
Y1012743D01*
X438646Y1016304D01*
X436803Y1019496D01*
X434196Y1022103D01*
X431004Y1023946D01*
X427443Y1024900D01*
D02*
G37*
G36*
X532500Y1017289D02*
X505000D01*
X504220Y1017134D01*
X503558Y1016692D01*
X503116Y1016030D01*
X502961Y1015250D01*
Y970540D01*
X501024Y969738D01*
X499353Y968456D01*
X492324Y961426D01*
X491041Y959755D01*
X490235Y957809D01*
X489960Y955721D01*
Y869758D01*
X431949Y811746D01*
X430101Y812512D01*
Y835201D01*
X416696D01*
X416401Y835260D01*
X416401Y835260D01*
X404610D01*
X401506Y838364D01*
X400514Y839027D01*
X399343Y839260D01*
X399343Y839260D01*
X344951D01*
X344951Y839260D01*
X343780Y839027D01*
X342788Y838364D01*
X342788Y838364D01*
X331174Y826750D01*
X329505D01*
X327668Y825989D01*
X326261Y824582D01*
X325500Y822745D01*
Y820755D01*
X326261Y818918D01*
X327668Y817511D01*
X329505Y816750D01*
X331495D01*
X333332Y817511D01*
X334739Y818918D01*
X335500Y820755D01*
Y822424D01*
X346218Y833142D01*
X383401D01*
Y821501D01*
X400101D01*
Y828354D01*
X401100Y829122D01*
X402101Y829423D01*
X402173Y829375D01*
X403343Y829142D01*
X413401D01*
Y805801D01*
X423390D01*
X424156Y803953D01*
X416045Y795843D01*
X414763Y794172D01*
X413957Y792225D01*
X413682Y790137D01*
Y751848D01*
X338021D01*
Y761251D01*
X338021Y762281D01*
X339619Y763251D01*
X351901D01*
Y772501D01*
X333751D01*
Y764281D01*
X333751Y763251D01*
X332152Y762281D01*
X324479D01*
Y731219D01*
X338021D01*
Y741652D01*
X381588D01*
X383401Y741201D01*
Y728059D01*
X260262D01*
X259082Y729239D01*
X257245Y730000D01*
X255255D01*
X253418Y729239D01*
X252011Y727832D01*
X251250Y725995D01*
Y724005D01*
X252011Y722168D01*
X253418Y720761D01*
X255255Y720000D01*
X257245D01*
X259082Y720761D01*
X260262Y721941D01*
X383401D01*
Y711801D01*
X399652D01*
Y707826D01*
X399124Y707297D01*
X395099D01*
X394607Y707199D01*
X383399D01*
Y697098D01*
X338021D01*
Y707531D01*
X324479D01*
Y676469D01*
X338021D01*
Y686902D01*
X383399D01*
Y677799D01*
X398440D01*
X399145Y677799D01*
X399973Y675799D01*
X373897Y649723D01*
X372049Y650488D01*
Y655749D01*
X353899D01*
Y645499D01*
Y635249D01*
X370145D01*
Y628441D01*
X229242Y487538D01*
X228579Y486546D01*
X228346Y485375D01*
X228346Y485375D01*
Y426875D01*
X228346Y426875D01*
X228579Y425704D01*
X229242Y424712D01*
X290617Y363337D01*
X291609Y362674D01*
X292780Y362441D01*
X292780Y362441D01*
X298042D01*
X298046Y362435D01*
X298652Y361129D01*
X298732Y360441D01*
X298645Y360355D01*
X298366Y359937D01*
X298261Y359832D01*
X298204Y359695D01*
X297540Y358701D01*
X297152Y356750D01*
Y342781D01*
X295479D01*
Y311719D01*
X296902D01*
Y300450D01*
X293400D01*
Y271050D01*
X310100D01*
Y300450D01*
X307098D01*
Y311719D01*
X309021D01*
Y342781D01*
X307348D01*
Y355638D01*
X307500Y356005D01*
Y356507D01*
X307598Y357000D01*
X307500Y357492D01*
Y357994D01*
X307308Y358458D01*
X307210Y358951D01*
X306931Y359368D01*
X306739Y359832D01*
X306384Y360187D01*
X306214Y360441D01*
X306403Y361247D01*
X306954Y362435D01*
X306958Y362441D01*
X334007D01*
X334996Y360441D01*
X334500Y359245D01*
Y357255D01*
X335261Y355418D01*
X336668Y354011D01*
X338505Y353250D01*
X340495D01*
X342332Y354011D01*
X343512Y355191D01*
X392641D01*
X394000Y353245D01*
Y351255D01*
X394761Y349418D01*
X396168Y348011D01*
X398005Y347250D01*
X399995D01*
X401832Y348011D01*
X403012Y349191D01*
X566933D01*
X596537Y319587D01*
X596537Y319587D01*
X597530Y318924D01*
X598700Y318691D01*
X641512D01*
X641758Y318362D01*
X641307Y315674D01*
X640158Y314907D01*
X637720Y312469D01*
X635805Y309603D01*
X634486Y306418D01*
X633814Y303037D01*
Y299590D01*
X634486Y296209D01*
X635805Y293024D01*
X637720Y290158D01*
X640158Y287720D01*
X643024Y285805D01*
X646209Y284486D01*
X649590Y283813D01*
X653037D01*
X656418Y284486D01*
X659603Y285805D01*
X662469Y287720D01*
X664907Y290158D01*
X666822Y293024D01*
X668141Y296209D01*
X668813Y299590D01*
Y303037D01*
X668141Y306418D01*
X666822Y309603D01*
X664907Y312469D01*
X662469Y314907D01*
X661320Y315674D01*
X660869Y318362D01*
X661115Y318691D01*
X939250D01*
X939250Y318691D01*
X940421Y318924D01*
X941413Y319587D01*
X984913Y363087D01*
X984913Y363087D01*
X985576Y364080D01*
X985809Y365250D01*
Y567750D01*
X985809Y567750D01*
X985576Y568921D01*
X984913Y569913D01*
X984913Y569913D01*
X838927Y715899D01*
X839755Y717899D01*
X848951D01*
Y734599D01*
X819551D01*
Y717899D01*
X830072D01*
X831192Y716249D01*
X831425Y715079D01*
X832088Y714086D01*
X979691Y566483D01*
Y366517D01*
X937983Y324809D01*
X599967D01*
X571585Y353191D01*
X572413Y355191D01*
X586333D01*
X612656Y328868D01*
X613649Y328205D01*
X614819Y327972D01*
X928160D01*
X928160Y327972D01*
X929331Y328205D01*
X930323Y328868D01*
X967663Y366208D01*
X967663Y366208D01*
X968326Y367200D01*
X968559Y368371D01*
Y510250D01*
X968326Y511421D01*
X967663Y512413D01*
X967663Y512413D01*
X887809Y592267D01*
Y597000D01*
X891250D01*
Y611500D01*
X878250D01*
Y611000D01*
X867500D01*
X866000Y611000D01*
X863973Y611000D01*
X862559Y612414D01*
Y632586D01*
X863973Y634000D01*
X866000Y634000D01*
X867500Y634000D01*
X878500D01*
Y647500D01*
X875489D01*
X875290Y648499D01*
X874627Y649491D01*
X874627Y649491D01*
X751455Y772663D01*
X750463Y773326D01*
X749293Y773559D01*
X749292Y773559D01*
X638767D01*
X596839Y815486D01*
Y890581D01*
X596839Y890581D01*
X596607Y891751D01*
X595944Y892744D01*
X595943Y892744D01*
X550363Y938324D01*
X550695Y940820D01*
X551575Y941328D01*
X553372Y943125D01*
X554642Y945325D01*
X555300Y947779D01*
Y950321D01*
X554642Y952775D01*
X553372Y954975D01*
X551575Y956772D01*
X549375Y958042D01*
X546920Y958700D01*
X544380D01*
X541925Y958042D01*
X539725Y956772D01*
X537928Y954975D01*
X536658Y952775D01*
X536539Y952333D01*
X534539Y952596D01*
Y970904D01*
X536539Y971167D01*
X536658Y970725D01*
X537928Y968525D01*
X539725Y966728D01*
X541925Y965458D01*
X544380Y964800D01*
X546920D01*
X549375Y965458D01*
X551575Y966728D01*
X553372Y968525D01*
X554642Y970725D01*
X555300Y973179D01*
Y975721D01*
X554642Y978175D01*
X553372Y980375D01*
X551575Y982172D01*
X549375Y983442D01*
X546920Y984100D01*
X544380D01*
X541925Y983442D01*
X539725Y982172D01*
X537928Y980375D01*
X536658Y978175D01*
X536539Y977733D01*
X534539Y977996D01*
Y996304D01*
X536539Y996567D01*
X536658Y996125D01*
X537928Y993925D01*
X539725Y992128D01*
X541925Y990858D01*
X544380Y990200D01*
X546920D01*
X549375Y990858D01*
X551575Y992128D01*
X553372Y993925D01*
X554642Y996125D01*
X555300Y998579D01*
Y1001121D01*
X554642Y1003575D01*
X553372Y1005775D01*
X551575Y1007572D01*
X549375Y1008842D01*
X546920Y1009500D01*
X544380D01*
X541925Y1008842D01*
X539725Y1007572D01*
X537928Y1005775D01*
X536658Y1003575D01*
X536539Y1003133D01*
X534539Y1003396D01*
Y1015250D01*
X534384Y1016030D01*
X533942Y1016692D01*
X533280Y1017134D01*
X532500Y1017289D01*
D02*
G37*
G36*
X347185Y1004150D02*
X344815D01*
X342526Y1003537D01*
X340474Y1002352D01*
X338798Y1000676D01*
X337613Y998624D01*
X337000Y996335D01*
Y993965D01*
X337613Y991676D01*
X338798Y989624D01*
X340474Y987948D01*
X342526Y986763D01*
X344815Y986150D01*
X347185D01*
X349474Y986763D01*
X351526Y987948D01*
X353202Y989624D01*
X354387Y991676D01*
X355000Y993965D01*
Y996335D01*
X354387Y998624D01*
X353202Y1000676D01*
X351526Y1002352D01*
X349474Y1003537D01*
X347185Y1004150D01*
D02*
G37*
G36*
X668593Y1002850D02*
X664907D01*
X661346Y1001896D01*
X658154Y1000053D01*
X655547Y997446D01*
X653704Y994254D01*
X652750Y990693D01*
Y987007D01*
X653704Y983446D01*
X655547Y980254D01*
X658154Y977647D01*
X661346Y975804D01*
X664907Y974850D01*
X668593D01*
X672154Y975804D01*
X675346Y977647D01*
X677953Y980254D01*
X679796Y983446D01*
X680750Y987007D01*
Y990693D01*
X679796Y994254D01*
X677953Y997446D01*
X675346Y1000053D01*
X672154Y1001896D01*
X668593Y1002850D01*
D02*
G37*
G36*
X388922Y1007800D02*
X385278D01*
X381704Y1007089D01*
X378337Y1005695D01*
X375307Y1003670D01*
X372730Y1001093D01*
X370705Y998063D01*
X369311Y994696D01*
X368600Y991122D01*
Y987478D01*
X369311Y983904D01*
X370705Y980537D01*
X372730Y977507D01*
X375307Y974930D01*
X378337Y972906D01*
X381704Y971511D01*
X385278Y970800D01*
X388922D01*
X392496Y971511D01*
X395863Y972906D01*
X398893Y974930D01*
X401470Y977507D01*
X403494Y980537D01*
X404889Y983904D01*
X405600Y987478D01*
Y991122D01*
X404889Y994696D01*
X403494Y998063D01*
X401470Y1001093D01*
X398893Y1003670D01*
X395863Y1005695D01*
X392496Y1007089D01*
X388922Y1007800D01*
D02*
G37*
G36*
X477185Y985600D02*
X474815D01*
X472526Y984987D01*
X470474Y983802D01*
X468798Y982126D01*
X467613Y980074D01*
X467000Y977785D01*
Y975415D01*
X467613Y973126D01*
X468798Y971074D01*
X470474Y969398D01*
X472526Y968213D01*
X474815Y967600D01*
X477185D01*
X479474Y968213D01*
X481526Y969398D01*
X483202Y971074D01*
X484387Y973126D01*
X485000Y975415D01*
Y977785D01*
X484387Y980074D01*
X483202Y982126D01*
X481526Y983802D01*
X479474Y984987D01*
X477185Y985600D01*
D02*
G37*
G36*
X747535Y982100D02*
X745165D01*
X742876Y981487D01*
X740824Y980302D01*
X739148Y978626D01*
X737963Y976574D01*
X737350Y974285D01*
Y971915D01*
X737963Y969626D01*
X739148Y967574D01*
X740824Y965898D01*
X742876Y964713D01*
X745165Y964100D01*
X747535D01*
X749824Y964713D01*
X751876Y965898D01*
X753552Y967574D01*
X754737Y969626D01*
X755350Y971915D01*
Y974285D01*
X754737Y976574D01*
X753552Y978626D01*
X751876Y980302D01*
X749824Y981487D01*
X747535Y982100D01*
D02*
G37*
G36*
X347185Y979250D02*
X344815D01*
X342526Y978637D01*
X340474Y977452D01*
X338798Y975776D01*
X337613Y973724D01*
X337000Y971435D01*
Y969065D01*
X337613Y966776D01*
X338798Y964724D01*
X340474Y963048D01*
X342526Y961863D01*
X344815Y961250D01*
X347185D01*
X349474Y961863D01*
X351526Y963048D01*
X353202Y964724D01*
X354387Y966776D01*
X355000Y969065D01*
Y971435D01*
X354387Y973724D01*
X353202Y975776D01*
X351526Y977452D01*
X349474Y978637D01*
X347185Y979250D01*
D02*
G37*
G36*
X451785Y972900D02*
X449415D01*
X447126Y972287D01*
X445074Y971102D01*
X443398Y969426D01*
X442213Y967374D01*
X441600Y965085D01*
Y962715D01*
X442213Y960426D01*
X443398Y958374D01*
X445074Y956698D01*
X447126Y955513D01*
X449415Y954900D01*
X451785D01*
X454074Y955513D01*
X456126Y956698D01*
X457802Y958374D01*
X458987Y960426D01*
X459600Y962715D01*
Y965085D01*
X458987Y967374D01*
X457802Y969426D01*
X456126Y971102D01*
X454074Y972287D01*
X451785Y972900D01*
D02*
G37*
G36*
X707072Y985750D02*
X703428D01*
X699854Y985039D01*
X696487Y983644D01*
X693457Y981620D01*
X690880Y979043D01*
X688856Y976013D01*
X687461Y972646D01*
X686750Y969072D01*
Y965428D01*
X687461Y961854D01*
X688856Y958487D01*
X690880Y955457D01*
X693457Y952880D01*
X696487Y950855D01*
X699854Y949461D01*
X703428Y948750D01*
X707072D01*
X710646Y949461D01*
X714013Y950855D01*
X717043Y952880D01*
X719620Y955457D01*
X721645Y958487D01*
X723039Y961854D01*
X723750Y965428D01*
Y969072D01*
X723039Y972646D01*
X721645Y976013D01*
X719620Y979043D01*
X717043Y981620D01*
X714013Y983644D01*
X710646Y985039D01*
X707072Y985750D01*
D02*
G37*
G36*
X642935Y963550D02*
X640565D01*
X638276Y962937D01*
X636224Y961752D01*
X634548Y960076D01*
X633363Y958024D01*
X632750Y955735D01*
Y953365D01*
X633363Y951076D01*
X634548Y949024D01*
X635125Y948447D01*
X634296Y946448D01*
X624088D01*
X623552Y947376D01*
X621876Y949052D01*
X619824Y950237D01*
X617535Y950850D01*
X615165D01*
X612876Y950237D01*
X610824Y949052D01*
X609148Y947376D01*
X607963Y945324D01*
X607350Y943035D01*
Y940665D01*
X607963Y938376D01*
X609148Y936324D01*
X610824Y934648D01*
X612876Y933463D01*
X615165Y932850D01*
X617535D01*
X619824Y933463D01*
X621876Y934648D01*
X623552Y936324D01*
X624737Y938376D01*
X625260Y940330D01*
X646126D01*
X647306Y939150D01*
X649144Y938389D01*
X651133D01*
X652971Y939150D01*
X654378Y940556D01*
X655139Y942394D01*
Y944383D01*
X654378Y946221D01*
X652971Y947627D01*
X651133Y948389D01*
X650894D01*
X649740Y950389D01*
X650137Y951076D01*
X650750Y953365D01*
Y955735D01*
X650137Y958024D01*
X648952Y960076D01*
X647276Y961752D01*
X645224Y962937D01*
X642935Y963550D01*
D02*
G37*
G36*
X477185Y960200D02*
X474815D01*
X472526Y959587D01*
X470474Y958402D01*
X468798Y956726D01*
X467613Y954674D01*
X467000Y952385D01*
Y950015D01*
X467613Y947726D01*
X468798Y945674D01*
X470474Y943998D01*
X472526Y942813D01*
X474815Y942200D01*
X477185D01*
X479474Y942813D01*
X481526Y943998D01*
X483202Y945674D01*
X484387Y947726D01*
X485000Y950015D01*
Y952385D01*
X484387Y954674D01*
X483202Y956726D01*
X481526Y958402D01*
X479474Y959587D01*
X477185Y960200D01*
D02*
G37*
G36*
X747535Y957200D02*
X745165D01*
X742876Y956587D01*
X740824Y955402D01*
X739148Y953726D01*
X737963Y951674D01*
X737350Y949385D01*
Y947015D01*
X737963Y944726D01*
X739148Y942674D01*
X740824Y940998D01*
X742876Y939813D01*
X745165Y939200D01*
X747535D01*
X749824Y939813D01*
X751876Y940998D01*
X753552Y942674D01*
X754737Y944726D01*
X755350Y947015D01*
Y949385D01*
X754737Y951674D01*
X753552Y953726D01*
X751876Y955402D01*
X749824Y956587D01*
X747535Y957200D01*
D02*
G37*
G36*
X451785Y947500D02*
X449415D01*
X447126Y946887D01*
X445074Y945702D01*
X443398Y944026D01*
X442213Y941974D01*
X441600Y939685D01*
Y937315D01*
X442213Y935026D01*
X443398Y932974D01*
X445074Y931298D01*
X447126Y930113D01*
X449415Y929500D01*
X451785D01*
X454074Y930113D01*
X456126Y931298D01*
X457802Y932974D01*
X458987Y935026D01*
X459600Y937315D01*
Y939685D01*
X458987Y941974D01*
X457802Y944026D01*
X456126Y945702D01*
X454074Y946887D01*
X451785Y947500D01*
D02*
G37*
G36*
X642935Y938150D02*
X640565D01*
X638276Y937537D01*
X636224Y936352D01*
X634548Y934676D01*
X633363Y932624D01*
X632750Y930335D01*
Y927965D01*
X633363Y925676D01*
X634548Y923624D01*
X636224Y921948D01*
X638276Y920763D01*
X640565Y920150D01*
X642935D01*
X645224Y920763D01*
X647276Y921948D01*
X648952Y923624D01*
X650137Y925676D01*
X650750Y927965D01*
Y930335D01*
X650137Y932624D01*
X648952Y934676D01*
X647276Y936352D01*
X645224Y937537D01*
X642935Y938150D01*
D02*
G37*
G36*
X477185Y934800D02*
X474815D01*
X472526Y934187D01*
X470474Y933002D01*
X468798Y931326D01*
X467613Y929274D01*
X467000Y926985D01*
Y924615D01*
X467613Y922326D01*
X468798Y920274D01*
X470474Y918598D01*
X472526Y917413D01*
X474815Y916800D01*
X477185D01*
X479474Y917413D01*
X481526Y918598D01*
X483202Y920274D01*
X484387Y922326D01*
X485000Y924615D01*
Y926985D01*
X484387Y929274D01*
X483202Y931326D01*
X481526Y933002D01*
X479474Y934187D01*
X477185Y934800D01*
D02*
G37*
G36*
X617535Y925450D02*
X615165D01*
X612876Y924837D01*
X610824Y923652D01*
X609148Y921976D01*
X607963Y919924D01*
X607350Y917635D01*
Y915265D01*
X607963Y912976D01*
X609148Y910924D01*
X610824Y909248D01*
X612876Y908063D01*
X615165Y907450D01*
X617535D01*
X619824Y908063D01*
X621876Y909248D01*
X623552Y910924D01*
X624737Y912976D01*
X625350Y915265D01*
Y917635D01*
X624737Y919924D01*
X623552Y921976D01*
X621876Y923652D01*
X619824Y924837D01*
X617535Y925450D01*
D02*
G37*
G36*
X451785Y922100D02*
X449415D01*
X447126Y921487D01*
X445074Y920302D01*
X443398Y918626D01*
X442213Y916574D01*
X441600Y914285D01*
Y911915D01*
X442213Y909626D01*
X443398Y907574D01*
X445074Y905898D01*
X447126Y904713D01*
X449415Y904100D01*
X451785D01*
X454074Y904713D01*
X456126Y905898D01*
X457802Y907574D01*
X458987Y909626D01*
X459600Y911915D01*
Y914285D01*
X458987Y916574D01*
X457802Y918626D01*
X456126Y920302D01*
X454074Y921487D01*
X451785Y922100D01*
D02*
G37*
G36*
X642935Y912750D02*
X640565D01*
X638276Y912137D01*
X636224Y910952D01*
X634548Y909276D01*
X633363Y907224D01*
X632750Y904935D01*
Y902565D01*
X633363Y900276D01*
X634548Y898224D01*
X636224Y896548D01*
X638276Y895363D01*
X640565Y894750D01*
X642935D01*
X645224Y895363D01*
X647276Y896548D01*
X648952Y898224D01*
X650137Y900276D01*
X650750Y902565D01*
Y904935D01*
X650137Y907224D01*
X648952Y909276D01*
X647276Y910952D01*
X645224Y912137D01*
X642935Y912750D01*
D02*
G37*
G36*
X477185Y909400D02*
X474815D01*
X472526Y908787D01*
X470474Y907602D01*
X468798Y905926D01*
X467613Y903874D01*
X467000Y901585D01*
Y899215D01*
X467613Y896926D01*
X468798Y894874D01*
X470474Y893198D01*
X472526Y892013D01*
X474815Y891400D01*
X477185D01*
X479474Y892013D01*
X481526Y893198D01*
X483202Y894874D01*
X484387Y896926D01*
X485000Y899215D01*
Y901585D01*
X484387Y903874D01*
X483202Y905926D01*
X481526Y907602D01*
X479474Y908787D01*
X477185Y909400D01*
D02*
G37*
G36*
X347185Y903050D02*
X344815D01*
X342526Y902437D01*
X340474Y901252D01*
X338798Y899576D01*
X337613Y897524D01*
X337000Y895235D01*
Y892865D01*
X337613Y890576D01*
X338798Y888524D01*
X340474Y886848D01*
X342526Y885663D01*
X344815Y885050D01*
X347185D01*
X349474Y885663D01*
X351526Y886848D01*
X353202Y888524D01*
X354387Y890576D01*
X355000Y892865D01*
Y895235D01*
X354387Y897524D01*
X353202Y899576D01*
X351526Y901252D01*
X349474Y902437D01*
X347185Y903050D01*
D02*
G37*
G36*
X617535Y900050D02*
X615165D01*
X612876Y899437D01*
X610824Y898252D01*
X609148Y896576D01*
X607963Y894524D01*
X607350Y892235D01*
Y889865D01*
X607963Y887576D01*
X609148Y885524D01*
X610824Y883848D01*
X612876Y882663D01*
X615165Y882050D01*
X617535D01*
X619824Y882663D01*
X621876Y883848D01*
X623552Y885524D01*
X624737Y887576D01*
X625350Y889865D01*
Y892235D01*
X624737Y894524D01*
X623552Y896576D01*
X621876Y898252D01*
X619824Y899437D01*
X617535Y900050D01*
D02*
G37*
G36*
X451785Y896700D02*
X449415D01*
X447126Y896087D01*
X445074Y894902D01*
X443398Y893226D01*
X442213Y891174D01*
X441600Y888885D01*
Y886515D01*
X442213Y884226D01*
X443398Y882174D01*
X445074Y880498D01*
X447126Y879313D01*
X449415Y878700D01*
X451785D01*
X454074Y879313D01*
X456126Y880498D01*
X457802Y882174D01*
X458987Y884226D01*
X459600Y886515D01*
Y888885D01*
X458987Y891174D01*
X457802Y893226D01*
X456126Y894902D01*
X454074Y896087D01*
X451785Y896700D01*
D02*
G37*
G36*
X642935Y887350D02*
X640565D01*
X638276Y886737D01*
X636224Y885552D01*
X634548Y883876D01*
X633363Y881824D01*
X632750Y879535D01*
Y877165D01*
X633363Y874876D01*
X634548Y872824D01*
X636224Y871148D01*
X638276Y869963D01*
X640565Y869350D01*
X642935D01*
X645224Y869963D01*
X647276Y871148D01*
X648952Y872824D01*
X650137Y874876D01*
X650750Y877165D01*
Y879535D01*
X650137Y881824D01*
X648952Y883876D01*
X647276Y885552D01*
X645224Y886737D01*
X642935Y887350D01*
D02*
G37*
G36*
X747535Y881000D02*
X745165D01*
X742876Y880387D01*
X740824Y879202D01*
X739148Y877526D01*
X737963Y875474D01*
X737350Y873185D01*
Y870815D01*
X737963Y868526D01*
X739148Y866474D01*
X740824Y864798D01*
X742876Y863613D01*
X745165Y863000D01*
X747535D01*
X749824Y863613D01*
X751876Y864798D01*
X753552Y866474D01*
X754737Y868526D01*
X755350Y870815D01*
Y873185D01*
X754737Y875474D01*
X753552Y877526D01*
X751876Y879202D01*
X749824Y880387D01*
X747535Y881000D01*
D02*
G37*
G36*
X347185Y878150D02*
X344815D01*
X342526Y877537D01*
X340474Y876352D01*
X338798Y874676D01*
X337613Y872624D01*
X337000Y870335D01*
Y867965D01*
X337613Y865676D01*
X338798Y863624D01*
X340474Y861948D01*
X342526Y860763D01*
X344815Y860150D01*
X347185D01*
X349474Y860763D01*
X351526Y861948D01*
X353202Y863624D01*
X354387Y865676D01*
X355000Y867965D01*
Y870335D01*
X354387Y872624D01*
X353202Y874676D01*
X351526Y876352D01*
X349474Y877537D01*
X347185Y878150D01*
D02*
G37*
G36*
X617535Y874650D02*
X615165D01*
X612876Y874037D01*
X610824Y872852D01*
X609148Y871176D01*
X607963Y869124D01*
X607350Y866835D01*
Y864465D01*
X607963Y862176D01*
X609148Y860124D01*
X610824Y858448D01*
X612876Y857263D01*
X615165Y856650D01*
X617535D01*
X619824Y857263D01*
X621876Y858448D01*
X623552Y860124D01*
X624737Y862176D01*
X625350Y864465D01*
Y866835D01*
X624737Y869124D01*
X623552Y871176D01*
X621876Y872852D01*
X619824Y874037D01*
X617535Y874650D01*
D02*
G37*
G36*
X388922Y893500D02*
X385278D01*
X381704Y892789D01*
X378337Y891395D01*
X375307Y889370D01*
X372730Y886793D01*
X370705Y883763D01*
X369311Y880396D01*
X368600Y876822D01*
Y873178D01*
X369311Y869604D01*
X370705Y866237D01*
X372730Y863207D01*
X375307Y860630D01*
X378337Y858605D01*
X381704Y857211D01*
X385278Y856500D01*
X388922D01*
X392496Y857211D01*
X395863Y858605D01*
X398893Y860630D01*
X401470Y863207D01*
X403494Y866237D01*
X404889Y869604D01*
X405600Y873178D01*
Y876822D01*
X404889Y880396D01*
X403494Y883763D01*
X401470Y886793D01*
X398893Y889370D01*
X395863Y891395D01*
X392496Y892789D01*
X388922Y893500D01*
D02*
G37*
G36*
X427443Y867400D02*
X423757D01*
X420196Y866446D01*
X417004Y864603D01*
X414397Y861996D01*
X412554Y858804D01*
X411600Y855243D01*
Y851557D01*
X412554Y847996D01*
X414397Y844804D01*
X417004Y842197D01*
X420196Y840354D01*
X423757Y839400D01*
X427443D01*
X431004Y840354D01*
X434196Y842197D01*
X436803Y844804D01*
X438646Y847996D01*
X439600Y851557D01*
Y855243D01*
X438646Y858804D01*
X436803Y861996D01*
X434196Y864603D01*
X431004Y866446D01*
X427443Y867400D01*
D02*
G37*
G36*
X747535Y856100D02*
X745165D01*
X742876Y855487D01*
X740824Y854302D01*
X739148Y852626D01*
X737963Y850574D01*
X737350Y848285D01*
Y845915D01*
X737963Y843626D01*
X739148Y841574D01*
X740824Y839898D01*
X742876Y838713D01*
X745165Y838100D01*
X747535D01*
X749824Y838713D01*
X751876Y839898D01*
X753552Y841574D01*
X754737Y843626D01*
X755350Y845915D01*
Y848285D01*
X754737Y850574D01*
X753552Y852626D01*
X751876Y854302D01*
X749824Y855487D01*
X747535Y856100D01*
D02*
G37*
G36*
X707072Y871450D02*
X703428D01*
X699854Y870739D01*
X696487Y869344D01*
X693457Y867320D01*
X690880Y864743D01*
X688856Y861713D01*
X687461Y858346D01*
X686750Y854772D01*
Y851128D01*
X687461Y847554D01*
X688856Y844187D01*
X690880Y841157D01*
X693457Y838580D01*
X696487Y836555D01*
X699854Y835161D01*
X703428Y834450D01*
X707072D01*
X710646Y835161D01*
X714013Y836555D01*
X717043Y838580D01*
X719620Y841157D01*
X721645Y844187D01*
X723039Y847554D01*
X723750Y851128D01*
Y854772D01*
X723039Y858346D01*
X721645Y861713D01*
X719620Y864743D01*
X717043Y867320D01*
X714013Y869344D01*
X710646Y870739D01*
X707072Y871450D01*
D02*
G37*
G36*
X668593Y845350D02*
X664907D01*
X661346Y844396D01*
X658154Y842553D01*
X655547Y839946D01*
X653704Y836754D01*
X652750Y833193D01*
Y829507D01*
X653704Y825946D01*
X655547Y822754D01*
X658154Y820147D01*
X661346Y818304D01*
X664907Y817350D01*
X668593D01*
X672154Y818304D01*
X675346Y820147D01*
X677953Y822754D01*
X679796Y825946D01*
X680750Y829507D01*
Y833193D01*
X679796Y836754D01*
X677953Y839946D01*
X675346Y842553D01*
X672154Y844396D01*
X668593Y845350D01*
D02*
G37*
G36*
X400101Y819501D02*
X392751D01*
Y805801D01*
X400101D01*
Y819501D01*
D02*
G37*
G36*
X390751D02*
X383401D01*
Y805801D01*
X390751D01*
Y819501D01*
D02*
G37*
G36*
X797501Y814249D02*
X788251D01*
Y796099D01*
X797501D01*
Y814249D01*
D02*
G37*
G36*
X666501D02*
X657251D01*
Y796099D01*
X666501D01*
Y814249D01*
D02*
G37*
G36*
X786251D02*
X777001D01*
Y796099D01*
X786251D01*
Y814249D01*
D02*
G37*
G36*
X655251D02*
X646001D01*
Y796099D01*
X655251D01*
Y814249D01*
D02*
G37*
G36*
X797501Y794099D02*
X788251D01*
Y775949D01*
X797501D01*
Y794099D01*
D02*
G37*
G36*
X786251D02*
X777001D01*
Y775949D01*
X786251D01*
Y794099D01*
D02*
G37*
G36*
X666501D02*
X657251D01*
Y775949D01*
X666501D01*
Y794099D01*
D02*
G37*
G36*
X655251D02*
X646001D01*
Y775949D01*
X655251D01*
Y794099D01*
D02*
G37*
G36*
X372051Y783751D02*
X353901D01*
Y774501D01*
X372051D01*
Y783751D01*
D02*
G37*
G36*
X351901D02*
X333751D01*
Y774501D01*
X351901D01*
Y783751D01*
D02*
G37*
G36*
X372051Y772501D02*
X353901D01*
Y763251D01*
X372051D01*
Y772501D01*
D02*
G37*
G36*
X848951Y764599D02*
X835251D01*
Y757249D01*
X848951D01*
Y764599D01*
D02*
G37*
G36*
X833251D02*
X819551D01*
Y757249D01*
X833251D01*
Y764599D01*
D02*
G37*
G36*
X848951Y755249D02*
X835251D01*
Y747899D01*
X848951D01*
Y755249D01*
D02*
G37*
G36*
X833251D02*
X819551D01*
Y747899D01*
X833251D01*
Y755249D01*
D02*
G37*
G36*
X305521Y762281D02*
X299750D01*
Y747750D01*
X305521D01*
Y762281D01*
D02*
G37*
G36*
X297750D02*
X291979D01*
Y747750D01*
X297750D01*
Y762281D01*
D02*
G37*
G36*
X305521Y745750D02*
X299750D01*
Y731219D01*
X305521D01*
Y745750D01*
D02*
G37*
G36*
X297750D02*
X291979D01*
Y731219D01*
X297750D01*
Y745750D01*
D02*
G37*
G36*
X305521Y707531D02*
X299750D01*
Y693000D01*
X305521D01*
Y707531D01*
D02*
G37*
G36*
X297750D02*
X291979D01*
Y693000D01*
X297750D01*
Y707531D01*
D02*
G37*
G36*
X305521Y691000D02*
X299750D01*
Y676469D01*
X305521D01*
Y691000D01*
D02*
G37*
G36*
X297750D02*
X291979D01*
Y676469D01*
X297750D01*
Y691000D01*
D02*
G37*
G36*
X351899Y655749D02*
X333749D01*
Y646499D01*
X351899D01*
Y655749D01*
D02*
G37*
G36*
Y644499D02*
X333749D01*
Y635249D01*
X351899D01*
Y644499D01*
D02*
G37*
G36*
X907250Y611500D02*
X901750D01*
Y605250D01*
X907250D01*
Y611500D01*
D02*
G37*
G36*
X899750D02*
X894250D01*
Y605250D01*
X899750D01*
Y611500D01*
D02*
G37*
G36*
X907250Y603250D02*
X901750D01*
Y597000D01*
X907250D01*
Y603250D01*
D02*
G37*
G36*
X899750D02*
X894250D01*
Y597000D01*
X899750D01*
Y603250D01*
D02*
G37*
G36*
X276521Y342781D02*
X270750D01*
Y328250D01*
X276521D01*
Y342781D01*
D02*
G37*
G36*
X268750D02*
X262979D01*
Y328250D01*
X268750D01*
Y342781D01*
D02*
G37*
G36*
X276521Y326250D02*
X270750D01*
Y311719D01*
X276521D01*
Y326250D01*
D02*
G37*
G36*
X268750D02*
X262979D01*
Y311719D01*
X268750D01*
Y326250D01*
D02*
G37*
G36*
X410537Y318813D02*
X407090D01*
X403709Y318141D01*
X400524Y316822D01*
X397658Y314907D01*
X395220Y312469D01*
X393305Y309603D01*
X391986Y306418D01*
X391314Y303037D01*
Y299590D01*
X391986Y296209D01*
X393305Y293024D01*
X395220Y290158D01*
X397658Y287720D01*
X400524Y285805D01*
X403709Y284486D01*
X407090Y283813D01*
X410537D01*
X413918Y284486D01*
X417103Y285805D01*
X419969Y287720D01*
X422407Y290158D01*
X424322Y293024D01*
X425641Y296209D01*
X426314Y299590D01*
Y303037D01*
X425641Y306418D01*
X424322Y309603D01*
X422407Y312469D01*
X419969Y314907D01*
X417103Y316822D01*
X413918Y318141D01*
X410537Y318813D01*
D02*
G37*
G36*
X359750Y249000D02*
X341600D01*
Y239750D01*
X359750D01*
Y249000D01*
D02*
G37*
G36*
X282050D02*
X263900D01*
Y239750D01*
X282050D01*
Y249000D01*
D02*
G37*
G36*
X339600D02*
X321450D01*
Y239750D01*
X339600D01*
Y249000D01*
D02*
G37*
G36*
X261900D02*
X243750D01*
Y239750D01*
X261900D01*
Y249000D01*
D02*
G37*
G36*
X359750Y237750D02*
X341600D01*
Y228500D01*
X359750D01*
Y237750D01*
D02*
G37*
G36*
X339600D02*
X321450D01*
Y228500D01*
X339600D01*
Y237750D01*
D02*
G37*
G36*
X282050D02*
X263900D01*
Y228500D01*
X282050D01*
Y237750D01*
D02*
G37*
G36*
X261900D02*
X243750D01*
Y228500D01*
X261900D01*
Y237750D01*
D02*
G37*
G36*
X310100Y206450D02*
X302750D01*
Y192750D01*
X310100D01*
Y206450D01*
D02*
G37*
G36*
X300750D02*
X293400D01*
Y192750D01*
X300750D01*
Y206450D01*
D02*
G37*
G36*
X310100Y190750D02*
X302750D01*
Y177050D01*
X310100D01*
Y190750D01*
D02*
G37*
G36*
X300750D02*
X293400D01*
Y177050D01*
X300750D01*
Y190750D01*
D02*
G37*
G36*
X653037Y76314D02*
X649590D01*
X646209Y75641D01*
X643024Y74322D01*
X640158Y72407D01*
X637720Y69969D01*
X635805Y67103D01*
X634486Y63918D01*
X633814Y60537D01*
Y57090D01*
X634486Y53709D01*
X635805Y50524D01*
X637720Y47658D01*
X640158Y45220D01*
X643024Y43305D01*
X646209Y41986D01*
X649590Y41314D01*
X653037D01*
X656418Y41986D01*
X659603Y43305D01*
X662469Y45220D01*
X664907Y47658D01*
X666822Y50524D01*
X668141Y53709D01*
X668813Y57090D01*
Y60537D01*
X668141Y63918D01*
X666822Y67103D01*
X664907Y69969D01*
X662469Y72407D01*
X659603Y74322D01*
X656418Y75641D01*
X653037Y76314D01*
D02*
G37*
G36*
X410537D02*
X407090D01*
X403709Y75641D01*
X400524Y74322D01*
X397658Y72407D01*
X395220Y69969D01*
X393305Y67103D01*
X391986Y63918D01*
X391314Y60537D01*
Y57090D01*
X391986Y53709D01*
X393305Y50524D01*
X395220Y47658D01*
X397658Y45220D01*
X400524Y43305D01*
X403709Y41986D01*
X407090Y41314D01*
X410537D01*
X413918Y41986D01*
X417103Y43305D01*
X419969Y45220D01*
X422407Y47658D01*
X424322Y50524D01*
X425641Y53709D01*
X426314Y57090D01*
Y60537D01*
X425641Y63918D01*
X424322Y67103D01*
X422407Y69969D01*
X419969Y72407D01*
X417103Y74322D01*
X413918Y75641D01*
X410537Y76314D01*
D02*
G37*
G36*
X535662Y322564D02*
X524465D01*
X513302Y321685D01*
X502242Y319933D01*
X491353Y317319D01*
X480704Y313859D01*
X470359Y309574D01*
X460381Y304490D01*
X450834Y298639D01*
X441775Y292057D01*
X433260Y284785D01*
X425342Y276867D01*
X418069Y268352D01*
X411488Y259293D01*
X405637Y249746D01*
X400553Y239769D01*
X396268Y229423D01*
X392808Y218774D01*
X390194Y207885D01*
X388442Y196826D01*
X387564Y185662D01*
Y174465D01*
X388442Y163302D01*
X390194Y152242D01*
X392808Y141353D01*
X396268Y130704D01*
X400553Y120358D01*
X405637Y110381D01*
X411488Y100834D01*
X418069Y91775D01*
X425342Y83260D01*
X433260Y75342D01*
X441775Y68070D01*
X450834Y61488D01*
X460381Y55637D01*
X470359Y50553D01*
X480704Y46268D01*
X491353Y42808D01*
X502242Y40194D01*
X513302Y38442D01*
X524465Y37564D01*
X535662D01*
X546825Y38442D01*
X557885Y40194D01*
X568774Y42808D01*
X579423Y46268D01*
X589768Y50553D01*
X599746Y55637D01*
X609293Y61488D01*
X618353Y68070D01*
X626867Y75342D01*
X634785Y83260D01*
X642057Y91775D01*
X648639Y100834D01*
X654490Y110381D01*
X659574Y120358D01*
X663859Y130704D01*
X667319Y141353D01*
X669933Y152242D01*
X671685Y163302D01*
X672563Y174465D01*
Y185662D01*
X671685Y196826D01*
X669933Y207885D01*
X667319Y218774D01*
X663859Y229423D01*
X659574Y239769D01*
X654490Y249746D01*
X648639Y259293D01*
X642057Y268352D01*
X634785Y276867D01*
X626867Y284785D01*
X618353Y292057D01*
X609293Y298639D01*
X599746Y304490D01*
X589768Y309574D01*
X579423Y313859D01*
X568774Y317319D01*
X557885Y319933D01*
X546825Y321685D01*
X535662Y322564D01*
D02*
G37*
%LPD*%
G36*
X532500Y935000D02*
X505000D01*
Y1015250D01*
X532500D01*
Y935000D01*
D02*
G37*
G36*
X541144Y932191D02*
X539725Y931372D01*
X537928Y929575D01*
X536658Y927375D01*
X536000Y924921D01*
Y922380D01*
X536658Y919925D01*
X537928Y917725D01*
X539725Y915928D01*
X541925Y914658D01*
X544380Y914000D01*
X546920D01*
X549375Y914658D01*
X551575Y915928D01*
X553372Y917725D01*
X554642Y919925D01*
X555200Y922007D01*
X557089Y922946D01*
X590722Y889314D01*
Y814220D01*
X590722Y814219D01*
X590955Y813049D01*
X591618Y812056D01*
X635337Y768337D01*
X636329Y767674D01*
X637500Y767441D01*
X747401D01*
X748051Y766599D01*
X747069Y764599D01*
X725551D01*
Y747899D01*
X731669D01*
X732435Y746051D01*
X721973Y735590D01*
X721311Y734598D01*
X721078Y733427D01*
X721078Y733427D01*
Y724914D01*
X719728Y723807D01*
X717951Y724570D01*
Y734599D01*
X708031D01*
X706310Y735349D01*
X706077Y736520D01*
X705414Y737512D01*
X697763Y745163D01*
X696770Y745826D01*
X696402Y745899D01*
X696599Y747899D01*
X702251D01*
Y755249D01*
X688551D01*
Y748059D01*
X688551Y747899D01*
X688166Y746059D01*
X653669D01*
X652286Y748059D01*
X652309Y748172D01*
X652309Y748172D01*
Y754827D01*
X652309Y754828D01*
X652076Y755998D01*
X651413Y756991D01*
X651413Y756991D01*
X650241Y758162D01*
X649249Y758825D01*
X648078Y759058D01*
X648078Y759058D01*
X623951D01*
Y764599D01*
X594551D01*
Y750059D01*
X563093D01*
X563093Y750059D01*
X561923Y749826D01*
X560930Y749163D01*
X557300Y745533D01*
X555300Y746361D01*
Y747121D01*
X554642Y749575D01*
X553372Y751775D01*
X551575Y753572D01*
X549375Y754842D01*
X546920Y755500D01*
X544380D01*
X541925Y754842D01*
X539725Y753572D01*
X537928Y751775D01*
X536658Y749575D01*
X536000Y747121D01*
Y744579D01*
X536658Y742125D01*
X537735Y740259D01*
X537064Y738259D01*
X528836D01*
X528165Y740259D01*
X529242Y742125D01*
X529900Y744579D01*
Y744850D01*
X520250D01*
X510600D01*
Y744579D01*
X511258Y742125D01*
X512335Y740259D01*
X511664Y738259D01*
X511043D01*
X509873Y738026D01*
X508880Y737363D01*
X508880Y737363D01*
X493337Y721820D01*
X492674Y720827D01*
X492441Y719657D01*
X492441Y719657D01*
Y642767D01*
X435532Y585858D01*
X430099D01*
Y597499D01*
X421749D01*
X413399D01*
Y585858D01*
X400099D01*
Y603273D01*
X409775Y612949D01*
X410438Y613942D01*
X410671Y615112D01*
Y669455D01*
X410671Y669455D01*
X410438Y670626D01*
X409775Y671618D01*
X409775Y671618D01*
X408604Y672790D01*
X408508Y672854D01*
X408071Y675245D01*
X411551Y678726D01*
X413399Y677960D01*
Y677799D01*
X430099D01*
Y707199D01*
X413399D01*
Y687380D01*
X412821D01*
X411650Y687147D01*
X410658Y686484D01*
X410658Y686484D01*
X402099Y677925D01*
X400099Y678753D01*
X400099Y679404D01*
Y697101D01*
X401235D01*
X403186Y697489D01*
X404840Y698594D01*
X408355Y702109D01*
X409460Y703763D01*
X409848Y705714D01*
Y717638D01*
X411401Y719191D01*
X413401Y718363D01*
Y711801D01*
X430101D01*
Y741201D01*
X429820D01*
Y746750D01*
Y786795D01*
X503735Y860710D01*
X505017Y862381D01*
X505824Y864327D01*
X506099Y866416D01*
Y932961D01*
X513215D01*
X513416Y932673D01*
X513914Y930961D01*
X512528Y929575D01*
X511258Y927375D01*
X510600Y924921D01*
Y924650D01*
X520250D01*
X529900D01*
Y924921D01*
X529242Y927375D01*
X527972Y929575D01*
X526586Y930961D01*
X527084Y932673D01*
X527285Y932961D01*
X532500D01*
X533280Y933116D01*
X533942Y933558D01*
X534365Y934191D01*
X540608D01*
X541144Y932191D01*
D02*
G37*
G36*
X589768Y737941D02*
X576337Y724510D01*
X575674Y723518D01*
X575441Y722348D01*
X575441Y722347D01*
Y640017D01*
X570123Y634698D01*
X552406D01*
X551835Y635956D01*
X551746Y636698D01*
X553372Y638325D01*
X554642Y640525D01*
X555300Y642980D01*
Y645520D01*
X554642Y647975D01*
X553372Y650175D01*
X551575Y651972D01*
X549375Y653242D01*
X546920Y653900D01*
X544380D01*
X541925Y653242D01*
X539725Y651972D01*
X537928Y650175D01*
X536658Y647975D01*
X536000Y645520D01*
Y642980D01*
X536658Y640525D01*
X537928Y638325D01*
X539554Y636698D01*
X539465Y635956D01*
X538894Y634698D01*
X527006D01*
X526435Y635956D01*
X526346Y636698D01*
X527972Y638325D01*
X529242Y640525D01*
X529900Y642980D01*
Y643250D01*
X520250D01*
X510600D01*
Y642980D01*
X511258Y640525D01*
X512528Y638325D01*
X514154Y636698D01*
X514065Y635956D01*
X513494Y634698D01*
X509640D01*
X508469Y634466D01*
X507477Y633803D01*
X489087Y615413D01*
X488424Y614421D01*
X488191Y613250D01*
X488191Y613250D01*
Y499017D01*
X483483Y494309D01*
X430913D01*
X427059Y498163D01*
X426066Y498826D01*
X424896Y499059D01*
X424896Y499059D01*
X341561D01*
X339426Y501194D01*
X338434Y501857D01*
X337263Y502090D01*
X337263Y502090D01*
X325237D01*
X325237Y502090D01*
X324066Y501857D01*
X323074Y501194D01*
X319916Y498036D01*
X319252Y497043D01*
X319020Y495873D01*
X319020Y495873D01*
Y469127D01*
X319020Y469127D01*
X319252Y467957D01*
X319916Y466964D01*
X330107Y456773D01*
X331099Y456110D01*
X332270Y455877D01*
X334588D01*
X335531Y454065D01*
X335475Y453877D01*
X333266Y452602D01*
X331358Y450694D01*
X330009Y448356D01*
X329310Y445749D01*
Y443051D01*
X330009Y440444D01*
X331246Y438300D01*
X330991Y437608D01*
X330158Y436478D01*
X329750Y436559D01*
X329750Y436559D01*
X296928D01*
X292324Y441163D01*
X291332Y441826D01*
X290161Y442059D01*
X290161Y442059D01*
X278282D01*
X263309Y457032D01*
Y476326D01*
X362723Y575740D01*
X383401D01*
Y563750D01*
X400101D01*
Y575740D01*
X413401D01*
Y548050D01*
X430101D01*
Y575740D01*
X438456D01*
X438456Y575740D01*
X439627Y575973D01*
X440619Y576636D01*
X501663Y637680D01*
X501663Y637680D01*
X502326Y638673D01*
X502559Y639843D01*
X502559Y639843D01*
Y716733D01*
X508889Y723064D01*
X510682Y722028D01*
X510600Y721721D01*
Y721450D01*
X520250D01*
X529900D01*
Y721721D01*
X529242Y724175D01*
X528107Y726141D01*
X528706Y728141D01*
X537194D01*
X537793Y726141D01*
X536658Y724175D01*
X536000Y721721D01*
Y719180D01*
X536658Y716725D01*
X537928Y714525D01*
X539725Y712728D01*
X541925Y711458D01*
X544380Y710800D01*
X546920D01*
X549375Y711458D01*
X551575Y712728D01*
X553372Y714525D01*
X554642Y716725D01*
X555300Y719180D01*
Y721721D01*
X554642Y724175D01*
X553470Y726205D01*
X553496Y726706D01*
X554119Y728370D01*
X554169Y728407D01*
X555113Y729037D01*
X566017Y739941D01*
X588939D01*
X589768Y737941D01*
D02*
G37*
G36*
X866297Y649170D02*
X865138Y647500D01*
X864500Y647500D01*
X853500D01*
Y634000D01*
X856441D01*
Y611000D01*
X853500D01*
Y607309D01*
X848950D01*
Y613350D01*
X819550D01*
Y596650D01*
X848950D01*
Y601191D01*
X853500D01*
Y597500D01*
X864500D01*
X866000Y597500D01*
X867500Y597500D01*
X878250D01*
Y597000D01*
X881691D01*
Y591000D01*
X881691Y591000D01*
X881924Y589829D01*
X882587Y588837D01*
X962441Y508983D01*
Y369637D01*
X926893Y334090D01*
X903916D01*
X903021Y335719D01*
X903021Y336090D01*
Y350250D01*
X896250D01*
X889479D01*
Y336090D01*
X889479Y335719D01*
X888584Y334090D01*
X871416D01*
X870521Y335719D01*
Y366781D01*
X869098D01*
Y376961D01*
X919000D01*
X919780Y377116D01*
X920442Y377558D01*
X920884Y378220D01*
X921039Y379000D01*
Y442301D01*
Y473325D01*
X921025Y473394D01*
X921034Y473465D01*
X920948Y473782D01*
X920884Y474105D01*
X920845Y474164D01*
X920826Y474232D01*
X920625Y474493D01*
X920442Y474767D01*
X920383Y474806D01*
X920340Y474862D01*
X861905Y525787D01*
X861619Y525951D01*
X861346Y526134D01*
X861276Y526148D01*
X861215Y526183D01*
X860888Y526225D01*
X860565Y526289D01*
X838250Y526289D01*
X837470Y526134D01*
X836954Y525789D01*
X589345D01*
X575539Y539595D01*
Y555431D01*
X602221D01*
X604310Y555706D01*
X606256Y556512D01*
X607927Y557794D01*
X614957Y564824D01*
X616239Y566495D01*
X617045Y568441D01*
X617320Y570529D01*
Y646499D01*
X617320Y646500D01*
X617320Y646501D01*
Y716438D01*
X618951Y717801D01*
X619443Y717899D01*
X623951D01*
Y722351D01*
X646310D01*
X660112Y708549D01*
X659284Y706549D01*
X657251D01*
Y688399D01*
X666501D01*
Y705551D01*
X681239D01*
X686395Y700395D01*
X688049Y699290D01*
X690000Y698902D01*
X704469D01*
Y695729D01*
X735531D01*
Y699173D01*
X736736D01*
X738687Y699561D01*
X740341Y700666D01*
X743856Y704181D01*
X744961Y705835D01*
X745349Y707785D01*
Y717899D01*
X754951D01*
Y734599D01*
X732247D01*
X731482Y736447D01*
X740943Y745908D01*
X741606Y746900D01*
X741804Y747899D01*
X754951D01*
Y757903D01*
X756799Y758668D01*
X866297Y649170D01*
D02*
G37*
G36*
X404553Y663458D02*
Y616379D01*
X401000Y612826D01*
X400099Y613199D01*
Y613199D01*
X383399D01*
Y585858D01*
X359799D01*
X359799Y585858D01*
X358629Y585625D01*
X357636Y584962D01*
X254087Y481413D01*
X253424Y480420D01*
X253191Y479250D01*
X253191Y479250D01*
Y454108D01*
X253191Y454108D01*
X253424Y452937D01*
X254087Y451945D01*
X272952Y433080D01*
X272966Y431970D01*
X272655Y430792D01*
X272244Y430622D01*
X269542Y428816D01*
X267244Y426518D01*
X265438Y423816D01*
X264194Y420813D01*
X263560Y417625D01*
Y414375D01*
X264194Y411187D01*
X265438Y408184D01*
X267244Y405482D01*
X269542Y403184D01*
X272244Y401378D01*
X275247Y400134D01*
X278435Y399500D01*
X281685D01*
X284873Y400134D01*
X287876Y401378D01*
X290578Y403184D01*
X292876Y405482D01*
X294682Y408184D01*
X295926Y411187D01*
X296560Y414375D01*
Y417625D01*
X295926Y420813D01*
X294682Y423816D01*
X294264Y424441D01*
X295333Y426441D01*
X322250D01*
Y426005D01*
X323011Y424168D01*
X324418Y422761D01*
X326255Y422000D01*
X327682D01*
X329338Y420453D01*
X329310Y420349D01*
Y417651D01*
X330009Y415044D01*
X331358Y412706D01*
X333266Y410798D01*
X335604Y409449D01*
X338211Y408750D01*
X340909D01*
X343516Y409449D01*
X345854Y410798D01*
X347762Y412706D01*
X348133Y413348D01*
X350115Y413609D01*
X358137Y405587D01*
X358137Y405587D01*
X359130Y404924D01*
X359832Y404784D01*
X360266Y403449D01*
X360246Y402714D01*
X358666Y401802D01*
X356758Y399894D01*
X355409Y397556D01*
X354710Y394949D01*
Y392251D01*
X355409Y389644D01*
X356758Y387306D01*
X358666Y385398D01*
X361004Y384049D01*
X363611Y383350D01*
X366309D01*
X368916Y384049D01*
X371254Y385398D01*
X373162Y387306D01*
X374511Y389644D01*
X375210Y392251D01*
Y394949D01*
X374511Y397556D01*
X373162Y399894D01*
X371254Y401802D01*
X369674Y402714D01*
X369654Y403449D01*
X370088Y404784D01*
X370790Y404924D01*
X371783Y405587D01*
X379502Y413306D01*
X380880Y413382D01*
X381905Y413144D01*
X382158Y412706D01*
X384066Y410798D01*
X386404Y409449D01*
X389011Y408750D01*
X391709D01*
X394316Y409449D01*
X396654Y410798D01*
X398562Y412706D01*
X398944Y413368D01*
X400944Y412832D01*
Y405357D01*
X400944Y405357D01*
X401177Y404187D01*
X401840Y403194D01*
X406673Y398361D01*
X406208Y397556D01*
X405510Y394949D01*
Y392251D01*
X406208Y389644D01*
X407558Y387306D01*
X409466Y385398D01*
X411804Y384049D01*
X414411Y383350D01*
X417109D01*
X419716Y384049D01*
X422054Y385398D01*
X423962Y387306D01*
X425312Y389644D01*
X426010Y392251D01*
Y394949D01*
X425312Y397556D01*
X423962Y399894D01*
X422054Y401802D01*
X419716Y403152D01*
X417109Y403850D01*
X414411D01*
X411804Y403152D01*
X410999Y402687D01*
X407062Y406624D01*
Y410374D01*
X409062Y411203D01*
X409466Y410798D01*
X411804Y409449D01*
X414411Y408750D01*
X417109D01*
X419716Y409449D01*
X422054Y410798D01*
X423962Y412706D01*
X425312Y415044D01*
X426010Y417651D01*
Y420349D01*
X425312Y422956D01*
X423962Y425294D01*
X422054Y427202D01*
X419716Y428551D01*
X417109Y429250D01*
X414411D01*
X411804Y428551D01*
X409466Y427202D01*
X407558Y425294D01*
X407402Y425023D01*
X404902Y424693D01*
X397183Y432413D01*
X396190Y433076D01*
X395488Y433216D01*
X395054Y434551D01*
X395074Y435286D01*
X396654Y436198D01*
X398562Y438106D01*
X399911Y440444D01*
X400610Y443051D01*
Y445749D01*
X399911Y448356D01*
X398562Y450694D01*
X397206Y452050D01*
X397986Y454050D01*
X400101D01*
Y483450D01*
X401424Y484902D01*
X412078D01*
X413401Y483450D01*
Y454379D01*
X411804Y453951D01*
X409466Y452602D01*
X407558Y450694D01*
X406208Y448356D01*
X405510Y445749D01*
Y443051D01*
X406208Y440444D01*
X407558Y438106D01*
X409466Y436198D01*
X411804Y434849D01*
X414411Y434150D01*
X417109D01*
X419716Y434849D01*
X422054Y436198D01*
X423962Y438106D01*
X425312Y440444D01*
X426010Y443051D01*
Y445749D01*
X425312Y448356D01*
X423962Y450694D01*
X422606Y452050D01*
X423386Y454050D01*
X430101D01*
Y471150D01*
X484248D01*
X486199Y471538D01*
X487853Y472644D01*
X506413Y491203D01*
X535308Y462308D01*
X535970Y461866D01*
X536750Y461711D01*
X838275D01*
X856961Y443560D01*
Y379000D01*
X857116Y378220D01*
X857558Y377558D01*
X858220Y377116D01*
X858902Y376980D01*
Y366781D01*
X856979D01*
Y335719D01*
X856084Y334090D01*
X616086D01*
X589763Y360413D01*
X588771Y361076D01*
X587600Y361309D01*
X587600Y361309D01*
X467229D01*
X466622Y363309D01*
X466665Y363337D01*
X480519Y377191D01*
X496332D01*
X496332Y377191D01*
X497503Y377424D01*
X498495Y378087D01*
X507165Y386757D01*
X508286Y387066D01*
X509716Y386748D01*
X511066Y385398D01*
X513404Y384049D01*
X516011Y383350D01*
X518709D01*
X521316Y384049D01*
X523654Y385398D01*
X525562Y387306D01*
X526912Y389644D01*
X527610Y392251D01*
Y394949D01*
X526912Y397556D01*
X525562Y399894D01*
X523654Y401802D01*
X521316Y403152D01*
X518709Y403850D01*
X516011D01*
X513404Y403152D01*
X511066Y401802D01*
X510518Y401253D01*
X508518Y402082D01*
Y405832D01*
X512599Y409913D01*
X513404Y409449D01*
X516011Y408750D01*
X518709D01*
X521316Y409449D01*
X523654Y410798D01*
X525562Y412706D01*
X526912Y415044D01*
X527610Y417651D01*
Y420349D01*
X526912Y422956D01*
X525562Y425294D01*
X523654Y427202D01*
X521316Y428551D01*
X518709Y429250D01*
X516011D01*
X513404Y428551D01*
X511066Y427202D01*
X509158Y425294D01*
X507808Y422956D01*
X507110Y420349D01*
Y417651D01*
X507808Y415044D01*
X508273Y414239D01*
X503296Y409262D01*
X502633Y408269D01*
X502400Y407099D01*
X502400Y407099D01*
Y400017D01*
X500400Y399481D01*
X500162Y399894D01*
X498254Y401802D01*
X495916Y403152D01*
X493309Y403850D01*
X490611D01*
X488004Y403152D01*
X485666Y401802D01*
X485059Y401194D01*
X483059Y402023D01*
Y405773D01*
X487199Y409913D01*
X488004Y409449D01*
X490611Y408750D01*
X493309D01*
X495916Y409449D01*
X498254Y410798D01*
X500162Y412706D01*
X501511Y415044D01*
X502210Y417651D01*
Y420349D01*
X501511Y422956D01*
X500162Y425294D01*
X498254Y427202D01*
X495916Y428551D01*
X493309Y429250D01*
X490611D01*
X488004Y428551D01*
X485666Y427202D01*
X483758Y425294D01*
X482408Y422956D01*
X481710Y420349D01*
Y417651D01*
X482408Y415044D01*
X482873Y414239D01*
X477837Y409203D01*
X477174Y408210D01*
X476941Y407040D01*
X476941Y407040D01*
Y400119D01*
X474941Y399583D01*
X474762Y399894D01*
X472854Y401802D01*
X470516Y403152D01*
X467909Y403850D01*
X465211D01*
X462604Y403152D01*
X460266Y401802D01*
X458358Y399894D01*
X457009Y397556D01*
X456310Y394949D01*
Y392251D01*
X457009Y389644D01*
X458358Y387306D01*
X460266Y385398D01*
X462604Y384049D01*
X465211Y383350D01*
X467909D01*
X470138Y383947D01*
X470993Y382989D01*
X471308Y382289D01*
X461578Y372559D01*
X295704D01*
X238464Y429799D01*
Y482451D01*
X379367Y623354D01*
X379367Y623355D01*
X380030Y624347D01*
X380263Y625518D01*
Y641780D01*
X402706Y664223D01*
X404553Y663458D01*
D02*
G37*
G36*
X573500Y538750D02*
X588500Y523750D01*
X838250D01*
Y524250D01*
X860565Y524250D01*
X919000Y473325D01*
Y442301D01*
Y379000D01*
X859000D01*
Y444423D01*
X839102Y463750D01*
X536750D01*
X494309Y506191D01*
Y506750D01*
Y608500D01*
X573500D01*
Y538750D01*
D02*
G37*
%LPC*%
G36*
X521520Y1009500D02*
X521250D01*
Y1000850D01*
X529900D01*
Y1001121D01*
X529242Y1003575D01*
X527972Y1005775D01*
X526175Y1007572D01*
X523975Y1008842D01*
X521520Y1009500D01*
D02*
G37*
G36*
X519250D02*
X518979D01*
X516525Y1008842D01*
X514325Y1007572D01*
X512528Y1005775D01*
X511258Y1003575D01*
X510600Y1001121D01*
Y1000850D01*
X519250D01*
Y1009500D01*
D02*
G37*
G36*
X529900Y998850D02*
X521250D01*
Y990200D01*
X521520D01*
X523975Y990858D01*
X526175Y992128D01*
X527972Y993925D01*
X529242Y996125D01*
X529900Y998579D01*
Y998850D01*
D02*
G37*
G36*
X519250D02*
X510600D01*
Y998579D01*
X511258Y996125D01*
X512528Y993925D01*
X514325Y992128D01*
X516525Y990858D01*
X518979Y990200D01*
X519250D01*
Y998850D01*
D02*
G37*
G36*
X521520Y984100D02*
X521250D01*
Y975450D01*
X529900D01*
Y975721D01*
X529242Y978175D01*
X527972Y980375D01*
X526175Y982172D01*
X523975Y983442D01*
X521520Y984100D01*
D02*
G37*
G36*
X519250D02*
X518979D01*
X516525Y983442D01*
X514325Y982172D01*
X512528Y980375D01*
X511258Y978175D01*
X510600Y975721D01*
Y975450D01*
X519250D01*
Y984100D01*
D02*
G37*
G36*
X529900Y973450D02*
X521250D01*
Y964800D01*
X521520D01*
X523975Y965458D01*
X526175Y966728D01*
X527972Y968525D01*
X529242Y970725D01*
X529900Y973179D01*
Y973450D01*
D02*
G37*
G36*
X519250D02*
X510600D01*
Y973179D01*
X511258Y970725D01*
X512528Y968525D01*
X514325Y966728D01*
X516525Y965458D01*
X518979Y964800D01*
X519250D01*
Y973450D01*
D02*
G37*
G36*
X521520Y958700D02*
X521250D01*
Y950050D01*
X529900D01*
Y950321D01*
X529242Y952775D01*
X527972Y954975D01*
X526175Y956772D01*
X523975Y958042D01*
X521520Y958700D01*
D02*
G37*
G36*
X519250D02*
X518979D01*
X516525Y958042D01*
X514325Y956772D01*
X512528Y954975D01*
X511258Y952775D01*
X510600Y950321D01*
Y950050D01*
X519250D01*
Y958700D01*
D02*
G37*
G36*
X529900Y948050D02*
X521250D01*
Y939400D01*
X521520D01*
X523975Y940058D01*
X526175Y941328D01*
X527972Y943125D01*
X529242Y945325D01*
X529900Y947779D01*
Y948050D01*
D02*
G37*
G36*
X519250D02*
X510600D01*
Y947779D01*
X511258Y945325D01*
X512528Y943125D01*
X514325Y941328D01*
X516525Y940058D01*
X518979Y939400D01*
X519250D01*
Y948050D01*
D02*
G37*
G36*
X529900Y922650D02*
X521250D01*
Y914000D01*
X521520D01*
X523975Y914658D01*
X526175Y915928D01*
X527972Y917725D01*
X529242Y919925D01*
X529900Y922380D01*
Y922650D01*
D02*
G37*
G36*
X519250D02*
X510600D01*
Y922380D01*
X511258Y919925D01*
X512528Y917725D01*
X514325Y915928D01*
X516525Y914658D01*
X518979Y914000D01*
X519250D01*
Y922650D01*
D02*
G37*
G36*
X546920Y907900D02*
X546650D01*
Y899250D01*
X555300D01*
Y899520D01*
X554642Y901975D01*
X553372Y904175D01*
X551575Y905972D01*
X549375Y907242D01*
X546920Y907900D01*
D02*
G37*
G36*
X544650D02*
X544380D01*
X541925Y907242D01*
X539725Y905972D01*
X537928Y904175D01*
X536658Y901975D01*
X536000Y899520D01*
Y899250D01*
X544650D01*
Y907900D01*
D02*
G37*
G36*
X555300Y897250D02*
X546650D01*
Y888600D01*
X546920D01*
X549375Y889258D01*
X551575Y890528D01*
X553372Y892325D01*
X554642Y894525D01*
X555300Y896980D01*
Y897250D01*
D02*
G37*
G36*
X544650D02*
X536000D01*
Y896980D01*
X536658Y894525D01*
X537928Y892325D01*
X539725Y890528D01*
X541925Y889258D01*
X544380Y888600D01*
X544650D01*
Y897250D01*
D02*
G37*
G36*
X521520Y907900D02*
X518979D01*
X516525Y907242D01*
X514325Y905972D01*
X512528Y904175D01*
X511258Y901975D01*
X510600Y899520D01*
Y896980D01*
X511258Y894525D01*
X512528Y892325D01*
X514325Y890528D01*
X516525Y889258D01*
X518979Y888600D01*
X521520D01*
X523975Y889258D01*
X526175Y890528D01*
X527972Y892325D01*
X529242Y894525D01*
X529900Y896980D01*
Y899520D01*
X529242Y901975D01*
X527972Y904175D01*
X526175Y905972D01*
X523975Y907242D01*
X521520Y907900D01*
D02*
G37*
G36*
X546920Y882500D02*
X544380D01*
X541925Y881842D01*
X539725Y880572D01*
X537928Y878775D01*
X536658Y876575D01*
X536000Y874120D01*
Y871580D01*
X536658Y869125D01*
X537928Y866925D01*
X539725Y865128D01*
X541925Y863858D01*
X544380Y863200D01*
X546920D01*
X549375Y863858D01*
X551575Y865128D01*
X553372Y866925D01*
X554642Y869125D01*
X555300Y871580D01*
Y874120D01*
X554642Y876575D01*
X553372Y878775D01*
X551575Y880572D01*
X549375Y881842D01*
X546920Y882500D01*
D02*
G37*
G36*
X521520D02*
X518979D01*
X516525Y881842D01*
X514325Y880572D01*
X512528Y878775D01*
X511258Y876575D01*
X510600Y874120D01*
Y871580D01*
X511258Y869125D01*
X512528Y866925D01*
X514325Y865128D01*
X516525Y863858D01*
X518979Y863200D01*
X521520D01*
X523975Y863858D01*
X526175Y865128D01*
X527972Y866925D01*
X529242Y869125D01*
X529900Y871580D01*
Y874120D01*
X529242Y876575D01*
X527972Y878775D01*
X526175Y880572D01*
X523975Y881842D01*
X521520Y882500D01*
D02*
G37*
G36*
Y857100D02*
X521250D01*
Y848450D01*
X529900D01*
Y848720D01*
X529242Y851175D01*
X527972Y853375D01*
X526175Y855172D01*
X523975Y856442D01*
X521520Y857100D01*
D02*
G37*
G36*
X519250D02*
X518979D01*
X516525Y856442D01*
X514325Y855172D01*
X512528Y853375D01*
X511258Y851175D01*
X510600Y848720D01*
Y848450D01*
X519250D01*
Y857100D01*
D02*
G37*
G36*
X546920D02*
X544380D01*
X541925Y856442D01*
X539725Y855172D01*
X537928Y853375D01*
X536658Y851175D01*
X536000Y848720D01*
Y846180D01*
X536658Y843725D01*
X537928Y841525D01*
X539725Y839728D01*
X541925Y838458D01*
X544380Y837800D01*
X546920D01*
X549375Y838458D01*
X551575Y839728D01*
X553372Y841525D01*
X554642Y843725D01*
X555300Y846180D01*
Y848720D01*
X554642Y851175D01*
X553372Y853375D01*
X551575Y855172D01*
X549375Y856442D01*
X546920Y857100D01*
D02*
G37*
G36*
X529900Y846450D02*
X521250D01*
Y837800D01*
X521520D01*
X523975Y838458D01*
X526175Y839728D01*
X527972Y841525D01*
X529242Y843725D01*
X529900Y846180D01*
Y846450D01*
D02*
G37*
G36*
X519250D02*
X510600D01*
Y846180D01*
X511258Y843725D01*
X512528Y841525D01*
X514325Y839728D01*
X516525Y838458D01*
X518979Y837800D01*
X519250D01*
Y846450D01*
D02*
G37*
G36*
X521520Y831700D02*
X521250D01*
Y823050D01*
X529900D01*
Y823320D01*
X529242Y825775D01*
X527972Y827975D01*
X526175Y829772D01*
X523975Y831042D01*
X521520Y831700D01*
D02*
G37*
G36*
X519250D02*
X518979D01*
X516525Y831042D01*
X514325Y829772D01*
X512528Y827975D01*
X511258Y825775D01*
X510600Y823320D01*
Y823050D01*
X519250D01*
Y831700D01*
D02*
G37*
G36*
X546920D02*
X544380D01*
X541925Y831042D01*
X539725Y829772D01*
X537928Y827975D01*
X536658Y825775D01*
X536000Y823320D01*
Y820779D01*
X536658Y818325D01*
X537928Y816125D01*
X539725Y814328D01*
X541925Y813058D01*
X544380Y812400D01*
X546920D01*
X549375Y813058D01*
X551575Y814328D01*
X553372Y816125D01*
X554642Y818325D01*
X555300Y820779D01*
Y823320D01*
X554642Y825775D01*
X553372Y827975D01*
X551575Y829772D01*
X549375Y831042D01*
X546920Y831700D01*
D02*
G37*
G36*
X529900Y821050D02*
X521250D01*
Y812400D01*
X521520D01*
X523975Y813058D01*
X526175Y814328D01*
X527972Y816125D01*
X529242Y818325D01*
X529900Y820779D01*
Y821050D01*
D02*
G37*
G36*
X519250D02*
X510600D01*
Y820779D01*
X511258Y818325D01*
X512528Y816125D01*
X514325Y814328D01*
X516525Y813058D01*
X518979Y812400D01*
X519250D01*
Y821050D01*
D02*
G37*
G36*
X521520Y806300D02*
X521250D01*
Y797650D01*
X529900D01*
Y797921D01*
X529242Y800375D01*
X527972Y802575D01*
X526175Y804372D01*
X523975Y805642D01*
X521520Y806300D01*
D02*
G37*
G36*
X519250D02*
X518979D01*
X516525Y805642D01*
X514325Y804372D01*
X512528Y802575D01*
X511258Y800375D01*
X510600Y797921D01*
Y797650D01*
X519250D01*
Y806300D01*
D02*
G37*
G36*
X546920D02*
X544380D01*
X541925Y805642D01*
X539725Y804372D01*
X537928Y802575D01*
X536658Y800375D01*
X536000Y797921D01*
Y795379D01*
X536658Y792925D01*
X537928Y790725D01*
X539725Y788928D01*
X541925Y787658D01*
X544380Y787000D01*
X546920D01*
X549375Y787658D01*
X551575Y788928D01*
X553372Y790725D01*
X554642Y792925D01*
X555300Y795379D01*
Y797921D01*
X554642Y800375D01*
X553372Y802575D01*
X551575Y804372D01*
X549375Y805642D01*
X546920Y806300D01*
D02*
G37*
G36*
X529900Y795650D02*
X521250D01*
Y787000D01*
X521520D01*
X523975Y787658D01*
X526175Y788928D01*
X527972Y790725D01*
X529242Y792925D01*
X529900Y795379D01*
Y795650D01*
D02*
G37*
G36*
X519250D02*
X510600D01*
Y795379D01*
X511258Y792925D01*
X512528Y790725D01*
X514325Y788928D01*
X516525Y787658D01*
X518979Y787000D01*
X519250D01*
Y795650D01*
D02*
G37*
G36*
X479751Y783751D02*
X461601D01*
Y774501D01*
X479751D01*
Y783751D01*
D02*
G37*
G36*
X459601D02*
X441451D01*
Y774501D01*
X459601D01*
Y783751D01*
D02*
G37*
G36*
X521520Y780900D02*
X521250D01*
Y772250D01*
X529900D01*
Y772521D01*
X529242Y774975D01*
X527972Y777175D01*
X526175Y778972D01*
X523975Y780242D01*
X521520Y780900D01*
D02*
G37*
G36*
X519250D02*
X518979D01*
X516525Y780242D01*
X514325Y778972D01*
X512528Y777175D01*
X511258Y774975D01*
X510600Y772521D01*
Y772250D01*
X519250D01*
Y780900D01*
D02*
G37*
G36*
X479751Y772501D02*
X461601D01*
Y763251D01*
X479751D01*
Y772501D01*
D02*
G37*
G36*
X459601D02*
X441451D01*
Y763251D01*
X459601D01*
Y772501D01*
D02*
G37*
G36*
X546920Y780900D02*
X544380D01*
X541925Y780242D01*
X539725Y778972D01*
X537928Y777175D01*
X536658Y774975D01*
X536000Y772521D01*
Y769979D01*
X536658Y767525D01*
X537928Y765325D01*
X539725Y763528D01*
X541925Y762258D01*
X544380Y761600D01*
X546920D01*
X549375Y762258D01*
X551575Y763528D01*
X553372Y765325D01*
X554642Y767525D01*
X555300Y769979D01*
Y772521D01*
X554642Y774975D01*
X553372Y777175D01*
X551575Y778972D01*
X549375Y780242D01*
X546920Y780900D01*
D02*
G37*
G36*
X529900Y770250D02*
X521250D01*
Y761600D01*
X521520D01*
X523975Y762258D01*
X526175Y763528D01*
X527972Y765325D01*
X529242Y767525D01*
X529900Y769979D01*
Y770250D01*
D02*
G37*
G36*
X519250D02*
X510600D01*
Y769979D01*
X511258Y767525D01*
X512528Y765325D01*
X514325Y763528D01*
X516525Y762258D01*
X518979Y761600D01*
X519250D01*
Y770250D01*
D02*
G37*
G36*
X717951Y764599D02*
X704251D01*
Y757249D01*
X717951D01*
Y764599D01*
D02*
G37*
G36*
X702251D02*
X688551D01*
Y757249D01*
X702251D01*
Y764599D01*
D02*
G37*
G36*
X717951Y755249D02*
X704251D01*
Y747899D01*
X717951D01*
Y755249D01*
D02*
G37*
G36*
X521520Y755500D02*
X521250D01*
Y746850D01*
X529900D01*
Y747121D01*
X529242Y749575D01*
X527972Y751775D01*
X526175Y753572D01*
X523975Y754842D01*
X521520Y755500D01*
D02*
G37*
G36*
X519250D02*
X518979D01*
X516525Y754842D01*
X514325Y753572D01*
X512528Y751775D01*
X511258Y749575D01*
X510600Y747121D01*
Y746850D01*
X519250D01*
Y755500D01*
D02*
G37*
G36*
X479749Y655749D02*
X461599D01*
Y646499D01*
X479749D01*
Y655749D01*
D02*
G37*
G36*
X459599D02*
X441449D01*
Y646499D01*
X459599D01*
Y655749D01*
D02*
G37*
G36*
X479749Y644499D02*
X461599D01*
Y635249D01*
X479749D01*
Y644499D01*
D02*
G37*
G36*
X459599D02*
X441449D01*
Y635249D01*
X459599D01*
Y644499D01*
D02*
G37*
G36*
X430099Y613199D02*
X422749D01*
Y599499D01*
X430099D01*
Y613199D01*
D02*
G37*
G36*
X420749D02*
X413399D01*
Y599499D01*
X420749D01*
Y613199D01*
D02*
G37*
G36*
X529900Y719450D02*
X521250D01*
Y710800D01*
X521520D01*
X523975Y711458D01*
X526175Y712728D01*
X527972Y714525D01*
X529242Y716725D01*
X529900Y719180D01*
Y719450D01*
D02*
G37*
G36*
X519250D02*
X510600D01*
Y719180D01*
X511258Y716725D01*
X512528Y714525D01*
X514325Y712728D01*
X516525Y711458D01*
X518979Y710800D01*
X519250D01*
Y719450D01*
D02*
G37*
G36*
X521520Y704700D02*
X521250D01*
Y696050D01*
X529900D01*
Y696320D01*
X529242Y698775D01*
X527972Y700975D01*
X526175Y702772D01*
X523975Y704042D01*
X521520Y704700D01*
D02*
G37*
G36*
X519250D02*
X518979D01*
X516525Y704042D01*
X514325Y702772D01*
X512528Y700975D01*
X511258Y698775D01*
X510600Y696320D01*
Y696050D01*
X519250D01*
Y704700D01*
D02*
G37*
G36*
X546920D02*
X544380D01*
X541925Y704042D01*
X539725Y702772D01*
X537928Y700975D01*
X536658Y698775D01*
X536000Y696320D01*
Y693780D01*
X536658Y691325D01*
X537928Y689125D01*
X539725Y687328D01*
X541925Y686058D01*
X544380Y685400D01*
X546920D01*
X549375Y686058D01*
X551575Y687328D01*
X553372Y689125D01*
X554642Y691325D01*
X555300Y693780D01*
Y696320D01*
X554642Y698775D01*
X553372Y700975D01*
X551575Y702772D01*
X549375Y704042D01*
X546920Y704700D01*
D02*
G37*
G36*
X529900Y694050D02*
X521250D01*
Y685400D01*
X521520D01*
X523975Y686058D01*
X526175Y687328D01*
X527972Y689125D01*
X529242Y691325D01*
X529900Y693780D01*
Y694050D01*
D02*
G37*
G36*
X519250D02*
X510600D01*
Y693780D01*
X511258Y691325D01*
X512528Y689125D01*
X514325Y687328D01*
X516525Y686058D01*
X518979Y685400D01*
X519250D01*
Y694050D01*
D02*
G37*
G36*
X521520Y679300D02*
X521250D01*
Y670650D01*
X529900D01*
Y670920D01*
X529242Y673375D01*
X527972Y675575D01*
X526175Y677372D01*
X523975Y678642D01*
X521520Y679300D01*
D02*
G37*
G36*
X519250D02*
X518979D01*
X516525Y678642D01*
X514325Y677372D01*
X512528Y675575D01*
X511258Y673375D01*
X510600Y670920D01*
Y670650D01*
X519250D01*
Y679300D01*
D02*
G37*
G36*
X546920D02*
X544380D01*
X541925Y678642D01*
X539725Y677372D01*
X537928Y675575D01*
X536658Y673375D01*
X536000Y670920D01*
Y668380D01*
X536658Y665925D01*
X537928Y663725D01*
X539725Y661928D01*
X541925Y660658D01*
X544380Y660000D01*
X546920D01*
X549375Y660658D01*
X551575Y661928D01*
X553372Y663725D01*
X554642Y665925D01*
X555300Y668380D01*
Y670920D01*
X554642Y673375D01*
X553372Y675575D01*
X551575Y677372D01*
X549375Y678642D01*
X546920Y679300D01*
D02*
G37*
G36*
X529900Y668650D02*
X521250D01*
Y660000D01*
X521520D01*
X523975Y660658D01*
X526175Y661928D01*
X527972Y663725D01*
X529242Y665925D01*
X529900Y668380D01*
Y668650D01*
D02*
G37*
G36*
X519250D02*
X510600D01*
Y668380D01*
X511258Y665925D01*
X512528Y663725D01*
X514325Y661928D01*
X516525Y660658D01*
X518979Y660000D01*
X519250D01*
Y668650D01*
D02*
G37*
G36*
X521520Y653900D02*
X521250D01*
Y645250D01*
X529900D01*
Y645520D01*
X529242Y647975D01*
X527972Y650175D01*
X526175Y651972D01*
X523975Y653242D01*
X521520Y653900D01*
D02*
G37*
G36*
X519250D02*
X518979D01*
X516525Y653242D01*
X514325Y651972D01*
X512528Y650175D01*
X511258Y647975D01*
X510600Y645520D01*
Y645250D01*
X519250D01*
Y653900D01*
D02*
G37*
G36*
X400101Y561750D02*
X392751D01*
Y548050D01*
X400101D01*
Y561750D01*
D02*
G37*
G36*
X390751D02*
X383401D01*
Y548050D01*
X390751D01*
Y561750D01*
D02*
G37*
G36*
X479751Y526000D02*
X461601D01*
Y516750D01*
X479751D01*
Y526000D01*
D02*
G37*
G36*
X459601D02*
X441451D01*
Y516750D01*
X459601D01*
Y526000D01*
D02*
G37*
G36*
X372051D02*
X353901D01*
Y516750D01*
X372051D01*
Y526000D01*
D02*
G37*
G36*
X351901D02*
X333751D01*
Y516750D01*
X351901D01*
Y526000D01*
D02*
G37*
G36*
X479751Y514750D02*
X461601D01*
Y505500D01*
X479751D01*
Y514750D01*
D02*
G37*
G36*
X459601D02*
X441451D01*
Y505500D01*
X459601D01*
Y514750D01*
D02*
G37*
G36*
X372051D02*
X353901D01*
Y505500D01*
X372051D01*
Y514750D01*
D02*
G37*
G36*
X351901D02*
X333751D01*
Y505500D01*
X351901D01*
Y514750D01*
D02*
G37*
G36*
X305521Y498031D02*
X299750D01*
Y483500D01*
X305521D01*
Y498031D01*
D02*
G37*
G36*
X297750D02*
X291979D01*
Y483500D01*
X297750D01*
Y498031D01*
D02*
G37*
G36*
X305521Y481500D02*
X299750D01*
Y466969D01*
X305521D01*
Y481500D01*
D02*
G37*
G36*
X297750D02*
X291979D01*
Y466969D01*
X297750D01*
Y481500D01*
D02*
G37*
G36*
X797501Y706549D02*
X788251D01*
Y688399D01*
X797501D01*
Y706549D01*
D02*
G37*
G36*
X786251D02*
X777001D01*
Y688399D01*
X786251D01*
Y706549D01*
D02*
G37*
G36*
X655251D02*
X646001D01*
Y688399D01*
X655251D01*
Y706549D01*
D02*
G37*
G36*
X735531Y676771D02*
X721000D01*
Y671000D01*
X735531D01*
Y676771D01*
D02*
G37*
G36*
X719000D02*
X704469D01*
Y671000D01*
X719000D01*
Y676771D01*
D02*
G37*
G36*
X797501Y686399D02*
X788251D01*
Y668249D01*
X797501D01*
Y686399D01*
D02*
G37*
G36*
X786251D02*
X777001D01*
Y668249D01*
X786251D01*
Y686399D01*
D02*
G37*
G36*
X666501D02*
X657251D01*
Y668249D01*
X666501D01*
Y686399D01*
D02*
G37*
G36*
X655251D02*
X646001D01*
Y668249D01*
X655251D01*
Y686399D01*
D02*
G37*
G36*
X735531Y669000D02*
X721000D01*
Y663229D01*
X735531D01*
Y669000D01*
D02*
G37*
G36*
X719000D02*
X704469D01*
Y663229D01*
X719000D01*
Y669000D01*
D02*
G37*
G36*
X648521Y662031D02*
X642750D01*
Y647500D01*
X648521D01*
Y662031D01*
D02*
G37*
G36*
X640750D02*
X634979D01*
Y647500D01*
X640750D01*
Y662031D01*
D02*
G37*
G36*
X797500Y663000D02*
X788250D01*
Y644850D01*
X797500D01*
Y663000D01*
D02*
G37*
G36*
X786250D02*
X777000D01*
Y644850D01*
X786250D01*
Y663000D01*
D02*
G37*
G36*
X648521Y645500D02*
X642750D01*
Y630969D01*
X648521D01*
Y645500D01*
D02*
G37*
G36*
X640750D02*
X634979D01*
Y630969D01*
X640750D01*
Y645500D01*
D02*
G37*
G36*
X797500Y642850D02*
X788250D01*
Y624700D01*
X797500D01*
Y642850D01*
D02*
G37*
G36*
X786250D02*
X777000D01*
Y624700D01*
X786250D01*
Y642850D01*
D02*
G37*
G36*
X754950Y613350D02*
X741250D01*
Y606000D01*
X754950D01*
Y613350D01*
D02*
G37*
G36*
X739250D02*
X725550D01*
Y606000D01*
X739250D01*
Y613350D01*
D02*
G37*
G36*
X754950Y604000D02*
X741250D01*
Y596650D01*
X754950D01*
Y604000D01*
D02*
G37*
G36*
X739250D02*
X725550D01*
Y596650D01*
X739250D01*
Y604000D01*
D02*
G37*
G36*
X797500Y585300D02*
X788250D01*
Y567150D01*
X797500D01*
Y585300D01*
D02*
G37*
G36*
X786250D02*
X777000D01*
Y567150D01*
X786250D01*
Y585300D01*
D02*
G37*
G36*
X797500Y565150D02*
X788250D01*
Y547000D01*
X797500D01*
Y565150D01*
D02*
G37*
G36*
X786250D02*
X777000D01*
Y547000D01*
X786250D01*
Y565150D01*
D02*
G37*
G36*
X941513Y419750D02*
X941060D01*
Y406000D01*
X954810D01*
Y406453D01*
X954243Y409302D01*
X953131Y411987D01*
X951517Y414403D01*
X949463Y416457D01*
X947047Y418071D01*
X944362Y419183D01*
X941513Y419750D01*
D02*
G37*
G36*
X939060D02*
X938607D01*
X935758Y419183D01*
X933073Y418071D01*
X930657Y416457D01*
X928603Y414403D01*
X926989Y411987D01*
X925877Y409302D01*
X925310Y406453D01*
Y406000D01*
X939060D01*
Y419750D01*
D02*
G37*
G36*
X954810Y404000D02*
X941060D01*
Y390250D01*
X941513D01*
X944362Y390817D01*
X947047Y391929D01*
X949463Y393543D01*
X951517Y395597D01*
X953131Y398013D01*
X954243Y400698D01*
X954810Y403547D01*
Y404000D01*
D02*
G37*
G36*
X939060D02*
X925310D01*
Y403547D01*
X925877Y400698D01*
X926989Y398013D01*
X928603Y395597D01*
X930657Y393543D01*
X933073Y391929D01*
X935758Y390817D01*
X938607Y390250D01*
X939060D01*
Y404000D01*
D02*
G37*
G36*
X903021Y366781D02*
X897250D01*
Y352250D01*
X903021D01*
Y366781D01*
D02*
G37*
G36*
X895250D02*
X889479D01*
Y352250D01*
X895250D01*
Y366781D01*
D02*
G37*
G36*
X518709Y454650D02*
X518360D01*
Y445400D01*
X527610D01*
Y445749D01*
X526912Y448356D01*
X525562Y450694D01*
X523654Y452602D01*
X521316Y453951D01*
X518709Y454650D01*
D02*
G37*
G36*
X645709D02*
X645360D01*
Y445400D01*
X654610D01*
Y445749D01*
X653912Y448356D01*
X652562Y450694D01*
X650654Y452602D01*
X648316Y453951D01*
X645709Y454650D01*
D02*
G37*
G36*
X544109D02*
X543760D01*
Y445400D01*
X553010D01*
Y445749D01*
X552312Y448356D01*
X550962Y450694D01*
X549054Y452602D01*
X546716Y453951D01*
X544109Y454650D01*
D02*
G37*
G36*
X721909D02*
X721560D01*
Y445400D01*
X730810D01*
Y445749D01*
X730111Y448356D01*
X728762Y450694D01*
X726854Y452602D01*
X724516Y453951D01*
X721909Y454650D01*
D02*
G37*
G36*
X671109D02*
X670760D01*
Y445400D01*
X680010D01*
Y445749D01*
X679312Y448356D01*
X677962Y450694D01*
X676054Y452602D01*
X673716Y453951D01*
X671109Y454650D01*
D02*
G37*
G36*
X620309D02*
X619960D01*
Y445400D01*
X629210D01*
Y445749D01*
X628512Y448356D01*
X627162Y450694D01*
X625254Y452602D01*
X622916Y453951D01*
X620309Y454650D01*
D02*
G37*
G36*
X569509D02*
X569160D01*
Y445400D01*
X578410D01*
Y445749D01*
X577711Y448356D01*
X576362Y450694D01*
X574454Y452602D01*
X572116Y453951D01*
X569509Y454650D01*
D02*
G37*
G36*
X696509D02*
X696160D01*
Y445400D01*
X705410D01*
Y445749D01*
X704712Y448356D01*
X703362Y450694D01*
X701454Y452602D01*
X699116Y453951D01*
X696509Y454650D01*
D02*
G37*
G36*
X594909D02*
X594560D01*
Y445400D01*
X603810D01*
Y445749D01*
X603111Y448356D01*
X601762Y450694D01*
X599854Y452602D01*
X597516Y453951D01*
X594909Y454650D01*
D02*
G37*
G36*
X643360D02*
X643011D01*
X640404Y453951D01*
X638066Y452602D01*
X636158Y450694D01*
X634809Y448356D01*
X634110Y445749D01*
Y445400D01*
X643360D01*
Y454650D01*
D02*
G37*
G36*
X516360D02*
X516011D01*
X513404Y453951D01*
X511066Y452602D01*
X509158Y450694D01*
X507808Y448356D01*
X507110Y445749D01*
Y445400D01*
X516360D01*
Y454650D01*
D02*
G37*
G36*
X719560D02*
X719211D01*
X716604Y453951D01*
X714266Y452602D01*
X712358Y450694D01*
X711009Y448356D01*
X710310Y445749D01*
Y445400D01*
X719560D01*
Y454650D01*
D02*
G37*
G36*
X668760D02*
X668411D01*
X665804Y453951D01*
X663466Y452602D01*
X661558Y450694D01*
X660209Y448356D01*
X659510Y445749D01*
Y445400D01*
X668760D01*
Y454650D01*
D02*
G37*
G36*
X617960D02*
X617611D01*
X615004Y453951D01*
X612666Y452602D01*
X610758Y450694D01*
X609408Y448356D01*
X608710Y445749D01*
Y445400D01*
X617960D01*
Y454650D01*
D02*
G37*
G36*
X541760D02*
X541411D01*
X538804Y453951D01*
X536466Y452602D01*
X534558Y450694D01*
X533209Y448356D01*
X532510Y445749D01*
Y445400D01*
X541760D01*
Y454650D01*
D02*
G37*
G36*
X694160D02*
X693811D01*
X691204Y453951D01*
X688866Y452602D01*
X686958Y450694D01*
X685609Y448356D01*
X684910Y445749D01*
Y445400D01*
X694160D01*
Y454650D01*
D02*
G37*
G36*
X567160D02*
X566811D01*
X564204Y453951D01*
X561866Y452602D01*
X559958Y450694D01*
X558609Y448356D01*
X557910Y445749D01*
Y445400D01*
X567160D01*
Y454650D01*
D02*
G37*
G36*
X592560D02*
X592211D01*
X589604Y453951D01*
X587266Y452602D01*
X585358Y450694D01*
X584008Y448356D01*
X583310Y445749D01*
Y445400D01*
X592560D01*
Y454650D01*
D02*
G37*
G36*
X644360Y444400D02*
D01*
D01*
D01*
D01*
D02*
G37*
G36*
X730810Y443400D02*
X721560D01*
Y434150D01*
X721909D01*
X724516Y434849D01*
X726854Y436198D01*
X728762Y438106D01*
X730111Y440444D01*
X730810Y443051D01*
Y443400D01*
D02*
G37*
G36*
X719560D02*
X710310D01*
Y443051D01*
X711009Y440444D01*
X712358Y438106D01*
X714266Y436198D01*
X716604Y434849D01*
X719211Y434150D01*
X719560D01*
Y443400D01*
D02*
G37*
G36*
X705410D02*
X696160D01*
Y434150D01*
X696509D01*
X699116Y434849D01*
X701454Y436198D01*
X703362Y438106D01*
X704712Y440444D01*
X705410Y443051D01*
Y443400D01*
D02*
G37*
G36*
X694160D02*
X684910D01*
Y443051D01*
X685609Y440444D01*
X686958Y438106D01*
X688866Y436198D01*
X691204Y434849D01*
X693811Y434150D01*
X694160D01*
Y443400D01*
D02*
G37*
G36*
X680010D02*
X670760D01*
Y434150D01*
X671109D01*
X673716Y434849D01*
X676054Y436198D01*
X677962Y438106D01*
X679312Y440444D01*
X680010Y443051D01*
Y443400D01*
D02*
G37*
G36*
X668760D02*
X659510D01*
Y443051D01*
X660209Y440444D01*
X661558Y438106D01*
X663466Y436198D01*
X665804Y434849D01*
X668411Y434150D01*
X668760D01*
Y443400D01*
D02*
G37*
G36*
X654610D02*
X645360D01*
Y434150D01*
X645709D01*
X648316Y434849D01*
X650654Y436198D01*
X652562Y438106D01*
X653912Y440444D01*
X654610Y443051D01*
Y443400D01*
D02*
G37*
G36*
X643360D02*
X634110D01*
Y443051D01*
X634809Y440444D01*
X636158Y438106D01*
X638066Y436198D01*
X640404Y434849D01*
X643011Y434150D01*
X643360D01*
Y443400D01*
D02*
G37*
G36*
X629210D02*
X619960D01*
Y434150D01*
X620309D01*
X622916Y434849D01*
X625254Y436198D01*
X627162Y438106D01*
X628512Y440444D01*
X629210Y443051D01*
Y443400D01*
D02*
G37*
G36*
X617960D02*
X608710D01*
Y443051D01*
X609408Y440444D01*
X610758Y438106D01*
X612666Y436198D01*
X615004Y434849D01*
X617611Y434150D01*
X617960D01*
Y443400D01*
D02*
G37*
G36*
X603810D02*
X594560D01*
Y434150D01*
X594909D01*
X597516Y434849D01*
X599854Y436198D01*
X601762Y438106D01*
X603111Y440444D01*
X603810Y443051D01*
Y443400D01*
D02*
G37*
G36*
X592560D02*
X583310D01*
Y443051D01*
X584008Y440444D01*
X585358Y438106D01*
X587266Y436198D01*
X589604Y434849D01*
X592211Y434150D01*
X592560D01*
Y443400D01*
D02*
G37*
G36*
X578410D02*
X569160D01*
Y434150D01*
X569509D01*
X572116Y434849D01*
X574454Y436198D01*
X576362Y438106D01*
X577711Y440444D01*
X578410Y443051D01*
Y443400D01*
D02*
G37*
G36*
X567160D02*
X557910D01*
Y443051D01*
X558609Y440444D01*
X559958Y438106D01*
X561866Y436198D01*
X564204Y434849D01*
X566811Y434150D01*
X567160D01*
Y443400D01*
D02*
G37*
G36*
X553010D02*
X543760D01*
Y434150D01*
X544109D01*
X546716Y434849D01*
X549054Y436198D01*
X550962Y438106D01*
X552312Y440444D01*
X553010Y443051D01*
Y443400D01*
D02*
G37*
G36*
X541760D02*
X532510D01*
Y443051D01*
X533209Y440444D01*
X534558Y438106D01*
X536466Y436198D01*
X538804Y434849D01*
X541411Y434150D01*
X541760D01*
Y443400D01*
D02*
G37*
G36*
X527610D02*
X518360D01*
Y434150D01*
X518709D01*
X521316Y434849D01*
X523654Y436198D01*
X525562Y438106D01*
X526912Y440444D01*
X527610Y443051D01*
Y443400D01*
D02*
G37*
G36*
X516360D02*
X507110D01*
Y443051D01*
X507808Y440444D01*
X509158Y438106D01*
X511066Y436198D01*
X513404Y434849D01*
X516011Y434150D01*
X516360D01*
Y443400D01*
D02*
G37*
G36*
X493309Y454650D02*
X490611D01*
X488004Y453951D01*
X485666Y452602D01*
X483758Y450694D01*
X482408Y448356D01*
X481710Y445749D01*
Y443051D01*
X482408Y440444D01*
X483758Y438106D01*
X485666Y436198D01*
X488004Y434849D01*
X490611Y434150D01*
X493309D01*
X495916Y434849D01*
X498254Y436198D01*
X500162Y438106D01*
X501511Y440444D01*
X502210Y443051D01*
Y445749D01*
X501511Y448356D01*
X500162Y450694D01*
X498254Y452602D01*
X495916Y453951D01*
X493309Y454650D01*
D02*
G37*
G36*
X467909D02*
X465211D01*
X462604Y453951D01*
X460266Y452602D01*
X458358Y450694D01*
X457009Y448356D01*
X456310Y445749D01*
Y443051D01*
X457009Y440444D01*
X458358Y438106D01*
X460266Y436198D01*
X462604Y434849D01*
X465211Y434150D01*
X467909D01*
X470516Y434849D01*
X472854Y436198D01*
X474762Y438106D01*
X476111Y440444D01*
X476810Y443051D01*
Y445749D01*
X476111Y448356D01*
X474762Y450694D01*
X472854Y452602D01*
X470516Y453951D01*
X467909Y454650D01*
D02*
G37*
G36*
X442509D02*
X439811D01*
X437204Y453951D01*
X434866Y452602D01*
X432958Y450694D01*
X431609Y448356D01*
X430910Y445749D01*
Y443051D01*
X431609Y440444D01*
X432958Y438106D01*
X434866Y436198D01*
X437204Y434849D01*
X439811Y434150D01*
X442509D01*
X445116Y434849D01*
X447454Y436198D01*
X449362Y438106D01*
X450712Y440444D01*
X451410Y443051D01*
Y445749D01*
X450712Y448356D01*
X449362Y450694D01*
X447454Y452602D01*
X445116Y453951D01*
X442509Y454650D01*
D02*
G37*
G36*
X721909Y429250D02*
X719211D01*
X716604Y428551D01*
X714266Y427202D01*
X712358Y425294D01*
X711009Y422956D01*
X710310Y420349D01*
Y417651D01*
X711009Y415044D01*
X712358Y412706D01*
X714266Y410798D01*
X716604Y409449D01*
X719211Y408750D01*
X721909D01*
X724516Y409449D01*
X726854Y410798D01*
X728762Y412706D01*
X730111Y415044D01*
X730810Y417651D01*
Y420349D01*
X730111Y422956D01*
X728762Y425294D01*
X726854Y427202D01*
X724516Y428551D01*
X721909Y429250D01*
D02*
G37*
G36*
X696509D02*
X693811D01*
X691204Y428551D01*
X688866Y427202D01*
X686958Y425294D01*
X685609Y422956D01*
X684910Y420349D01*
Y417651D01*
X685609Y415044D01*
X686958Y412706D01*
X688866Y410798D01*
X691204Y409449D01*
X693811Y408750D01*
X696509D01*
X699116Y409449D01*
X701454Y410798D01*
X703362Y412706D01*
X704712Y415044D01*
X705410Y417651D01*
Y420349D01*
X704712Y422956D01*
X703362Y425294D01*
X701454Y427202D01*
X699116Y428551D01*
X696509Y429250D01*
D02*
G37*
G36*
X671109D02*
X668411D01*
X665804Y428551D01*
X663466Y427202D01*
X661558Y425294D01*
X660209Y422956D01*
X659510Y420349D01*
Y417651D01*
X660209Y415044D01*
X661558Y412706D01*
X663466Y410798D01*
X665804Y409449D01*
X668411Y408750D01*
X671109D01*
X673716Y409449D01*
X676054Y410798D01*
X677962Y412706D01*
X679312Y415044D01*
X680010Y417651D01*
Y420349D01*
X679312Y422956D01*
X677962Y425294D01*
X676054Y427202D01*
X673716Y428551D01*
X671109Y429250D01*
D02*
G37*
G36*
X645709D02*
X643011D01*
X640404Y428551D01*
X638066Y427202D01*
X636158Y425294D01*
X634809Y422956D01*
X634110Y420349D01*
Y417651D01*
X634809Y415044D01*
X636158Y412706D01*
X638066Y410798D01*
X640404Y409449D01*
X643011Y408750D01*
X645709D01*
X648316Y409449D01*
X650654Y410798D01*
X652562Y412706D01*
X653912Y415044D01*
X654610Y417651D01*
Y420349D01*
X653912Y422956D01*
X652562Y425294D01*
X650654Y427202D01*
X648316Y428551D01*
X645709Y429250D01*
D02*
G37*
G36*
X620309D02*
X617611D01*
X615004Y428551D01*
X612666Y427202D01*
X610758Y425294D01*
X609408Y422956D01*
X608710Y420349D01*
Y417651D01*
X609408Y415044D01*
X610758Y412706D01*
X612666Y410798D01*
X615004Y409449D01*
X617611Y408750D01*
X620309D01*
X622916Y409449D01*
X625254Y410798D01*
X627162Y412706D01*
X628512Y415044D01*
X629210Y417651D01*
Y420349D01*
X628512Y422956D01*
X627162Y425294D01*
X625254Y427202D01*
X622916Y428551D01*
X620309Y429250D01*
D02*
G37*
G36*
X569509D02*
X566811D01*
X564204Y428551D01*
X561866Y427202D01*
X559958Y425294D01*
X558609Y422956D01*
X557910Y420349D01*
Y417651D01*
X558609Y415044D01*
X559958Y412706D01*
X561866Y410798D01*
X564204Y409449D01*
X566811Y408750D01*
X569509D01*
X572116Y409449D01*
X574454Y410798D01*
X576362Y412706D01*
X577711Y415044D01*
X578410Y417651D01*
Y420349D01*
X577711Y422956D01*
X576362Y425294D01*
X574454Y427202D01*
X572116Y428551D01*
X569509Y429250D01*
D02*
G37*
G36*
X544109D02*
X541411D01*
X538804Y428551D01*
X536466Y427202D01*
X534558Y425294D01*
X533209Y422956D01*
X532510Y420349D01*
Y417651D01*
X533209Y415044D01*
X534558Y412706D01*
X536466Y410798D01*
X538804Y409449D01*
X541411Y408750D01*
X544109D01*
X546716Y409449D01*
X549054Y410798D01*
X550962Y412706D01*
X552312Y415044D01*
X553010Y417651D01*
Y420349D01*
X552312Y422956D01*
X550962Y425294D01*
X549054Y427202D01*
X546716Y428551D01*
X544109Y429250D01*
D02*
G37*
G36*
X467909D02*
X465211D01*
X462604Y428551D01*
X460266Y427202D01*
X458358Y425294D01*
X457009Y422956D01*
X456310Y420349D01*
Y417651D01*
X457009Y415044D01*
X458358Y412706D01*
X460266Y410798D01*
X462604Y409449D01*
X465211Y408750D01*
X467909D01*
X470516Y409449D01*
X472854Y410798D01*
X474762Y412706D01*
X476111Y415044D01*
X476810Y417651D01*
Y420349D01*
X476111Y422956D01*
X474762Y425294D01*
X472854Y427202D01*
X470516Y428551D01*
X467909Y429250D01*
D02*
G37*
G36*
X442509D02*
X439811D01*
X437204Y428551D01*
X434866Y427202D01*
X432958Y425294D01*
X431609Y422956D01*
X430910Y420349D01*
Y417651D01*
X431609Y415044D01*
X432958Y412706D01*
X434866Y410798D01*
X437204Y409449D01*
X439811Y408750D01*
X442509D01*
X445116Y409449D01*
X447454Y410798D01*
X449362Y412706D01*
X450712Y415044D01*
X451410Y417651D01*
Y420349D01*
X450712Y422956D01*
X449362Y425294D01*
X447454Y427202D01*
X445116Y428551D01*
X442509Y429250D01*
D02*
G37*
G36*
X594909D02*
X592211D01*
X589604Y428551D01*
X587266Y427202D01*
X585358Y425294D01*
X584008Y422956D01*
X583310Y420349D01*
Y417651D01*
X584008Y415044D01*
X585358Y412706D01*
X587266Y410798D01*
X589604Y409449D01*
X592211Y408750D01*
X594909D01*
X597516Y409449D01*
X598321Y409913D01*
X603058Y405176D01*
Y401426D01*
X601058Y400597D01*
X599854Y401802D01*
X597516Y403152D01*
X594909Y403850D01*
X592211D01*
X589604Y403152D01*
X587266Y401802D01*
X585358Y399894D01*
X584008Y397556D01*
X583310Y394949D01*
Y392251D01*
X584008Y389644D01*
X585358Y387306D01*
X587266Y385398D01*
X589604Y384049D01*
X592211Y383350D01*
X594909D01*
X597516Y384049D01*
X599854Y385398D01*
X601121Y386666D01*
X603154Y386261D01*
X603224Y386216D01*
X603301Y386158D01*
X603908Y385251D01*
X608971Y380187D01*
X608971Y380187D01*
X609964Y379524D01*
X611134Y379291D01*
X611134Y379291D01*
X652602D01*
X653775Y378119D01*
X655613Y377357D01*
X657602D01*
X659440Y378119D01*
X660846Y379525D01*
X661607Y381363D01*
Y383352D01*
X660846Y385190D01*
X659440Y386596D01*
X657602Y387357D01*
X655613D01*
X654677Y386970D01*
X653285Y388558D01*
X653912Y389644D01*
X654610Y392251D01*
Y394949D01*
X653912Y397556D01*
X652562Y399894D01*
X650654Y401802D01*
X648316Y403152D01*
X645709Y403850D01*
X643011D01*
X640404Y403152D01*
X638066Y401802D01*
X636158Y399894D01*
X634809Y397556D01*
X634110Y394949D01*
Y392251D01*
X634809Y389644D01*
X636099Y387409D01*
X635833Y386351D01*
X635442Y385409D01*
X627878D01*
X627487Y386351D01*
X627221Y387409D01*
X628512Y389644D01*
X629210Y392251D01*
Y394949D01*
X628512Y397556D01*
X627162Y399894D01*
X625254Y401802D01*
X622916Y403152D01*
X620309Y403850D01*
X617611D01*
X615004Y403152D01*
X612666Y401802D01*
X611176Y400312D01*
X609435Y400826D01*
X609176Y401009D01*
Y406443D01*
X608943Y407613D01*
X608280Y408606D01*
X608280Y408606D01*
X602647Y414239D01*
X603111Y415044D01*
X603810Y417651D01*
Y420349D01*
X603111Y422956D01*
X601762Y425294D01*
X599854Y427202D01*
X597516Y428551D01*
X594909Y429250D01*
D02*
G37*
G36*
X781685Y432500D02*
X778435D01*
X775247Y431866D01*
X772244Y430622D01*
X769542Y428816D01*
X767244Y426518D01*
X765438Y423816D01*
X764194Y420813D01*
X763560Y417625D01*
Y414375D01*
X764194Y411187D01*
X765438Y408184D01*
X767244Y405482D01*
X769542Y403184D01*
X772244Y401378D01*
X775247Y400134D01*
X778435Y399500D01*
X781685D01*
X784873Y400134D01*
X787876Y401378D01*
X790578Y403184D01*
X792876Y405482D01*
X794682Y408184D01*
X795926Y411187D01*
X796560Y414375D01*
Y417625D01*
X795926Y420813D01*
X794682Y423816D01*
X792876Y426518D01*
X790578Y428816D01*
X787876Y430622D01*
X784873Y431866D01*
X781685Y432500D01*
D02*
G37*
G36*
X730810Y403850D02*
X710310D01*
Y383350D01*
X730810D01*
Y403850D01*
D02*
G37*
G36*
X696509D02*
X693811D01*
X691204Y403152D01*
X688866Y401802D01*
X686958Y399894D01*
X685609Y397556D01*
X684910Y394949D01*
Y392251D01*
X685609Y389644D01*
X686958Y387306D01*
X688866Y385398D01*
X691204Y384049D01*
X693811Y383350D01*
X696509D01*
X699116Y384049D01*
X701454Y385398D01*
X703362Y387306D01*
X704712Y389644D01*
X705410Y392251D01*
Y394949D01*
X704712Y397556D01*
X703362Y399894D01*
X701454Y401802D01*
X699116Y403152D01*
X696509Y403850D01*
D02*
G37*
G36*
X671109D02*
X668411D01*
X665804Y403152D01*
X663466Y401802D01*
X661558Y399894D01*
X660209Y397556D01*
X659510Y394949D01*
Y392251D01*
X660209Y389644D01*
X661558Y387306D01*
X663466Y385398D01*
X665804Y384049D01*
X668411Y383350D01*
X671109D01*
X673716Y384049D01*
X676054Y385398D01*
X677962Y387306D01*
X679312Y389644D01*
X680010Y392251D01*
Y394949D01*
X679312Y397556D01*
X677962Y399894D01*
X676054Y401802D01*
X673716Y403152D01*
X671109Y403850D01*
D02*
G37*
G36*
X569509D02*
X566811D01*
X564204Y403152D01*
X561866Y401802D01*
X559958Y399894D01*
X558609Y397556D01*
X557910Y394949D01*
Y392251D01*
X558609Y389644D01*
X559958Y387306D01*
X561866Y385398D01*
X564204Y384049D01*
X566811Y383350D01*
X569509D01*
X572116Y384049D01*
X574454Y385398D01*
X576362Y387306D01*
X577711Y389644D01*
X578410Y392251D01*
Y394949D01*
X577711Y397556D01*
X576362Y399894D01*
X574454Y401802D01*
X572116Y403152D01*
X569509Y403850D01*
D02*
G37*
G36*
X544109D02*
X541411D01*
X538804Y403152D01*
X536466Y401802D01*
X534558Y399894D01*
X533209Y397556D01*
X532510Y394949D01*
Y392251D01*
X533209Y389644D01*
X534558Y387306D01*
X536466Y385398D01*
X538804Y384049D01*
X541411Y383350D01*
X544109D01*
X546716Y384049D01*
X549054Y385398D01*
X550962Y387306D01*
X552312Y389644D01*
X553010Y392251D01*
Y394949D01*
X552312Y397556D01*
X550962Y399894D01*
X549054Y401802D01*
X546716Y403152D01*
X544109Y403850D01*
D02*
G37*
G36*
X442509D02*
X439811D01*
X437204Y403152D01*
X434866Y401802D01*
X432958Y399894D01*
X431609Y397556D01*
X430910Y394949D01*
Y392251D01*
X431609Y389644D01*
X432958Y387306D01*
X434866Y385398D01*
X437204Y384049D01*
X439811Y383350D01*
X442509D01*
X445116Y384049D01*
X447454Y385398D01*
X449362Y387306D01*
X450712Y389644D01*
X451410Y392251D01*
Y394949D01*
X450712Y397556D01*
X449362Y399894D01*
X447454Y401802D01*
X445116Y403152D01*
X442509Y403850D01*
D02*
G37*
G36*
X391709D02*
X389011D01*
X386404Y403152D01*
X384066Y401802D01*
X382158Y399894D01*
X380808Y397556D01*
X380110Y394949D01*
Y392251D01*
X380808Y389644D01*
X382158Y387306D01*
X384066Y385398D01*
X386404Y384049D01*
X389011Y383350D01*
X391709D01*
X394316Y384049D01*
X396654Y385398D01*
X398562Y387306D01*
X399911Y389644D01*
X400610Y392251D01*
Y394949D01*
X399911Y397556D01*
X398562Y399894D01*
X396654Y401802D01*
X394316Y403152D01*
X391709Y403850D01*
D02*
G37*
G36*
X340909D02*
X338211D01*
X335604Y403152D01*
X333266Y401802D01*
X331358Y399894D01*
X330009Y397556D01*
X329310Y394949D01*
Y392251D01*
X330009Y389644D01*
X331358Y387306D01*
X333266Y385398D01*
X335604Y384049D01*
X338211Y383350D01*
X340909D01*
X343516Y384049D01*
X345854Y385398D01*
X347762Y387306D01*
X349112Y389644D01*
X349810Y392251D01*
Y394949D01*
X349112Y397556D01*
X347762Y399894D01*
X345854Y401802D01*
X343516Y403152D01*
X340909Y403850D01*
D02*
G37*
G36*
X546920Y603100D02*
X546650D01*
Y594450D01*
X555300D01*
Y594720D01*
X554642Y597175D01*
X553372Y599375D01*
X551575Y601172D01*
X549375Y602442D01*
X546920Y603100D01*
D02*
G37*
G36*
X521520D02*
X521250D01*
Y594450D01*
X529900D01*
Y594720D01*
X529242Y597175D01*
X527972Y599375D01*
X526175Y601172D01*
X523975Y602442D01*
X521520Y603100D01*
D02*
G37*
G36*
X544650D02*
X544380D01*
X541925Y602442D01*
X539725Y601172D01*
X537928Y599375D01*
X536658Y597175D01*
X536000Y594720D01*
Y594450D01*
X544650D01*
Y603100D01*
D02*
G37*
G36*
X519250D02*
X518979D01*
X516525Y602442D01*
X514325Y601172D01*
X512528Y599375D01*
X511258Y597175D01*
X510600Y594720D01*
Y594450D01*
X519250D01*
Y603100D01*
D02*
G37*
G36*
X555300Y592450D02*
X546650D01*
Y583800D01*
X546920D01*
X549375Y584458D01*
X551575Y585728D01*
X553372Y587525D01*
X554642Y589725D01*
X555300Y592179D01*
Y592450D01*
D02*
G37*
G36*
X544650D02*
X536000D01*
Y592179D01*
X536658Y589725D01*
X537928Y587525D01*
X539725Y585728D01*
X541925Y584458D01*
X544380Y583800D01*
X544650D01*
Y592450D01*
D02*
G37*
G36*
X529900D02*
X521250D01*
Y583800D01*
X521520D01*
X523975Y584458D01*
X526175Y585728D01*
X527972Y587525D01*
X529242Y589725D01*
X529900Y592179D01*
Y592450D01*
D02*
G37*
G36*
X519250D02*
X510600D01*
Y592179D01*
X511258Y589725D01*
X512528Y587525D01*
X514325Y585728D01*
X516525Y584458D01*
X518979Y583800D01*
X519250D01*
Y592450D01*
D02*
G37*
G36*
X546920Y577700D02*
X546650D01*
Y569050D01*
X555300D01*
Y569320D01*
X554642Y571775D01*
X553372Y573975D01*
X551575Y575772D01*
X549375Y577042D01*
X546920Y577700D01*
D02*
G37*
G36*
X521520D02*
X521250D01*
Y569050D01*
X529900D01*
Y569320D01*
X529242Y571775D01*
X527972Y573975D01*
X526175Y575772D01*
X523975Y577042D01*
X521520Y577700D01*
D02*
G37*
G36*
X544650D02*
X544380D01*
X541925Y577042D01*
X539725Y575772D01*
X537928Y573975D01*
X536658Y571775D01*
X536000Y569320D01*
Y569050D01*
X544650D01*
Y577700D01*
D02*
G37*
G36*
X519250D02*
X518979D01*
X516525Y577042D01*
X514325Y575772D01*
X512528Y573975D01*
X511258Y571775D01*
X510600Y569320D01*
Y569050D01*
X519250D01*
Y577700D01*
D02*
G37*
G36*
X555300Y567050D02*
X546650D01*
Y558400D01*
X546920D01*
X549375Y559058D01*
X551575Y560328D01*
X553372Y562125D01*
X554642Y564325D01*
X555300Y566780D01*
Y567050D01*
D02*
G37*
G36*
X544650D02*
X536000D01*
Y566780D01*
X536658Y564325D01*
X537928Y562125D01*
X539725Y560328D01*
X541925Y559058D01*
X544380Y558400D01*
X544650D01*
Y567050D01*
D02*
G37*
G36*
X529900D02*
X521250D01*
Y558400D01*
X521520D01*
X523975Y559058D01*
X526175Y560328D01*
X527972Y562125D01*
X529242Y564325D01*
X529900Y566780D01*
Y567050D01*
D02*
G37*
G36*
X519250D02*
X510600D01*
Y566780D01*
X511258Y564325D01*
X512528Y562125D01*
X514325Y560328D01*
X516525Y559058D01*
X518979Y558400D01*
X519250D01*
Y567050D01*
D02*
G37*
G36*
X546920Y552300D02*
X546650D01*
Y543650D01*
X555300D01*
Y543921D01*
X554642Y546375D01*
X553372Y548575D01*
X551575Y550372D01*
X549375Y551642D01*
X546920Y552300D01*
D02*
G37*
G36*
X521520D02*
X521250D01*
Y543650D01*
X529900D01*
Y543921D01*
X529242Y546375D01*
X527972Y548575D01*
X526175Y550372D01*
X523975Y551642D01*
X521520Y552300D01*
D02*
G37*
G36*
X544650D02*
X544380D01*
X541925Y551642D01*
X539725Y550372D01*
X537928Y548575D01*
X536658Y546375D01*
X536000Y543921D01*
Y543650D01*
X544650D01*
Y552300D01*
D02*
G37*
G36*
X519250D02*
X518979D01*
X516525Y551642D01*
X514325Y550372D01*
X512528Y548575D01*
X511258Y546375D01*
X510600Y543921D01*
Y543650D01*
X519250D01*
Y552300D01*
D02*
G37*
G36*
X555300Y541650D02*
X546650D01*
Y533000D01*
X546920D01*
X549375Y533658D01*
X551575Y534928D01*
X553372Y536725D01*
X554642Y538925D01*
X555300Y541380D01*
Y541650D01*
D02*
G37*
G36*
X544650D02*
X536000D01*
Y541380D01*
X536658Y538925D01*
X537928Y536725D01*
X539725Y534928D01*
X541925Y533658D01*
X544380Y533000D01*
X544650D01*
Y541650D01*
D02*
G37*
G36*
X529900D02*
X521250D01*
Y533000D01*
X521520D01*
X523975Y533658D01*
X526175Y534928D01*
X527972Y536725D01*
X529242Y538925D01*
X529900Y541380D01*
Y541650D01*
D02*
G37*
G36*
X519250D02*
X510600D01*
Y541380D01*
X511258Y538925D01*
X512528Y536725D01*
X514325Y534928D01*
X516525Y533658D01*
X518979Y533000D01*
X519250D01*
Y541650D01*
D02*
G37*
G36*
X521520Y526900D02*
X521250D01*
Y518250D01*
X529900D01*
Y518521D01*
X529242Y520975D01*
X528788Y521762D01*
D01*
X527972Y523175D01*
X526175Y524972D01*
X523975Y526242D01*
X521520Y526900D01*
D02*
G37*
G36*
X555300D02*
X546650D01*
Y518250D01*
X555300D01*
Y526900D01*
D02*
G37*
G36*
X544650D02*
X536000D01*
Y523762D01*
D01*
Y518250D01*
X539743D01*
X544650D01*
Y526900D01*
D02*
G37*
G36*
X519250D02*
X518979D01*
X516525Y526242D01*
X514325Y524972D01*
X512528Y523175D01*
X511258Y520975D01*
X510600Y518521D01*
Y518250D01*
X519250D01*
Y526900D01*
D02*
G37*
G36*
X555300Y516250D02*
X546650D01*
Y507600D01*
X555300D01*
Y508750D01*
Y516250D01*
D02*
G37*
G36*
X544650D02*
X536000D01*
Y507600D01*
X544650D01*
Y516250D01*
D02*
G37*
G36*
X529900D02*
X521250D01*
Y507600D01*
X521520D01*
X523975Y508258D01*
X526175Y509528D01*
X527972Y511325D01*
X529242Y513525D01*
X529900Y515979D01*
Y516250D01*
D02*
G37*
G36*
X519250D02*
X510600D01*
D01*
Y515979D01*
X511258Y513525D01*
X512528Y511325D01*
X514325Y509528D01*
X516525Y508258D01*
X518979Y507600D01*
X519250D01*
Y516250D01*
D02*
G37*
G36*
X904810Y419750D02*
X891060D01*
Y406000D01*
X904810D01*
Y419750D01*
D02*
G37*
G36*
X889060D02*
X875310D01*
Y406000D01*
X889060D01*
Y419750D01*
D02*
G37*
G36*
X904810Y404000D02*
X891060D01*
Y390250D01*
X904810D01*
Y404000D01*
D02*
G37*
G36*
X889060D02*
X875310D01*
Y390250D01*
X889060D01*
Y404000D01*
D02*
G37*
%LPD*%
D13*
X359799Y582799D02*
X423750D01*
X260250Y477593D02*
X361456Y578799D01*
X423750D01*
X256250Y454108D02*
Y479250D01*
X359799Y582799D01*
X423750D02*
X436799D01*
X260250Y455765D02*
X277015Y439000D01*
X260250Y455765D02*
Y477593D01*
X275358Y435000D02*
X288504D01*
X256250Y454108D02*
X275358Y435000D01*
X290161Y439000D02*
X295661Y433500D01*
X277015Y439000D02*
X290161D01*
X294004Y429500D02*
X324078D01*
X288504Y435000D02*
X294004Y429500D01*
X295661Y433500D02*
X329750D01*
X436799Y582799D02*
X495500Y641500D01*
Y719657D01*
X511043Y735200D01*
X499500Y718000D02*
X512700Y731200D01*
X552950D01*
X511043Y735200D02*
X551293D01*
X563093Y747000D01*
X552950Y731200D02*
X564750Y743000D01*
X695600D01*
X563093Y747000D02*
X648078D01*
X649250Y748172D01*
X329750Y433500D02*
X335950Y427300D01*
Y426534D02*
Y427300D01*
Y426534D02*
X339560Y422924D01*
Y419000D02*
Y422924D01*
X326578Y427000D02*
X327250D01*
X324078Y429500D02*
X326578Y427000D01*
X703251Y725999D02*
Y735349D01*
X695600Y743000D02*
X703251Y735349D01*
X438456Y578799D02*
X499500Y639843D01*
Y718000D01*
X423750Y578799D02*
X438456D01*
X609251Y755999D02*
X648078D01*
X649250Y754828D01*
Y748172D02*
Y754828D01*
X235405Y483718D02*
X377204Y625518D01*
X231405Y485375D02*
X373204Y627174D01*
X231405Y426875D02*
Y485375D01*
X235405Y428532D02*
Y483718D01*
X373204Y627174D02*
Y644704D01*
X412821Y684321D01*
X415649D01*
X420999Y689671D01*
Y692499D01*
X377204Y625518D02*
Y643047D01*
X404784Y670627D01*
X406441D01*
X407612Y669455D01*
Y615112D02*
Y669455D01*
X390999Y598499D02*
X407612Y615112D01*
X231405Y426875D02*
X292780Y365500D01*
X464502D01*
X479252Y380250D01*
X496332D01*
X505459Y389377D01*
Y407099D01*
X517360Y419000D01*
X235405Y428532D02*
X294437Y369500D01*
X462845D01*
X476423Y383078D01*
X480000Y386655D01*
Y407040D01*
X491960Y419000D01*
X340294Y496000D02*
X424896D01*
X429646Y491250D01*
X484750D01*
X337263Y499031D02*
X340294Y496000D01*
X578500Y638750D02*
Y722348D01*
X350810Y417240D02*
Y450146D01*
X342020Y458936D02*
X350810Y450146D01*
X332270Y458936D02*
X342020D01*
X322078Y469127D02*
X332270Y458936D01*
X322078Y469127D02*
Y495873D01*
X325237Y499031D01*
X337263D01*
X509640Y631640D02*
X571390D01*
X484750Y491250D02*
X491250Y497750D01*
Y613250D01*
X509640Y631640D01*
X571390D02*
X578500Y638750D01*
X393350Y465922D02*
Y468750D01*
X364960Y419000D02*
X376717Y430757D01*
Y452117D01*
X388000Y460572D02*
X393350Y465922D01*
X376717Y452117D02*
X385172Y460572D01*
X388000D01*
X350810Y417240D02*
X360300Y407750D01*
X423350Y578399D02*
X423750Y578799D01*
X423350Y562750D02*
Y578399D01*
X587600Y358250D02*
X614819Y331031D01*
X339500Y358250D02*
X587600D01*
X568200Y352250D02*
X598700Y321750D01*
X399000Y352250D02*
X568200D01*
X614819Y331031D02*
X928160D01*
X724136Y733427D02*
X738780Y748071D01*
Y754778D01*
X740251Y756249D01*
X593560Y419000D02*
X606117Y406443D01*
Y389117D02*
Y406443D01*
X593560Y419000D02*
Y419000D01*
X611134Y382350D02*
X656600D01*
X606071Y387414D02*
X611134Y382350D01*
X606071Y387414D02*
Y389071D01*
X606117Y389117D01*
X834251Y716249D02*
X982750Y567750D01*
X834251Y716249D02*
Y726249D01*
X598700Y321750D02*
X939250D01*
X982750Y365250D01*
Y567750D01*
X884750Y591000D02*
Y604250D01*
X965500Y368371D02*
Y510250D01*
X884750Y591000D02*
X965500Y510250D01*
X532000Y937250D02*
X547111D01*
X529500Y939750D02*
X532000Y937250D01*
X547111D02*
X593781Y890581D01*
X872464Y640786D02*
Y647328D01*
X749293Y770500D02*
X872464Y647328D01*
Y640786D02*
X872500Y640750D01*
X578500Y722348D02*
X593152Y737000D01*
X647356D02*
X667707Y716649D01*
X593152Y737000D02*
X647356D01*
X928160Y331031D02*
X965500Y368371D01*
X390250Y725000D02*
X391751Y726501D01*
X256250Y725000D02*
X390250D01*
X421751Y820501D02*
Y826851D01*
X416401Y832201D02*
X421751Y826851D01*
X403343Y832201D02*
X416401D01*
X399343Y836201D02*
X403343Y832201D01*
X344951Y836201D02*
X399343D01*
X330500Y821750D02*
X344951Y836201D01*
X360300Y407750D02*
X369620D01*
X377660Y415790D01*
Y422210D01*
X385700Y430250D01*
X395020D01*
X404003Y421267D01*
Y405357D02*
Y421267D01*
Y405357D02*
X415760Y393600D01*
X835500Y605000D02*
X836250Y604250D01*
X859500D01*
X872500D02*
X884750D01*
X859500D02*
X859500Y604250D01*
Y640750D01*
X637500Y770500D02*
X749293D01*
X593781Y814219D02*
X637500Y770500D01*
X593781Y814219D02*
Y890581D01*
X724136Y723592D02*
Y733427D01*
X717193Y716649D02*
X724136Y723592D01*
X667707Y716649D02*
X717193D01*
X656600Y382350D02*
X656607Y382357D01*
X616350Y941850D02*
X617889Y943389D01*
X650139D01*
D15*
X834251Y726249D02*
D03*
X740251Y756249D02*
D03*
Y726249D02*
D03*
X834251Y756249D02*
D03*
X609251D02*
D03*
X703251Y726249D02*
D03*
X609251D02*
D03*
X703251Y756249D02*
D03*
X740250Y605000D02*
D03*
X834250D02*
D03*
D16*
X787251Y795099D02*
D03*
Y687399D02*
D03*
X656251Y795099D02*
D03*
Y687399D02*
D03*
X787250Y643850D02*
D03*
Y566150D02*
D03*
D17*
X884750Y604250D02*
D03*
X900750D02*
D03*
D18*
X872500D02*
D03*
X859500D02*
D03*
X859500Y640750D02*
D03*
X872500D02*
D03*
D19*
X391751Y726501D02*
D03*
X421751Y820501D02*
D03*
Y726501D02*
D03*
X391751Y820501D02*
D03*
X391749Y692499D02*
D03*
Y598499D02*
D03*
X421749Y692499D02*
D03*
Y598499D02*
D03*
X391751Y562750D02*
D03*
X301750Y191750D02*
D03*
X391751Y468750D02*
D03*
X421751Y562750D02*
D03*
Y468750D02*
D03*
X301750Y285750D02*
D03*
D20*
X352901Y773501D02*
D03*
X460601D02*
D03*
X352899Y645499D02*
D03*
X460599D02*
D03*
X352901Y515750D02*
D03*
X460601D02*
D03*
X340600Y238750D02*
D03*
X262900D02*
D03*
D21*
X896250Y351250D02*
D03*
X298750Y692000D02*
D03*
X641750Y646500D02*
D03*
X298750Y482500D02*
D03*
Y746750D02*
D03*
X269750Y327250D02*
D03*
X331250Y482500D02*
D03*
X863750Y351250D02*
D03*
X609250Y646500D02*
D03*
X331250Y692000D02*
D03*
Y746750D02*
D03*
X302250Y327250D02*
D03*
D22*
X720000Y670000D02*
D03*
Y702500D02*
D03*
D35*
X280060Y416000D02*
D03*
X780060D02*
D03*
D41*
X331250Y692000D02*
X390999D01*
X391749Y698849D02*
X395099Y702199D01*
X391749Y692499D02*
Y698849D01*
X404750Y719750D02*
X409916Y724916D01*
X401235Y702199D02*
X404750Y705714D01*
Y719750D01*
X395099Y702199D02*
X401235D01*
X419986Y726501D02*
X421751D01*
X418401Y724916D02*
X419986Y726501D01*
X409916Y724916D02*
X418401D01*
X335021Y490000D02*
X422411D01*
X333250Y482500D02*
Y488229D01*
X335021Y490000D01*
X422411D02*
X423350Y489061D01*
Y476248D02*
Y489061D01*
X421751Y468750D02*
Y472898D01*
X484248Y476248D02*
X510178Y502178D01*
X425101Y476248D02*
X484248D01*
X301750Y285750D02*
X302000Y286000D01*
Y327000D02*
X302250Y327250D01*
X302000Y286000D02*
Y327000D01*
X615601Y727449D02*
X648422D01*
X609251Y726249D02*
X615601D01*
X618951Y722899D01*
X683351Y710649D02*
X690000Y704000D01*
X718500D01*
X648422Y727449D02*
X665222Y710649D01*
X683351D01*
X331250Y746750D02*
X421751D01*
X330500D02*
X331250D01*
X302250Y327250D02*
Y356750D01*
X863750Y351250D02*
X864000Y351500D01*
Y353750D01*
Y403000D01*
X718500Y704000D02*
X720000Y702500D01*
X740251Y707785D02*
Y726249D01*
X721771Y704271D02*
X736736D01*
X720000Y702500D02*
X721771Y704271D01*
X736736D02*
X740251Y707785D01*
X302250Y356750D02*
X302500Y357000D01*
D42*
X421751Y790137D02*
X498029Y866416D01*
Y955721D01*
X505059Y962750D02*
X507750D01*
X498029Y955721D02*
X505059Y962750D01*
X609251Y570529D02*
Y646499D01*
X609250Y646500D02*
X609251Y646499D01*
X602221Y563500D02*
X609251Y570529D01*
X565250Y563500D02*
X602221D01*
X609250Y646500D02*
X609251Y646501D01*
X609250Y646500D02*
Y646500D01*
X609251Y646501D02*
Y725999D01*
X421751Y726501D02*
Y746750D01*
Y790137D01*
D43*
X940060Y405000D02*
D03*
D44*
X520250Y644250D02*
D03*
Y669650D02*
D03*
Y695050D02*
D03*
Y720450D02*
D03*
Y745850D02*
D03*
Y771250D02*
D03*
Y796650D02*
D03*
Y822050D02*
D03*
Y847450D02*
D03*
X545650Y898250D02*
D03*
X520250Y923650D02*
D03*
X545650Y568050D02*
D03*
Y593450D02*
D03*
X520250Y568050D02*
D03*
Y593450D02*
D03*
Y542650D02*
D03*
X545650D02*
D03*
X520250Y517250D02*
D03*
Y999850D02*
D03*
X545650D02*
D03*
X520250Y974450D02*
D03*
X545650D02*
D03*
X520250Y949050D02*
D03*
X545650D02*
D03*
Y923650D02*
D03*
X520250Y898250D02*
D03*
X545650Y872850D02*
D03*
X520250D02*
D03*
X545650Y847450D02*
D03*
Y822050D02*
D03*
Y796650D02*
D03*
Y771250D02*
D03*
Y745850D02*
D03*
Y720450D02*
D03*
X520250Y618850D02*
D03*
X545650D02*
D03*
Y644250D02*
D03*
Y669650D02*
D03*
Y695050D02*
D03*
D45*
X720560Y444400D02*
D03*
X695160D02*
D03*
X669760D02*
D03*
X644360D02*
D03*
X618960D02*
D03*
X593560D02*
D03*
X568160D02*
D03*
X542760D02*
D03*
X517360D02*
D03*
X390360Y393600D02*
D03*
X415760D02*
D03*
X695160D02*
D03*
X669760D02*
D03*
X644360D02*
D03*
X618960D02*
D03*
X593560D02*
D03*
X568160D02*
D03*
X542760D02*
D03*
X517360D02*
D03*
X491960D02*
D03*
X466560D02*
D03*
X441160D02*
D03*
X364960D02*
D03*
X339560D02*
D03*
X720560Y419000D02*
D03*
X695160D02*
D03*
X669760D02*
D03*
X644360D02*
D03*
X618960D02*
D03*
X593560D02*
D03*
X568160D02*
D03*
X542760D02*
D03*
X517360D02*
D03*
X491960D02*
D03*
X466560D02*
D03*
X441160D02*
D03*
X415760D02*
D03*
X390360D02*
D03*
X364960D02*
D03*
X339560D02*
D03*
X491960Y444400D02*
D03*
X466560D02*
D03*
X441160D02*
D03*
X415760D02*
D03*
X390360D02*
D03*
X364960D02*
D03*
X339560D02*
D03*
D46*
X890060Y405000D02*
D03*
D47*
X666750Y831350D02*
D03*
Y988850D02*
D03*
X425600Y853400D02*
D03*
Y1010900D02*
D03*
D48*
X746350Y973100D02*
D03*
Y948200D02*
D03*
Y872000D02*
D03*
Y847100D02*
D03*
X616350Y865650D02*
D03*
X641750Y878350D02*
D03*
X616350Y891050D02*
D03*
X641750Y903750D02*
D03*
X616350Y916450D02*
D03*
X641750Y929150D02*
D03*
X616350Y941850D02*
D03*
X641750Y954550D02*
D03*
X450600Y887700D02*
D03*
X476000Y900400D02*
D03*
X450600Y913100D02*
D03*
X476000Y925800D02*
D03*
X450600Y938500D02*
D03*
X476000Y951200D02*
D03*
X450600Y963900D02*
D03*
X476000Y976600D02*
D03*
X346000Y995150D02*
D03*
Y970250D02*
D03*
Y894050D02*
D03*
Y869150D02*
D03*
X651313Y301313D02*
D03*
Y58814D02*
D03*
X408814D02*
D03*
Y301313D02*
D03*
D49*
X545650Y517250D02*
D03*
D50*
X720560Y393600D02*
D03*
D51*
X449500Y796000D02*
D03*
X461250Y796250D02*
D03*
X472750Y796500D02*
D03*
X249000Y484000D02*
D03*
X282000Y449000D02*
D03*
X266250Y459750D02*
D03*
X281000Y460250D02*
D03*
X290500Y393500D02*
D03*
X315500Y385750D02*
D03*
Y406250D02*
D03*
X815000Y390250D02*
D03*
X834000Y421250D02*
D03*
X819250Y439750D02*
D03*
X791750Y533250D02*
D03*
X847250Y540000D02*
D03*
X779500Y578750D02*
D03*
X834000Y583000D02*
D03*
X838750Y637000D02*
D03*
X813500Y665000D02*
D03*
X764250Y624500D02*
D03*
X763750Y666250D02*
D03*
X763380Y699512D02*
D03*
X763500Y739750D02*
D03*
X778500Y721250D02*
D03*
X762500Y777000D02*
D03*
X753750Y800000D02*
D03*
X738750Y819250D02*
D03*
X764250Y812500D02*
D03*
X781000Y835250D02*
D03*
X693587Y882305D02*
D03*
X712578Y896074D02*
D03*
X695000Y915000D02*
D03*
X683250Y812500D02*
D03*
X623500Y984000D02*
D03*
X589250Y983250D02*
D03*
X588750Y959750D02*
D03*
X707750Y791750D02*
D03*
X720000Y782250D02*
D03*
X753750Y407500D02*
D03*
X754500Y436000D02*
D03*
X699750Y535750D02*
D03*
X717500Y549250D02*
D03*
X696500Y564750D02*
D03*
X716000Y577500D02*
D03*
X697750Y598000D02*
D03*
X713000Y609000D02*
D03*
X719000Y655500D02*
D03*
X701250Y630750D02*
D03*
X339500Y358250D02*
D03*
X399000Y352250D02*
D03*
X302500Y357000D02*
D03*
X256250Y725000D02*
D03*
X330500Y821750D02*
D03*
X327250Y427000D02*
D03*
X656607Y382357D02*
D03*
X650139Y943389D02*
D03*
M02*
