G04*
G04 #@! TF.GenerationSoftware,Altium Limited,Altium Designer,25.5.2 (35)*
G04*
G04 Layer_Color=32896*
%FSLAX44Y44*%
%MOMM*%
G71*
G04*
G04 #@! TF.SameCoordinates,F72C58DA-7479-44D0-9E82-083B63CA5D52*
G04*
G04*
G04 #@! TF.FilePolarity,Positive*
G04*
G01*
G75*
%ADD10C,0.3000*%
%ADD11C,0.1270*%
%ADD12C,0.1500*%
%ADD13C,0.2000*%
%ADD14C,0.2540*%
G36*
X365703Y712725D02*
X366040Y712696D01*
X366317Y712652D01*
X366566Y712608D01*
X366756Y712549D01*
X366888Y712505D01*
X366976Y712476D01*
X367005Y712461D01*
X367210Y712359D01*
X367400Y712227D01*
X367561Y712096D01*
X367693Y711979D01*
X367810Y711862D01*
X367883Y711774D01*
X367927Y711715D01*
X367942Y711686D01*
X368059Y711481D01*
X368146Y711262D01*
X368219Y711028D01*
X368278Y710808D01*
X368322Y710603D01*
X368351Y710443D01*
X368366Y710384D01*
X368380Y710340D01*
Y710311D01*
Y710296D01*
X366259Y710135D01*
X366215Y710355D01*
X366171Y710545D01*
X366113Y710706D01*
X366054Y710823D01*
X366010Y710911D01*
X365966Y710984D01*
X365937Y711013D01*
X365923Y711028D01*
X365820Y711115D01*
X365718Y711174D01*
X365601Y711233D01*
X365498Y711262D01*
X365410Y711276D01*
X365337Y711291D01*
X365264D01*
X365118Y711276D01*
X365001Y711247D01*
X364884Y711218D01*
X364796Y711174D01*
X364723Y711115D01*
X364664Y711086D01*
X364635Y711057D01*
X364620Y711042D01*
X364533Y710940D01*
X364474Y710837D01*
X364416Y710750D01*
X364386Y710647D01*
X364372Y710574D01*
X364357Y710501D01*
Y710457D01*
Y710443D01*
X364372Y710325D01*
X364401Y710194D01*
X364445Y710077D01*
X364489Y709974D01*
X364533Y709887D01*
X364576Y709813D01*
X364606Y709770D01*
X364620Y709755D01*
X364679Y709682D01*
X364752Y709609D01*
X364913Y709448D01*
X365118Y709272D01*
X365323Y709111D01*
X365513Y708950D01*
X365674Y708833D01*
X365732Y708789D01*
X365776Y708745D01*
X365805Y708731D01*
X365820Y708716D01*
X366098Y708511D01*
X366347Y708307D01*
X366566Y708116D01*
X366771Y707941D01*
X366961Y707765D01*
X367137Y707604D01*
X367283Y707458D01*
X367415Y707312D01*
X367532Y707195D01*
X367634Y707077D01*
X367707Y706990D01*
X367766Y706902D01*
X367824Y706843D01*
X367854Y706800D01*
X367883Y706770D01*
Y706756D01*
X368073Y706448D01*
X368219Y706141D01*
X368336Y705834D01*
X368424Y705571D01*
X368483Y705337D01*
X368497Y705249D01*
X368512Y705161D01*
X368527Y705088D01*
X368541Y705044D01*
Y705015D01*
Y705000D01*
X362192D01*
Y706726D01*
X365513D01*
X365308Y706917D01*
X365147Y707063D01*
X365089Y707107D01*
X365045Y707151D01*
X365015Y707165D01*
X365001Y707180D01*
X364898Y707253D01*
X364781Y707355D01*
X364489Y707560D01*
X364357Y707648D01*
X364255Y707721D01*
X364182Y707780D01*
X364152Y707794D01*
X363962Y707941D01*
X363772Y708072D01*
X363611Y708204D01*
X363465Y708336D01*
X363201Y708570D01*
X362996Y708775D01*
X362850Y708950D01*
X362733Y709082D01*
X362674Y709155D01*
X362660Y709184D01*
X362528Y709433D01*
X362426Y709667D01*
X362353Y709887D01*
X362294Y710091D01*
X362265Y710267D01*
X362250Y710399D01*
Y710486D01*
Y710501D01*
Y710516D01*
X362265Y710750D01*
X362309Y710984D01*
X362367Y711174D01*
X362426Y711350D01*
X362499Y711496D01*
X362557Y711613D01*
X362601Y711672D01*
X362616Y711701D01*
X362762Y711891D01*
X362923Y712052D01*
X363084Y712184D01*
X363231Y712286D01*
X363377Y712374D01*
X363494Y712432D01*
X363567Y712461D01*
X363582Y712476D01*
X363596D01*
X363845Y712564D01*
X364123Y712623D01*
X364416Y712681D01*
X364693Y712710D01*
X364942Y712725D01*
X365045D01*
X365132Y712739D01*
X365323D01*
X365703Y712725D01*
D02*
G37*
G36*
X372565Y712476D02*
X372726Y712242D01*
X372872Y712023D01*
X373033Y711847D01*
X373164Y711701D01*
X373267Y711598D01*
X373340Y711540D01*
X373369Y711510D01*
X373618Y711335D01*
X373881Y711174D01*
X374159Y711042D01*
X374423Y710925D01*
X374672Y710823D01*
X374774Y710779D01*
X374862Y710750D01*
X374935Y710721D01*
X374993Y710706D01*
X375023Y710691D01*
X375037D01*
Y708965D01*
X374774Y709053D01*
X374540Y709126D01*
X374335Y709199D01*
X374159Y709272D01*
X374013Y709331D01*
X373911Y709374D01*
X373838Y709404D01*
X373823Y709418D01*
X373457Y709623D01*
X373296Y709726D01*
X373135Y709828D01*
X373004Y709930D01*
X372901Y710004D01*
X372843Y710048D01*
X372813Y710062D01*
Y705000D01*
X370677D01*
Y712739D01*
X372433D01*
X372565Y712476D01*
D02*
G37*
G36*
X380260Y709638D02*
X382250D01*
Y707955D01*
X380260D01*
Y705966D01*
X378578D01*
Y707955D01*
X376588D01*
Y709638D01*
X378578D01*
Y711628D01*
X380260D01*
Y709638D01*
D02*
G37*
G36*
X434622Y819606D02*
X435031Y819563D01*
X435382Y819504D01*
X435543Y819460D01*
X435675Y819431D01*
X435807Y819402D01*
X435924Y819358D01*
X436012Y819329D01*
X436085Y819299D01*
X436143Y819270D01*
X436202Y819255D01*
X436216Y819241D01*
X436231D01*
X436582Y819051D01*
X436889Y818831D01*
X437138Y818597D01*
X437357Y818378D01*
X437519Y818173D01*
X437635Y817997D01*
X437679Y817939D01*
X437709Y817895D01*
X437738Y817866D01*
Y817851D01*
X437914Y817500D01*
X438031Y817119D01*
X438118Y816768D01*
X438191Y816417D01*
X438206Y816271D01*
X438221Y816124D01*
X438235Y816007D01*
Y815890D01*
X438250Y815803D01*
Y815744D01*
Y815700D01*
Y815686D01*
X438235Y815261D01*
X438177Y814852D01*
X438104Y814501D01*
X438016Y814193D01*
X437972Y814047D01*
X437928Y813930D01*
X437884Y813828D01*
X437855Y813740D01*
X437826Y813667D01*
X437797Y813623D01*
X437782Y813593D01*
Y813579D01*
X437592Y813257D01*
X437372Y812979D01*
X437153Y812745D01*
X436948Y812555D01*
X436758Y812394D01*
X436611Y812291D01*
X436553Y812247D01*
X436509Y812233D01*
X436480Y812204D01*
X436465D01*
X436129Y812057D01*
X435748Y811940D01*
X435382Y811867D01*
X435031Y811808D01*
X434870Y811794D01*
X434724Y811779D01*
X434592Y811765D01*
X434475D01*
X434388Y811750D01*
X434256D01*
X433861Y811765D01*
X433495Y811794D01*
X433173Y811823D01*
X432895Y811882D01*
X432661Y811926D01*
X432573Y811940D01*
X432500Y811955D01*
X432442Y811969D01*
X432383Y811984D01*
X432369Y811999D01*
X432354D01*
X432047Y812116D01*
X431725Y812262D01*
X431418Y812423D01*
X431125Y812584D01*
X430876Y812730D01*
X430759Y812789D01*
X430672Y812847D01*
X430598Y812891D01*
X430540Y812935D01*
X430510Y812950D01*
X430496Y812964D01*
Y816227D01*
X434139D01*
Y814647D01*
X432559D01*
Y813915D01*
X432734Y813813D01*
X432881Y813740D01*
X433027Y813667D01*
X433144Y813608D01*
X433246Y813579D01*
X433334Y813549D01*
X433378Y813520D01*
X433393D01*
X433656Y813462D01*
X433788Y813447D01*
X433890Y813432D01*
X433993Y813418D01*
X434139D01*
X434431Y813447D01*
X434695Y813506D01*
X434914Y813579D01*
X435104Y813681D01*
X435251Y813784D01*
X435353Y813857D01*
X435412Y813915D01*
X435441Y813944D01*
X435514Y814047D01*
X435587Y814179D01*
X435704Y814442D01*
X435778Y814735D01*
X435836Y815027D01*
X435865Y815291D01*
X435880Y815393D01*
Y815495D01*
X435895Y815583D01*
Y815642D01*
Y815686D01*
Y815700D01*
Y815920D01*
X435880Y816110D01*
X435821Y816461D01*
X435748Y816754D01*
X435660Y817002D01*
X435587Y817178D01*
X435514Y817309D01*
X435456Y817383D01*
X435441Y817412D01*
X435251Y817588D01*
X435061Y817719D01*
X434856Y817822D01*
X434651Y817880D01*
X434475Y817924D01*
X434344Y817939D01*
X434285Y817953D01*
X434212D01*
X434022Y817939D01*
X433861Y817924D01*
X433700Y817880D01*
X433583Y817836D01*
X433480Y817792D01*
X433407Y817763D01*
X433363Y817734D01*
X433349Y817719D01*
X433232Y817631D01*
X433129Y817514D01*
X433042Y817412D01*
X432983Y817309D01*
X432924Y817207D01*
X432895Y817134D01*
X432866Y817076D01*
Y817061D01*
X430598Y817456D01*
X430686Y817719D01*
X430788Y817968D01*
X430891Y818173D01*
X430993Y818348D01*
X431081Y818480D01*
X431154Y818582D01*
X431213Y818655D01*
X431227Y818670D01*
X431388Y818846D01*
X431564Y818992D01*
X431740Y819109D01*
X431900Y819212D01*
X432047Y819285D01*
X432164Y819343D01*
X432237Y819372D01*
X432252Y819387D01*
X432266D01*
X432398Y819431D01*
X432529Y819460D01*
X432822Y819519D01*
X433144Y819563D01*
X433451Y819592D01*
X433715Y819606D01*
X433846Y819621D01*
X434154D01*
X434622Y819606D01*
D02*
G37*
G36*
X435283Y711249D02*
X437273Y708382D01*
X434991D01*
X433791Y710152D01*
X432767Y708382D01*
X430309D01*
X432328Y711249D01*
X430441Y713883D01*
X432767D01*
X433791Y712346D01*
X434669Y713883D01*
X437171D01*
X435283Y711249D01*
D02*
G37*
G36*
X440975Y714892D02*
Y713883D01*
X441750D01*
Y712332D01*
X440975D01*
Y710386D01*
X440960Y710064D01*
X440945Y709786D01*
X440916Y709567D01*
X440887Y709377D01*
X440858Y709230D01*
X440828Y709128D01*
X440799Y709069D01*
Y709055D01*
X440726Y708908D01*
X440638Y708791D01*
X440550Y708674D01*
X440462Y708601D01*
X440389Y708528D01*
X440316Y708484D01*
X440272Y708455D01*
X440258Y708440D01*
X440097Y708382D01*
X439907Y708338D01*
X439716Y708294D01*
X439526Y708279D01*
X439351Y708265D01*
X439219Y708250D01*
X439087D01*
X438824Y708265D01*
X438561Y708279D01*
X438312Y708308D01*
X438092Y708338D01*
X437902Y708367D01*
X437741Y708382D01*
X437683Y708396D01*
X437639Y708411D01*
X437610D01*
X437771Y709874D01*
X437917Y709830D01*
X438049Y709801D01*
X438166Y709772D01*
X438253Y709757D01*
X438326D01*
X438385Y709742D01*
X438429D01*
X438517Y709757D01*
X438590Y709772D01*
X438707Y709830D01*
X438780Y709889D01*
X438795Y709918D01*
X438809Y709962D01*
X438824Y710035D01*
X438839Y710181D01*
X438853Y710254D01*
Y710313D01*
Y710357D01*
Y710371D01*
Y712332D01*
X437697D01*
Y713883D01*
X438853D01*
Y715990D01*
X440975Y714892D01*
D02*
G37*
G36*
X375399Y804118D02*
X377389Y801250D01*
X375107D01*
X373907Y803020D01*
X372883Y801250D01*
X370425D01*
X372444Y804118D01*
X370556Y806751D01*
X372883D01*
X373907Y805215D01*
X374785Y806751D01*
X377286D01*
X375399Y804118D01*
D02*
G37*
G36*
X378354Y806868D02*
X378501Y806853D01*
X378632Y806810D01*
X378750Y806766D01*
X378837Y806722D01*
X378896Y806693D01*
X378940Y806663D01*
X378954Y806649D01*
X379057Y806546D01*
X379159Y806429D01*
X379349Y806166D01*
X379422Y806034D01*
X379481Y805946D01*
X379510Y805873D01*
X379525Y805844D01*
Y806751D01*
X381500D01*
Y801250D01*
X379379D01*
Y803093D01*
Y803327D01*
X379364Y803547D01*
X379349Y803752D01*
X379335Y803927D01*
X379305Y804088D01*
X379276Y804249D01*
X379247Y804366D01*
X379218Y804483D01*
X379188Y804586D01*
X379159Y804673D01*
X379101Y804791D01*
X379071Y804864D01*
X379057Y804893D01*
X378969Y805010D01*
X378867Y805098D01*
X378750Y805156D01*
X378647Y805200D01*
X378559Y805229D01*
X378486Y805244D01*
X378325D01*
X378237Y805215D01*
X378047Y805171D01*
X377959Y805142D01*
X377886Y805112D01*
X377842Y805098D01*
X377828Y805083D01*
X377169Y806575D01*
X377374Y806678D01*
X377564Y806751D01*
X377740Y806810D01*
X377886Y806839D01*
X378018Y806868D01*
X378106Y806883D01*
X378194D01*
X378354Y806868D01*
D02*
G37*
G36*
X356958Y821000D02*
X353545D01*
X349780Y831144D01*
X352959D01*
X355222Y823829D01*
X357524Y831144D01*
X360782D01*
X356958Y821000D01*
D02*
G37*
G36*
X370750D02*
X366107D01*
X365776Y821020D01*
X365464Y821039D01*
X365151Y821078D01*
X364859Y821137D01*
X364605Y821195D01*
X364410Y821234D01*
X364332Y821254D01*
X364274D01*
X364254Y821273D01*
X364235D01*
X363961Y821371D01*
X363688Y821488D01*
X363454Y821605D01*
X363240Y821741D01*
X363064Y821878D01*
X362928Y821975D01*
X362850Y822053D01*
X362811Y822073D01*
X362576Y822307D01*
X362362Y822561D01*
X362186Y822814D01*
X362050Y823048D01*
X361933Y823263D01*
X361835Y823419D01*
X361796Y823536D01*
X361777Y823575D01*
X361660Y823946D01*
X361562Y824355D01*
X361504Y824765D01*
X361445Y825174D01*
X361426Y825526D01*
Y825682D01*
X361406Y825818D01*
Y825935D01*
Y826013D01*
Y826072D01*
Y826091D01*
X361426Y826481D01*
X361445Y826833D01*
X361484Y827164D01*
X361523Y827457D01*
X361582Y827710D01*
X361621Y827906D01*
X361640Y828023D01*
X361660Y828042D01*
Y828062D01*
X361777Y828393D01*
X361894Y828705D01*
X362030Y828979D01*
X362167Y829232D01*
X362284Y829408D01*
X362381Y829564D01*
X362459Y829642D01*
X362479Y829681D01*
X362693Y829934D01*
X362928Y830149D01*
X363162Y830324D01*
X363376Y830480D01*
X363591Y830598D01*
X363747Y830695D01*
X363844Y830734D01*
X363864Y830754D01*
X363884D01*
X364215Y830890D01*
X364586Y830988D01*
X364956Y831046D01*
X365308Y831105D01*
X365620Y831124D01*
X365756D01*
X365873Y831144D01*
X370750D01*
Y821000D01*
D02*
G37*
G36*
X348746D02*
X340728D01*
Y823497D01*
X345605D01*
Y831144D01*
X348746D01*
Y821000D01*
D02*
G37*
%LPC*%
G36*
X367609Y828842D02*
X366829D01*
X366400Y828822D01*
X366049Y828744D01*
X365756Y828647D01*
X365503Y828549D01*
X365327Y828432D01*
X365191Y828335D01*
X365112Y828257D01*
X365093Y828237D01*
X364995Y828120D01*
X364917Y827984D01*
X364781Y827652D01*
X364683Y827281D01*
X364605Y826911D01*
X364566Y826579D01*
Y826423D01*
X364547Y826286D01*
Y826189D01*
Y826111D01*
Y826052D01*
Y826033D01*
X364566Y825604D01*
X364586Y825253D01*
X364625Y824940D01*
X364664Y824706D01*
X364722Y824511D01*
X364761Y824375D01*
X364781Y824297D01*
X364800Y824277D01*
X364898Y824082D01*
X364995Y823926D01*
X365112Y823790D01*
X365210Y823692D01*
X365308Y823614D01*
X365366Y823556D01*
X365424Y823536D01*
X365444Y823516D01*
X365620Y823438D01*
X365834Y823399D01*
X366302Y823321D01*
X366517D01*
X366693Y823302D01*
X367609D01*
Y828842D01*
D02*
G37*
%LPD*%
D10*
X721560Y358000D02*
G03*
X721560Y358000I-1500J0D01*
G01*
D11*
X388050Y736830D02*
X392050Y729830D01*
X396050Y736830D01*
X388050D02*
X396050D01*
X354680Y796830D02*
X382199D01*
X354680Y771451D02*
Y796830D01*
Y719360D02*
Y748551D01*
Y719360D02*
X382199D01*
X431299D02*
X458820D01*
Y748551D01*
Y771451D02*
Y796830D01*
X431299D02*
X458820D01*
X934060Y441500D02*
X944060D01*
X889060Y436500D02*
Y446500D01*
X884060Y441500D02*
X894060D01*
D12*
X367500Y657750D02*
X382500D01*
X375000Y661250D02*
Y670500D01*
Y679750D01*
X367500Y683250D02*
X382500D01*
D13*
X642750Y996100D02*
G03*
X640750Y996100I-1000J0D01*
G01*
D02*
G03*
X642750Y996100I1000J0D01*
G01*
X451600Y846150D02*
G03*
X449600Y846150I-1000J0D01*
G01*
D02*
G03*
X451600Y846150I1000J0D01*
G01*
X685750Y829350D02*
X770750D01*
Y990850D01*
X685750D02*
X770750D01*
X603750Y829350D02*
X645750D01*
X603750D02*
Y990850D01*
X645750D01*
X446600Y851400D02*
X488600D01*
Y1012900D01*
X446600D02*
X488600D01*
X321600Y851400D02*
X406600D01*
X321600D02*
Y1012900D01*
X406600D01*
X255060Y473000D02*
X805060D01*
Y365000D02*
Y473000D01*
X255060Y365000D02*
X805060D01*
X255060D02*
Y473000D01*
X341666Y679332D02*
X343332Y680998D01*
X346665D01*
X348331Y679332D01*
Y672668D01*
X346665Y671002D01*
X343332D01*
X341666Y672668D01*
X338334Y679332D02*
X336668Y680998D01*
X333335D01*
X331669Y679332D01*
Y677666D01*
X333335Y676000D01*
X331669Y674334D01*
Y672668D01*
X333335Y671002D01*
X336668D01*
X338334Y672668D01*
Y674334D01*
X336668Y676000D01*
X338334Y677666D01*
Y679332D01*
X336668Y676000D02*
X333335D01*
X484244Y816498D02*
X477580Y806502D01*
Y816498D02*
X484244Y806502D01*
X474248D02*
Y816498D01*
X469249D01*
X467583Y814832D01*
Y811500D01*
X469249Y809834D01*
X474248D01*
X464251Y806502D02*
X460919D01*
X462585D01*
Y816498D01*
X464251Y814832D01*
X449256Y806502D02*
X455920D01*
X449256Y813166D01*
Y814832D01*
X450922Y816498D01*
X454254D01*
X455920Y814832D01*
X927413Y447248D02*
X920748Y437252D01*
Y447248D02*
X927413Y437252D01*
X917416D02*
Y447248D01*
X912418D01*
X910752Y445582D01*
Y442250D01*
X912418Y440584D01*
X917416D01*
X907419Y437252D02*
X904087D01*
X905753D01*
Y447248D01*
X907419Y445582D01*
X469829Y1033498D02*
X463164Y1023502D01*
Y1033498D02*
X469829Y1023502D01*
X459832D02*
Y1033498D01*
X454834D01*
X453168Y1031832D01*
Y1028500D01*
X454834Y1026834D01*
X459832D01*
X443171Y1033498D02*
X446503Y1031832D01*
X449836Y1028500D01*
Y1025168D01*
X448169Y1023502D01*
X444837D01*
X443171Y1025168D01*
Y1026834D01*
X444837Y1028500D01*
X449836D01*
X804164Y491073D02*
X797499Y481076D01*
Y491073D02*
X804164Y481076D01*
X794167D02*
Y491073D01*
X789169D01*
X787503Y489407D01*
Y486074D01*
X789169Y484408D01*
X794167D01*
X777506Y481076D02*
X784170D01*
X777506Y487741D01*
Y489407D01*
X779172Y491073D01*
X782504D01*
X784170Y489407D01*
D14*
X864060Y379000D02*
X966060D01*
Y431000D01*
X864060D02*
X966060D01*
X864060Y379000D02*
Y431000D01*
X806829Y968248D02*
X800164Y958252D01*
Y968248D02*
X806829Y958252D01*
X796832D02*
Y968248D01*
X791834D01*
X790168Y966582D01*
Y963250D01*
X791834Y961584D01*
X796832D01*
X780171Y968248D02*
X786835D01*
Y963250D01*
X783503Y964916D01*
X781837D01*
X780171Y963250D01*
Y959918D01*
X781837Y958252D01*
X785169D01*
X786835Y959918D01*
M02*
